<?xml version="1.0" standalone="no"?>
<!DOCTYPE svg PUBLIC "-//W3C//DTD SVG 1.1//EN" "http://www.w3.org/Graphics/SVG/1.1/DTD/svg11.dtd" >
<svg xmlns="http://www.w3.org/2000/svg">
<metadata></metadata>
<defs>
<font id="infobook" horiz-adv-x="940" >
<font-face units-per-em="2048" ascent="1638" descent="-410" />
<missing-glyph horiz-adv-x="401" />
<glyph unicode="&#xfb01;" horiz-adv-x="997" d="M23 889v55q0 18 11 31.5t32 13.5h110v174q0 86 24.5 143.5t68.5 92.5t105.5 50t135.5 15q33 0 70.5 -5t74.5 -13t69 -17.5t50 -17.5t24.5 -24.5t0.5 -32.5l-29 -80q-12 -33 -51 -21q-14 4 -38 11.5t-52.5 14.5t-58 12t-56.5 5q-68 0 -111 -27.5t-43 -115.5v-164h467 q45 0 45 -43v-901q0 -18 -13 -31.5t-32 -13.5h-92q-18 0 -31.5 13.5t-13.5 31.5v799h-330v-799q0 -18 -14 -31.5t-33 -13.5h-90q-16 0 -31.5 13.5t-15.5 31.5v799h-110q-20 0 -31.5 13t-11.5 32z" />
<glyph unicode="&#xfb02;" horiz-adv-x="1042" d="M23 889v55q0 18 12 31.5t33 13.5h114l-2 187q0 82 23.5 137t67.5 89t104.5 48t132.5 14q45 0 92 -7t90 -17t79 -21.5t58 -19.5q16 -6 29.5 -17.5t13.5 -33.5v-1121q0 -39 9.5 -59.5t42.5 -20.5q14 0 30.5 4.5t32.5 8.5q41 10 49 -31l15 -72q6 -33 -29 -45 q-29 -10 -61.5 -16t-73.5 -6q-104 0 -150.5 49t-46.5 141v1088q-29 10 -80 21t-98 11q-31 0 -56.5 -4t-46 -18t-31.5 -40t-11 -71v-178h153q18 0 31.5 -13t13.5 -32v-55q0 -18 -13 -31.5t-32 -13.5h-153v-799q0 -18 -14.5 -31.5t-33.5 -13.5h-92q-16 0 -30.5 13.5 t-14.5 31.5v799h-112q-20 0 -32.5 13t-12.5 32z" />
<glyph horiz-adv-x="0" />
<glyph unicode="&#xd;" horiz-adv-x="401" />
<glyph unicode=" "  horiz-adv-x="401" />
<glyph unicode="&#x09;" horiz-adv-x="401" />
<glyph unicode="&#xa0;" horiz-adv-x="401" />
<glyph unicode="!" horiz-adv-x="620" d="M180 125q0 57 40 96t97 39t96.5 -39t39.5 -96t-39 -96t-97 -39q-57 0 -97 39t-40 96zM209 1370q0 45 45 45h125q45 0 45 -45l-23 -891q0 -51 -45 -51h-77q-20 0 -31.5 14.5t-11.5 36.5z" />
<glyph unicode="&#x22;" horiz-adv-x="739" d="M123 1407q-2 20 12.5 32.5t32.5 12.5h92q18 0 33.5 -12.5t13.5 -32.5l-18 -342q-2 -18 -15.5 -31.5t-31.5 -13.5h-56q-18 0 -31.5 13.5t-15.5 31.5zM434 1407q-2 20 12.5 32.5t32.5 12.5h92q16 0 33 -12.5t14 -32.5l-18 -342q-2 -18 -16.5 -31.5t-30.5 -13.5h-55 q-18 0 -31.5 13.5t-15.5 31.5z" />
<glyph unicode="#" horiz-adv-x="1185" d="M88 473l6 51q2 16 13.5 29.5t31.5 13.5h166l43 289h-160q-20 0 -31.5 15.5t-6.5 33.5l8 49q4 18 13 30.5t30 12.5h168l45 336q4 20 19.5 31.5t33.5 11.5h61q18 0 30.5 -12t8.5 -33l-45 -334h250l45 336q4 20 19.5 31.5t33.5 11.5h62q18 0 30.5 -12t8.5 -33l-47 -334h155 q18 0 30.5 -12t8.5 -31l-8 -51q-4 -18 -14.5 -32.5t-28.5 -14.5h-162l-43 -289h156q18 0 29.5 -13t9.5 -30l-6 -53q-2 -16 -14.5 -30.5t-30.5 -14.5h-164l-58 -381q-4 -18 -18 -31.5t-33 -13.5h-61q-18 0 -30.5 13.5t-8.5 31.5l55 381h-250l-57 -381q-4 -18 -18.5 -31.5 t-32.5 -13.5h-62q-18 0 -30.5 13.5t-8.5 31.5l56 381h-158q-20 0 -30.5 15.5t-8.5 31.5zM459 567h250l43 289h-250z" />
<glyph unicode="$" horiz-adv-x="1034" d="M137 102l23 91q4 18 19.5 28t37.5 2q49 -16 116.5 -35.5t147.5 -23.5v450q-61 20 -120.5 48t-105.5 70t-74.5 101.5t-28.5 143.5q0 141 85 239.5t244 122.5v140q0 20 14.5 31.5t32.5 11.5h54q18 0 31.5 -11.5t13.5 -31.5v-133q66 -4 131 -15.5t108 -27.5 q16 -4 23.5 -20.5t3.5 -35.5l-19 -80q-4 -18 -20 -27.5t-33 -4.5q-47 14 -94 25t-100 16v-420q61 -23 122.5 -53.5t109.5 -74.5t78 -107.5t30 -151.5q0 -68 -20.5 -128.5t-62.5 -109.5t-105.5 -84t-151.5 -49v-166q0 -18 -13.5 -31.5t-31.5 -13.5h-54q-18 0 -32.5 13.5 t-14.5 31.5v158q-86 2 -170 18.5t-143 38.5q-41 16 -31 55zM342 983q0 -68 39 -111t100 -69v368q-74 -16 -106.5 -66t-32.5 -122zM627 176q68 20 107.5 67.5t39.5 121.5q0 82 -42 124.5t-105 71.5v-385z" />
<glyph unicode="%" horiz-adv-x="1878" d="M141 928q0 197 92.5 306t243.5 109q152 0 233 -109t81 -306t-81 -308.5t-233 -111.5t-244 110.5t-92 309.5zM319 930q0 -123 37 -202t115 -79t110.5 80t32.5 201q0 57 -7 107t-24.5 88t-44 59.5t-65.5 21.5q-78 0 -116 -79.5t-38 -196.5zM672 -49l413 1429q12 45 54 45 h69q23 0 31 -15t2 -38l-414 -1433q-10 -37 -41 -37h-81q-27 0 -33 13t0 36zM1124 410q0 197 92.5 306t243.5 109q152 0 233 -109t81 -306t-81 -308.5t-233 -111.5t-244 110.5t-92 309.5zM1303 410q0 -123 36.5 -202t114.5 -79t110.5 80t32.5 201q0 57 -7 107t-24.5 88 t-44 59.5t-65.5 21.5q-78 0 -115.5 -80t-37.5 -196z" />
<glyph unicode="&#x26;" horiz-adv-x="1200" d="M106 367q0 55 18.5 109t49.5 102.5t73 88.5t91 68q-68 78 -112 152t-44 172q0 63 23.5 122.5t67.5 104.5t106.5 72.5t140.5 27.5q74 0 134.5 -23.5t103.5 -64.5t66.5 -99t23.5 -128q0 -61 -20.5 -111.5t-54.5 -94.5t-79 -80.5t-96 -69.5l258 -297q10 41 15.5 90t5.5 94 v57q0 20 12 33t31 13h79q20 0 34 -12.5t14 -33.5v-53q0 -178 -70 -327l149 -177q12 -14 11.5 -31.5t-15.5 -29.5l-67 -59q-16 -12 -35 -11.5t-29 13.5l-125 145q-55 -59 -139 -99t-211 -40q-104 0 -181 29.5t-128 81t-76 120t-25 146.5zM313 373q0 -100 61.5 -160.5 t160.5 -60.5q78 0 134 28.5t93 67.5l-324 373q-55 -43 -90 -110t-35 -138zM369 1069q0 -35 7 -62.5t23.5 -54t42 -57.5t62.5 -74q66 47 109.5 100.5t43.5 143.5q0 82 -31.5 129t-109.5 47q-27 0 -53.5 -9t-47 -30.5t-33.5 -54.5t-13 -78z" />
<glyph unicode="'" horiz-adv-x="415" d="M121 1407q-2 20 12 32.5t33 12.5h92q18 0 33.5 -12.5t13.5 -32.5l-18 -342q-2 -18 -15.5 -31.5t-31.5 -13.5h-56q-18 0 -31.5 13.5t-15.5 31.5z" />
<glyph unicode="(" horiz-adv-x="581" d="M143 629q0 113 16.5 229.5t45 228t68.5 212t87 182.5q20 33 58 16l51 -22q31 -12 16 -54q-37 -109 -64.5 -200t-45 -182t-25.5 -189t-8 -221t8 -222.5t25.5 -191.5t45 -184t64.5 -201q14 -41 -16 -53l-51 -25q-35 -18 -58 17q-47 82 -87 184t-68.5 215t-45 230.5 t-16.5 230.5z" />
<glyph unicode=")" horiz-adv-x="581" d="M109 -170q37 109 64.5 201t43.5 184t24.5 191.5t8.5 222.5t-8.5 221t-24.5 189t-44 182.5t-64 199.5q-14 41 16 54l51 22q37 16 57 -16q47 -82 87 -182.5t69 -212t45.5 -228t16.5 -229.5t-16.5 -230.5t-45.5 -230.5t-68.5 -215.5t-87.5 -183.5q-23 -35 -57 -17l-51 25 q-31 12 -16 53z" />
<glyph unicode="*" horiz-adv-x="913" d="M86 1157l14 49q6 18 23.5 26.5t36.5 2.5l235 -78v248q0 20 13.5 33.5t31.5 13.5h52q20 0 31.5 -13.5t11.5 -33.5v-248l237 78q18 6 35.5 -1t23.5 -26l15 -49q6 -18 -2 -34.5t-27 -22.5l-237 -78l147 -201q12 -16 10 -34.5t-18 -28.5l-41 -31q-16 -10 -34.5 -8t-29.5 18 l-147 203l-148 -203q-10 -16 -28.5 -18t-34.5 8l-43 31q-35 27 -8 63l147 199l-237 78q-18 6 -26.5 22.5t-2.5 34.5z" />
<glyph unicode="+" horiz-adv-x="1050" d="M98 483v66q0 47 45 47h310v309q0 47 47 47h69q20 0 33.5 -12t13.5 -35v-309h308q47 0 47 -47v-66q0 -45 -47 -45h-308v-321q0 -20 -13 -32.5t-34 -12.5h-69q-47 0 -47 45v321h-310q-45 0 -45 45z" />
<glyph unicode="," horiz-adv-x="391" d="M59 125q0 59 41 97t95 38q59 0 98 -40.5t39 -110.5q0 -39 -12.5 -80t-34 -81t-49 -76t-58.5 -65q-16 -14 -30.5 -18t-30.5 8l-37 31q-33 27 -6 57q23 27 34 43.5t19 32.5q10 25 7 36t-15 19q-23 14 -41.5 43t-18.5 66z" />
<glyph unicode="-" horiz-adv-x="643" d="M104 498v77q0 23 13.5 35.5t34.5 12.5h354q47 0 47 -48v-77q0 -45 -47 -45h-354q-20 0 -34 12t-14 33z" />
<glyph unicode="." horiz-adv-x="380" d="M59 125q0 57 39 96t97 39q57 0 96 -39t39 -96t-39 -96t-96 -39t-96.5 39t-39.5 96z" />
<glyph unicode="/" horiz-adv-x="628" d="M51 -141l445 1536q10 39 51 39h74q18 0 27 -13.5t3 -36.5l-444 -1538q-12 -39 -51 -39h-76q-43 0 -29 52z" />
<glyph unicode="0" d="M78 680q0 172 20.5 304t66.5 221t120.5 135t185.5 46t189.5 -46t128 -136t73 -222t23.5 -302q0 -330 -95.5 -510t-318.5 -180q-111 0 -186.5 45t-121.5 133t-65.5 217t-19.5 295zM270 680q0 -121 8.5 -219.5t31 -169t62.5 -109.5t105 -39q66 0 108 40t65.5 111t32.5 169 t9 217q0 123 -9 224.5t-33.5 175t-66.5 114.5t-106 41q-63 0 -103 -43t-63.5 -118t-32 -176t-8.5 -218z" />
<glyph unicode="1" d="M184 1188.5q4 17.5 21 25.5l321 164q29 14 55.5 6t26.5 -47v-1181h103q18 0 30.5 -14.5t12.5 -32.5v-64q0 -18 -12.5 -31.5t-30.5 -13.5h-422q-20 0 -32.5 13.5t-12.5 31.5v64q0 18 12 32.5t33 14.5h137v991l-143 -78q-37 -20 -58 18l-37 68q-8 16 -4 33.5z" />
<glyph unicode="2" d="M93 1265.5q9 16.5 30 26.5q68 41 143.5 67.5t157.5 26.5q92 0 168 -28.5t130 -78.5t83 -120.5t29 -154.5q0 -76 -15.5 -140.5t-41 -123t-61.5 -113t-79 -109.5q-72 -94 -155 -182t-154 -166h452q18 0 31.5 -13.5t13.5 -31.5v-78q0 -18 -13 -32.5t-32 -14.5h-622 q-20 0 -32.5 14.5t-12.5 32.5v78q0 33 22 57q74 92 168 193.5t174 212.5q37 49 66.5 95t51 94t33 99.5t11.5 112.5q0 49 -17.5 91t-46 73t-68.5 47.5t-85 16.5q-63 0 -120.5 -28t-104.5 -56q-23 -12 -37.5 -2t-24.5 26l-41 76q-10 16 -1 32.5z" />
<glyph unicode="3" d="M109 1245q-23 43 24 68q66 35 140.5 54t146.5 19q82 0 149.5 -24.5t115.5 -70.5t74.5 -109.5t26.5 -141.5q0 -35 -10 -75.5t-35.5 -80.5t-67.5 -76t-106 -60q131 -29 203 -116.5t72 -232.5q0 -92 -30 -167.5t-85 -130t-132 -83t-171 -28.5q-113 0 -185.5 21.5 t-107.5 37.5t-20 55l30 89q8 20 19.5 30t34.5 0q37 -14 98 -34.5t125 -20.5q106 0 167.5 67.5t61.5 174.5q0 109 -85 174t-226 65q-29 0 -40 11.5t-11 33.5v86q0 47 51 47t98 14.5t84 41t58.5 64.5t21.5 83q0 88 -51 138.5t-144 50.5q-59 0 -101 -17.5t-93 -46.5 q-41 -25 -62 16z" />
<glyph unicode="4" d="M94 354v92q0 14 4 25.5t8 26.5l300 848q6 18 20 25t31 7h135q23 0 29 -14t0 -31l-332 -852h286l29 393q4 45 45 46h68q18 0 32.5 -12.5t14.5 -33.5v-393h98q18 0 31.5 -13t13.5 -32v-82q0 -18 -13 -31.5t-32 -13.5h-98v-264q0 -18 -14.5 -31.5t-32.5 -13.5h-96 q-18 0 -33 13.5t-15 31.5v264h-436q-20 0 -31.5 13.5t-11.5 31.5z" />
<glyph unicode="5" d="M137 106l33 91q14 39 47 24q14 -6 38 -14l52.5 -17.5t60 -15.5t60.5 -6q70 0 116 24.5t73.5 67.5t39 100.5t11.5 122.5q0 131 -48.5 199t-121.5 68q-59 0 -107.5 -31t-81.5 -64q-16 -14 -29.5 -16t-37.5 8l-64 29q-16 8 -20 19.5t-4 35.5l14 604q0 16 13.5 29.5 t31.5 13.5h535q18 0 31.5 -13t13.5 -32v-80q0 -18 -13.5 -32.5t-31.5 -14.5h-406l-16 -377q88 84 206 84q68 0 127.5 -25.5t103.5 -78.5t69.5 -133.5t25.5 -186.5q0 -254 -116.5 -376.5t-327.5 -122.5q-84 0 -146.5 19.5t-99.5 35.5q-18 8 -29.5 21.5t-1.5 39.5z" />
<glyph unicode="6" d="M106 551q0 244 45.5 420t141.5 284q53 59 131 95t172 36q47 0 86 -5t84 -17q20 -4 26.5 -18.5t2.5 -30.5l-19 -84q-10 -41 -51 -31q-16 4 -52 11.5t-77 7.5q-66 0 -118 -36t-90 -100.5t-59.5 -153.5t-27.5 -196q41 72 102.5 115t147.5 43q80 0 140.5 -36t100 -97.5 t60 -143.5t20.5 -172q0 -209 -98 -330.5t-287 -121.5q-197 0 -289 149.5t-92 411.5zM305 444q0 -143 53.5 -222t135.5 -79q84 0 135 73t51 214q0 143 -51 224t-125 81q-82 0 -140.5 -77.5t-58.5 -213.5z" />
<glyph unicode="7" d="M92 1241v90q0 20 13.5 32.5t31.5 12.5h682q27 0 38 -16.5t3 -42.5l-399 -1278q-12 -39 -51 -39h-119q-18 0 -28.5 13.5t-4.5 33.5l385 1151h-506q-45 0 -45 43z" />
<glyph unicode="8" horiz-adv-x="972" d="M104 369q0 125 66 219t170 135q-86 43 -140.5 124t-54.5 197q0 72 27 134.5t74 108.5t112.5 72.5t145.5 26.5q168 0 262 -95t94 -249q0 -111 -47 -183.5t-149 -131.5q45 -18 87 -49t73.5 -74t51 -100t19.5 -131q0 -188 -109.5 -285.5t-291.5 -97.5q-180 0 -285 94 t-105 285zM301 373q0 -111 54.5 -169.5t146.5 -58.5t143 57.5t51 170.5q0 117 -52 184.5t-146 106.5q-84 -33 -140.5 -99.5t-56.5 -191.5zM332 1051q0 -180 172 -263q170 85 170 261q0 92 -48 144t-126 52q-74 0 -121 -53t-47 -141z" />
<glyph unicode="9" d="M100 952q0 96 26 176t75 137.5t120.5 89t163.5 31.5q199 0 291 -149.5t92 -413.5q0 -145 -10 -252.5t-33.5 -188.5t-61.5 -141.5t-93 -115.5q-84 -82 -186.5 -108.5t-245.5 -26.5q-23 0 -32 10t-11 29l-7 90q-2 25 11.5 34t38.5 9q96 0 169.5 15.5t131.5 64.5 q66 55 100.5 156.5t36.5 277.5q-88 -145 -254 -146q-162 0 -242 116t-80 306zM293 952q0 -143 53 -204.5t127 -61.5q82 0 139.5 59.5t57.5 198.5q0 129 -52.5 208t-134.5 79q-84 0 -137 -72t-53 -207z" />
<glyph unicode=":" horiz-adv-x="425" d="M102 125q0 57 40 96t98 39q57 0 96 -39t39 -96t-39 -96t-96 -39t-97.5 39t-40.5 96zM102 760q0 57 40 96t98 39q57 0 96 -39t39 -96t-39 -96t-96 -39t-97.5 38.5t-40.5 96.5z" />
<glyph unicode=";" horiz-adv-x="430" d="M102 760q0 57 40 96t98 39q57 0 96 -39t39 -96t-39 -96t-96 -39t-97.5 38.5t-40.5 96.5zM104 125q0 59 41 97t95 38q59 0 98 -40.5t39 -110.5q0 -39 -12.5 -80t-34 -81t-49 -76t-58.5 -65q-16 -14 -30.5 -18t-30.5 8l-37 31q-33 27 -6 57q23 27 34 43.5t19 32.5 q10 25 6 36t-16 19q-23 14 -40.5 43t-17.5 66z" />
<glyph unicode="&#x3c;" horiz-adv-x="1001" d="M127 555v72q0 16 9 27.5t22 17.5l682 325q16 8 31.5 -3t15.5 -27v-88q0 -33 -31 -48l-537 -233l533 -201q35 -14 35 -47v-86q0 -16 -15.5 -26.5t-31.5 -4.5l-682 279q-31 14 -31 43z" />
<glyph unicode="=" horiz-adv-x="1159" d="M104 424v63q0 47 46 48h882q47 0 47 -48v-63q0 -45 -47 -45h-882q-45 0 -46 45zM104 754v61q0 47 46 47h882q47 0 47 -47v-61q0 -20 -12 -33.5t-35 -13.5h-882q-20 0 -33 13t-13 34z" />
<glyph unicode="&#x3e;" horiz-adv-x="1001" d="M127 264v86q0 33 35 47l534 201l-538 233q-31 14 -31 48v88q0 16 15.5 27.5t31.5 2.5l682 -325q12 -6 21.5 -17.5t9.5 -27.5v-72q0 -29 -31 -43l-682 -279q-16 -6 -31.5 4.5t-15.5 26.5z" />
<glyph unicode="?" horiz-adv-x="823" d="M104 1292q-14 33 17 54q59 41 127.5 60t136.5 19q74 0 136.5 -24.5t107.5 -68.5t69.5 -105t24.5 -133q0 -96 -41 -173t-91 -144.5t-91 -131t-41 -133.5v-33q0 -55 -43 -55h-99q-47 0 -47 55v37q0 92 39 165t85 138.5t85 128t39 133.5q0 72 -40 114t-111 42 q-59 0 -101.5 -20.5t-62.5 -30.5q-23 -10 -37 -3t-21 21zM231 125q0 57 39 96t97 39q57 0 97 -39t40 -96t-40 -96t-97 -39t-96.5 39t-39.5 96z" />
<glyph unicode="@" horiz-adv-x="1794" d="M162 362q0 203 63.5 388.5t179 327t275.5 225t354 83.5q160 0 281 -53t202.5 -147t123.5 -221.5t42 -274.5q0 -166 -28.5 -296t-83.5 -220t-137 -138t-187 -48q-57 0 -93 18.5t-55.5 46t-27.5 62.5t-10 69q-53 -86 -126 -140t-179 -54q-109 0 -170.5 81t-65.5 234 q-2 133 32 259t93.5 223.5t138 155.5t166.5 58q66 0 117 -34.5t80 -102.5l37 84q16 41 57 41h64q16 0 27 -8t7 -35l-112 -588q-20 -104 -13 -163.5t68 -59.5q102 0 168 137.5t66 395.5q0 131 -30 237.5t-91.5 182t-156.5 116.5t-226 41q-135 0 -257 -61.5t-216.5 -176 t-149.5 -276.5t-55 -362q0 -160 40 -280t113.5 -198.5t176 -118.5t225.5 -40q86 0 159.5 18.5t139.5 52.5q18 10 33.5 5t19.5 -17l27 -70q6 -16 3 -29.5t-24 -23.5q-92 -47 -193.5 -65.5t-209.5 -18.5q-135 0 -259 50.5t-217.5 148.5t-149.5 243.5t-56 335.5zM707 317 q2 -86 30.5 -133t87.5 -47t109.5 46t87.5 122t56.5 173.5t19.5 199.5q0 80 -35 128t-92 48q-94 0 -166 -123q-23 -37 -41.5 -87t-31.5 -105.5t-20 -112.5t-5 -109z" />
<glyph unicode="A" horiz-adv-x="1091" d="M37 51l373 1282q6 23 22.5 33t34.5 10h154q18 0 35.5 -10t23.5 -33l397 -1282q2 -8 2 -15q0 -10 -5 -20q-9 -16 -30 -16h-124q-18 0 -37 12.5t-23 30.5l-90 324h-446l-84 -324q-4 -18 -20.5 -30.5t-35.5 -12.5h-114q-20 0 -30 16q-6 10 -5 20q0 7 2 15zM367 528h360 l-154 570q-10 41 -17 89t-13 89q-4 -43 -12.5 -91t-18.5 -89z" />
<glyph unicode="B" horiz-adv-x="1134" d="M188 45v1286q0 18 14.5 31.5t33.5 13.5h395q180 0 277.5 -94t97.5 -248q0 -117 -55.5 -192.5t-180.5 -112.5q74 -8 129 -37.5t92 -76t55.5 -104.5t18.5 -124q0 -186 -109.5 -286.5t-304.5 -100.5h-415q-18 0 -33 13.5t-15 31.5zM379 168h256q106 0 165.5 63.5t59.5 176.5 q0 104 -69.5 171.5t-194.5 67.5h-217v-479zM379 801h201q117 0 174 55.5t57 151.5q0 98 -53 151t-164 53h-215v-411z" />
<glyph unicode="C" horiz-adv-x="966" d="M98 696q0 160 39 288t109.5 217t170 137t220.5 48q59 0 122.5 -10t119.5 -43q16 -10 22 -27.5t-4 -35.5l-37 -74q-8 -16 -23.5 -21.5t-33.5 5.5q-35 16 -72 26.5t-84 10.5q-164 0 -255 -123t-91 -400q0 -141 25.5 -240.5t71.5 -164t108.5 -94t138.5 -29.5q41 0 88 11 t76 26q18 10 33.5 5t21.5 -20l39 -88q4 -10 4 -18t-3 -16q-7 -16 -19 -21q-47 -23 -107.5 -39t-150.5 -16q-250 0 -389.5 181t-139.5 525z" />
<glyph unicode="D" horiz-adv-x="1140" d="M188 45v1286q0 20 14.5 32.5t33.5 12.5h303q125 0 223 -38t165.5 -119.5t102.5 -210t35 -308.5q0 -172 -26.5 -302t-87 -219t-160 -134t-244.5 -45h-311q-18 0 -33 13.5t-15 31.5zM379 168h147q76 0 137.5 18.5t105.5 73.5t68.5 155.5t24.5 264.5q0 90 -6 158.5 t-19.5 121t-33 90t-43.5 68.5q-41 49 -102.5 71.5t-129.5 22.5h-149v-1044z" />
<glyph unicode="E" horiz-adv-x="1009" d="M188 45v1286q0 20 14.5 32.5t33.5 12.5h628q18 0 31.5 -12t13.5 -33v-80q0 -20 -12 -33.5t-33 -13.5h-485v-393h436q20 0 32.5 -13.5t12.5 -31.5v-74q0 -20 -12 -33.5t-33 -13.5h-436v-469h500q20 0 33.5 -12t13.5 -33v-86q0 -18 -13.5 -31.5t-31.5 -13.5h-645 q-18 0 -33 13.5t-15 31.5z" />
<glyph unicode="F" horiz-adv-x="917" d="M188 45v1286q0 20 14.5 32.5t33.5 12.5h610q18 0 31.5 -12t13.5 -33v-80q0 -20 -12.5 -33.5t-32.5 -13.5h-467v-395h416q20 0 33.5 -13.5t13.5 -31.5v-74q0 -20 -13.5 -33.5t-33.5 -13.5h-416l2 -598q0 -18 -14.5 -31.5t-32.5 -13.5h-98q-18 0 -33 13.5t-15 31.5z" />
<glyph unicode="G" horiz-adv-x="1138" d="M100 694q0 162 37 291t108.5 218t175 136t238.5 47q86 0 166 -19t146 -54q20 -10 24 -26.5t-4 -33.5l-37 -82q-6 -14 -21 -22t-32 2q-53 27 -112.5 44t-135.5 17q-180 0 -265 -128t-85 -404q0 -141 24.5 -240.5t73 -162t116 -90t153.5 -27.5q78 0 151 22v432h-200 q-20 0 -33 14.5t-13 33.5v83q0 18 12.5 32t33.5 14h342q18 0 31.5 -11.5t13.5 -31.5v-633q0 -35 -14.5 -50.5t-45.5 -27.5q-57 -23 -140 -35t-167 -12q-274 0 -407.5 180t-133.5 524z" />
<glyph unicode="H" horiz-adv-x="1214" d="M188 45v1286q0 20 14.5 32.5t33.5 12.5h96q18 0 32.5 -12t14.5 -33v-518h481v518q0 20 14.5 32.5t32.5 12.5h97q18 0 31.5 -12t13.5 -33v-1286q0 -18 -13.5 -31.5t-31.5 -13.5h-97q-18 0 -32.5 13.5t-14.5 31.5v600h-481v-600q0 -18 -14.5 -31.5t-32.5 -13.5h-96 q-18 0 -33 13.5t-15 31.5z" />
<glyph unicode="I" horiz-adv-x="557" d="M51 45v57q0 18 12.5 33t32.5 15h92v1077h-92q-20 0 -32.5 14t-12.5 33v57q0 18 12.5 31.5t32.5 13.5h375q20 0 32.5 -13t12.5 -32v-57q0 -18 -12 -32.5t-33 -14.5h-92v-1077h92q20 0 32.5 -14.5t12.5 -33.5v-57q0 -18 -12 -31.5t-33 -13.5h-375q-20 0 -32.5 13.5 t-12.5 31.5z" />
<glyph unicode="J" horiz-adv-x="524" d="M44 -284q3 18 26 28q10 4 30.5 17.5t26.5 17.5q35 23 48 50.5t13 61.5v1336h-98q-20 0 -31.5 14t-11.5 33v57q0 18 11.5 31.5t31.5 13.5h242q18 0 31.5 -12t13.5 -33v-1448q0 -90 -33 -149.5t-125 -106.5l-74 -39q-9 -6 -19 -6q-7 0 -14 3q-16 7 -26 24l-37 74 q-6 12 -6 24q0 5 1 9z" />
<glyph unicode="K" horiz-adv-x="1028" d="M188 45v1286q0 18 14.5 31.5t33.5 13.5h96q18 0 32.5 -13t14.5 -32v-547l385 566q17 26 51 26h2h141q29 0 30 -17.5t-9 -29.5l-410 -565l457 -715q9 -13 9 -24q0 -5 -2 -11q-7 -14 -29 -14h-148q-20 0 -35.5 6t-25.5 25l-416 704v-690q0 -18 -14.5 -31.5t-32.5 -13.5h-96 q-18 0 -33 13.5t-15 31.5z" />
<glyph unicode="L" horiz-adv-x="864" d="M188 45v1286q0 20 14.5 32.5t33.5 12.5h96q18 0 32.5 -12t14.5 -33v-1159h442q18 0 31.5 -14.5t13.5 -30.5v-82q0 -18 -13 -31.5t-32 -13.5h-585q-18 0 -33 13.5t-15 31.5z" />
<glyph unicode="M" horiz-adv-x="1447" d="M121 45l106 1288q2 18 16.5 30.5t35.5 12.5h174q16 0 29.5 -10t17.5 -27l209 -835q12 -47 19 -112.5t11 -123.5q4 57 10.5 123t18.5 113l209 835q4 16 19.5 26.5t31.5 10.5h170q45 0 49 -43l103 -1294v-7q0 -32 -33 -32h-121q-41 0 -45 39l-47 928q0 18 -1 55t-2 80 t-1 83v64q-4 -23 -8.5 -58.5t-9.5 -74.5t-11 -78t-14 -69l-207 -783q-12 -43 -49 -43h-131q-37 0 -49 43l-205 783q-8 31 -14.5 68.5t-11.5 76.5t-10 74t-9 61v-62.5t-1 -81.5t-2 -80t-1 -56l-52 -928q-4 -41 -41 -41h-116q-16 0 -28 14q-10 12 -9 26v5z" />
<glyph unicode="N" horiz-adv-x="1259" d="M188 43v1290q0 20 13.5 31.5t34.5 11.5h172q18 0 34.5 -8t22.5 -25l387 -911q29 -68 49.5 -137.5t40.5 -132.5q-6 70 -13 151.5t-7 151.5l-4 868q0 18 14 30.5t33 12.5h86q18 0 32.5 -12t14.5 -31v-1290q0 -16 -14.5 -29.5t-32.5 -13.5h-166q-37 0 -54 37l-399 915 q-29 66 -50.5 139.5t-39.5 145.5q2 -35 7 -79t8 -87t6.5 -81t3.5 -64l4 -883q0 -16 -14.5 -29.5t-32.5 -13.5h-88q-18 0 -33 13.5t-15 29.5z" />
<glyph unicode="O" horiz-adv-x="1142" d="M109 684q0 356 119.5 529t355.5 173q233 0 352 -171t119 -531q0 -358 -119 -526t-352 -168t-354 168t-121 526zM311 686q0 -279 61.5 -407.5t209.5 -128.5q78 0 130 37.5t83.5 107.5t45 169t13.5 222q0 113 -11.5 213t-41 174t-82.5 117t-137 43q-92 0 -146.5 -47 t-82 -125t-35 -176.5t-7.5 -198.5z" />
<glyph unicode="P" horiz-adv-x="1021" d="M188 45v1286q0 20 14.5 32.5t33.5 12.5h303q211 0 320.5 -109.5t109.5 -287.5q0 -90 -29 -166t-84 -130t-134 -85t-179 -31h-164v-522q0 -18 -13.5 -31.5t-31.5 -13.5h-98q-18 0 -33 13.5t-15 31.5zM379 729h164q113 0 172 71t59 175q0 111 -57.5 172t-173.5 61h-164 v-479z" />
<glyph unicode="Q" horiz-adv-x="1148" d="M109 684q0 356 119.5 529t355.5 173q233 0 352 -171t119 -531q0 -174 -30 -306t-95 -228q53 -47 120.5 -84t127.5 -60q16 -6 22 -22q2 -7 2 -14q0 -11 -6 -25l-37 -84q-8 -18 -25 -25q-10 -3 -18 -3t-16 3q-35 14 -75 37t-79 50.5t-72.5 59t-58.5 62.5q-35 -23 -95.5 -39 t-135.5 -16q-233 0 -354 168t-121 526zM311 686q0 -279 61.5 -407.5t209.5 -128.5q78 0 130 37.5t83.5 107.5t45 169t13.5 222q0 113 -11.5 213t-41 174t-82.5 117t-137 43q-92 0 -146.5 -47t-82 -125t-35 -176.5t-7.5 -198.5z" />
<glyph unicode="R" horiz-adv-x="1124" d="M188 45v1286q0 18 14.5 31.5t33.5 13.5h352q127 0 208 -34.5t127 -86t62 -112t16 -109.5q0 -59 -17 -114.5t-54 -101.5t-93.5 -78.5t-134.5 -43.5q-4 0 -9 -1t-7 -1q86 -16 143.5 -77.5t92.5 -133.5q8 -20 25.5 -61t40 -98.5t47.5 -126t52 -142.5q6 -16 6 -27 q0 -7 -2 -13q-6 -15 -34 -15h-135q-16 0 -29.5 6t-20.5 27q-41 121 -73.5 227.5t-75.5 185.5q-18 33 -39.5 64t-50.5 55.5t-68 38.5t-90 14h-96v-573q0 -18 -13.5 -31.5t-31.5 -13.5h-98q-18 0 -33 13.5t-15 31.5zM379 780h182q115 0 180.5 61t65.5 167q0 84 -56.5 141 t-166.5 57h-205v-426z" />
<glyph unicode="S" horiz-adv-x="956" d="M90 102l23 93q4 18 19 27t38 1q57 -20 127 -39.5t147 -19.5q113 0 182.5 57.5t69.5 155.5q0 49 -18.5 86t-49 65.5t-71.5 50t-84 42.5l-90 41q-53 25 -102.5 52t-87 67t-61 97.5t-23.5 137.5t27.5 147.5t79.5 117.5t130 77.5t176 27.5q68 0 138.5 -14t119.5 -31 q16 -6 23.5 -21t3.5 -34l-19 -78q-4 -18 -19 -27.5t-32 -4.5q-49 16 -98 28.5t-115 12.5q-115 0 -167 -50.5t-52 -142.5q0 -43 16.5 -74.5t45 -55.5t66.5 -43.5t79 -37.5l111 -49q55 -25 105 -56.5t87 -75.5t59.5 -103.5t22.5 -141.5q0 -84 -29.5 -156.5t-87 -126 t-141.5 -84t-195 -30.5q-86 0 -174 17.5t-149 39.5q-33 13 -33 41q0 6 2 14z" />
<glyph unicode="T" horiz-adv-x="897" d="M31 1249v82q0 20 13 32.5t34 12.5h792q18 0 31.5 -12t13.5 -33v-82q0 -20 -13 -32.5t-32 -12.5h-301v-1159q0 -18 -13 -31.5t-32 -13.5h-98q-18 0 -32.5 13.5t-14.5 31.5v1159h-301q-20 0 -33.5 12.5t-13.5 32.5z" />
<glyph unicode="U" horiz-adv-x="1206" d="M178 420v911q0 20 14.5 32.5t32.5 12.5h97q45 0 45 -45v-882q0 -72 12 -127.5t41 -94.5t75 -59.5t115 -20.5q57 0 103.5 12.5t80 44.5t52 86t18.5 140v901q0 45 45 45h99q18 0 31.5 -12t13.5 -33v-911q0 -209 -112 -319.5t-329 -110.5q-227 0 -330.5 114.5t-103.5 315.5z " />
<glyph unicode="V" horiz-adv-x="1103" d="M63 1327q-2 7 -2 14q1 11 7 21q10 14 30 14h121q47 0 60 -45l249 -962q10 -45 23.5 -114t19.5 -130q10 61 22.5 132t22.5 114l252 958q14 47 56 47h104q20 0 30 -15q7 -11 6 -23q0 -5 -1 -11l-369 -1284q-4 -18 -21.5 -30.5t-35.5 -12.5h-133q-18 0 -35.5 12.5 t-24.5 30.5z" />
<glyph unicode="W" horiz-adv-x="1667" d="M106 1327q-1 5 -1 10q1 11 7 23q10 16 29 16h131q43 0 50 -45l147 -921q4 -31 8 -70t7 -79t5.5 -78t4.5 -64q4 29 9 66.5t11 77.5t12 78t13 67l196 923q10 45 51 45h168q43 0 54 -45l180 -921q12 -66 22.5 -149t14.5 -142q2 29 6 65.5t9 75.5t9 77t11 69l159 925 q4 20 17.5 32.5t31.5 12.5h111q21 0 31 -15q8 -11 7 -24q0 -5 -1 -10l-254 -1284q-4 -18 -22.5 -30.5t-36.5 -12.5h-168q-23 0 -39.5 10t-20.5 33l-184 961q-6 27 -9 62.5t-6.5 72.5t-5.5 70.5t-4 58.5q-2 -25 -4 -58.5t-5 -70.5t-8 -73t-11 -62l-201 -961 q-4 -20 -21.5 -31.5t-35.5 -11.5h-183q-41 0 -49 41z" />
<glyph unicode="X" horiz-adv-x="1132" d="M48 16q-3 6 -3 12q0 12 10 27l406 660l-361 604q-16 25 -7 41t32 16h143q23 0 35 -10t23 -27l258 -462l258 462q10 16 22.5 26.5t34.5 10.5h119q23 0 33 -15t-7 -42l-352 -592l406 -672q10 -16 10 -28q0 -7 -3 -12q-9 -15 -32 -15h-147q-23 0 -35 10t-23 27l-301 536 l-303 -536q-10 -16 -22.5 -26.5t-34.5 -10.5h-127q-23 0 -32 16z" />
<glyph unicode="Y" horiz-adv-x="1001" d="M47 1329q-4 8 -4 16t4 15q8 16 31 16h145q33 0 47 -30l199 -488q25 -61 36 -111.5t19 -97.5q8 47 19.5 95.5t36.5 113.5l188 485q14 33 53 33h131q18 0 26 -13q4 -6 4 -14q0 -10 -5 -22l-367 -799v-483q0 -18 -14 -31.5t-33 -13.5h-96q-18 0 -32.5 13.5t-14.5 31.5v481z " />
<glyph unicode="Z" horiz-adv-x="1001" d="M98 45v94q0 20 6.5 35.5t14.5 30.5l522 901q23 41 47.5 67.5t46.5 43.5q-29 -6 -59.5 -9.5t-71.5 -3.5h-438q-20 0 -34.5 13.5t-14.5 31.5v82q0 20 14 32.5t35 12.5h694q18 0 31.5 -12t13.5 -33v-84q0 -20 -7 -38.5t-17 -34.5l-519 -895q-49 -82 -94 -115q25 4 54.5 8 t66.5 4h492q18 0 31.5 -13t13.5 -32v-86q0 -18 -13.5 -31.5t-31.5 -13.5h-738q-18 0 -31.5 13.5t-13.5 31.5z" />
<glyph unicode="[" horiz-adv-x="595" d="M188 -266v1790q0 23 13.5 35t36.5 12h258q47 0 47 -47v-43q0 -45 -47 -45h-144v-1614h144q47 0 47 -45v-43q0 -47 -47 -47h-258q-23 0 -36.5 12t-13.5 35z" />
<glyph unicode="\" horiz-adv-x="661" d="M35 1384q-6 23 4 36.5t29 13.5h71q43 0 54 -39l444 -1536q14 -51 -31 -52h-76q-39 0 -51 39z" />
<glyph unicode="]" horiz-adv-x="595" d="M66 -223q0 45 47 45h143v1614h-143q-47 0 -47 45v43q0 47 47 47h258q23 0 36 -12.5t13 -34.5v-1790q0 -23 -13.5 -35t-35.5 -12h-258q-47 0 -47 47v43z" />
<glyph unicode="^" horiz-adv-x="1189" d="M116 609.5q-7 17.5 3 33.5l405 784q14 25 41 25h99q12 0 24 -6t19 -19l397 -784q10 -16 3 -33.5t-24 -27.5l-59 -31q-16 -8 -34.5 -3t-26.5 21l-353 697l-352 -697q-8 -16 -26.5 -21t-34.5 3l-58 31q-16 10 -23 27.5z" />
<glyph unicode="_" horiz-adv-x="1034" d="M16 -195q0 47 45 48h930q23 0 36 -12.5t13 -35.5v-30q0 -20 -13 -32.5t-36 -12.5h-930q-45 0 -45 45v30z" />
<glyph unicode="`" horiz-adv-x="706" d="M130.5 1346.5q-7.5 15.5 4.5 37.5l47 91q18 35 56 12l335 -209q16 -10 22.5 -23.5t-3.5 -33.5l-23 -43q-16 -31 -55 -15l-358 160q-18 8 -25.5 23.5z" />
<glyph unicode="a" horiz-adv-x="907" d="M70 283q0 82 24.5 140t66.5 96t98 56.5t118 22.5l223 14v50q0 88 -35 131t-141 43q-61 0 -108.5 -12.5t-88.5 -22.5q-20 -6 -34.5 4t-18.5 29l-16 75q-2 9 -2 16q0 28 30 38q43 12 113 25t135 13q123 0 192.5 -34.5t104.5 -89t44 -121t9 -129.5v-355v-80.5t11 -87.5 l12 -59q1 -6 1 -11q0 -14 -7 -22q-10 -12 -31 -12h-94q-41 0 -47 41l-15 90q-47 -76 -120.5 -108.5t-159.5 -32.5q-123 0 -193.5 76.5t-70.5 216.5zM258 283q0 -74 37 -109t92 -35q49 0 88 18.5t66.5 47t43 61.5t15.5 62v153l-127 -4q-47 -2 -86 -11t-67.5 -30.5t-45 -58.5 t-16.5 -94z" />
<glyph unicode="b" horiz-adv-x="952" d="M150 45v1362q0 20 13 32.5t32 12.5h92q18 0 31.5 -12.5t13.5 -32.5v-543q39 66 94 101.5t133 35.5q66 0 126 -28.5t99 -77.5q57 -72 81 -164t24 -237q0 -133 -22.5 -228.5t-64.5 -157t-102.5 -90t-136.5 -28.5q-162 0 -239 139l-17 -84q-8 -45 -55 -45h-57 q-18 0 -31.5 13.5t-13.5 31.5zM328 489q0 -178 46 -261t138 -83q90 0 134 80.5t44 268.5q0 106 -12 171.5t-35 104.5q-43 76 -133 76q-88 0 -135 -89t-47 -268z" />
<glyph unicode="c" horiz-adv-x="751" d="M78 504q0 109 29.5 200t84 157.5t130 103t167.5 36.5q51 0 98.5 -10t78.5 -24q35 -16 35 -41q0 -7 -3 -15l-24 -71q-4 -16 -17.5 -26.5t-38.5 -0.5t-56.5 18.5t-72.5 8.5q-96 0 -155.5 -88t-59.5 -248q0 -176 56.5 -260t173.5 -84q78 0 139 16q23 6 36 -4t17 -27l17 -75 q1 -5 1 -10q0 -31 -34 -44q-45 -16 -93 -21t-102 -5q-184 0 -295.5 130t-111.5 384z" />
<glyph unicode="d" horiz-adv-x="952" d="M84 494q0 145 23.5 237t80.5 164q39 49 98.5 77.5t125.5 28.5q78 0 134 -35.5t95 -101.5v543q0 20 13.5 32.5t31.5 12.5h92q18 0 31.5 -12.5t13.5 -32.5v-1362q0 -18 -13 -31.5t-32 -13.5h-57q-49 0 -57 45l-17 84q-78 -139 -237 -139q-76 0 -136.5 28.5t-102.5 90 t-64.5 156.5t-22.5 229zM281 494q0 -188 45 -267.5t135 -79.5q92 0 138 82t46 260t-48 267.5t-136 89.5q-86 0 -131 -76q-23 -39 -36 -104.5t-13 -171.5z" />
<glyph unicode="e" horiz-adv-x="897" d="M80 500q0 115 26.5 208t75.5 158.5t119 100t156 34.5q78 0 145.5 -26.5t117.5 -87t78.5 -156.5t28.5 -237q0 -18 -13 -31.5t-32 -13.5h-508q6 -143 61.5 -220t190.5 -77q59 0 103.5 10t89.5 24q23 8 36 -2t19 -26l23 -66q3 -9 3 -17q0 -26 -30 -38q-47 -23 -104.5 -35 t-149.5 -12q-211 0 -323.5 128t-112.5 382zM274 588h363q-2 49 -11.5 96t-30 85t-53 60.5t-79.5 22.5q-29 0 -58.5 -11.5t-56 -41t-46 -80.5t-28.5 -131z" />
<glyph unicode="f" horiz-adv-x="569" d="M23 889v55q0 18 11 31.5t32 13.5h110v221q0 131 62.5 191.5t171.5 60.5q35 0 81 -12t74 -25q29 -12 29 -37q0 -9 -4 -20l-21 -68q-4 -16 -19 -23t-32 -1q-16 4 -40.5 13t-45.5 9q-33 0 -52.5 -21.5t-19.5 -72.5v-215h156q18 0 30.5 -13t12.5 -32v-55q0 -18 -12 -31.5 t-31 -13.5h-156v-799q0 -18 -14 -31.5t-33 -13.5h-90q-16 0 -31.5 13.5t-15.5 31.5v799h-110q-20 0 -31.5 13t-11.5 32z" />
<glyph unicode="g" horiz-adv-x="948" d="M84 494q0 145 23.5 237t80.5 164q37 47 97.5 76.5t126.5 29.5q78 0 136 -36.5t97 -106.5l19 88q8 43 57 43h57q18 0 31.5 -11t13.5 -32v-962q0 -61 -9 -132t-46 -130.5t-112.5 -98.5t-206.5 -39q-82 0 -156 13.5t-131 31.5q-16 4 -22.5 19.5t-2.5 34.5l21 79q8 30 35 30 q8 0 18 -3q41 -14 103.5 -26.5t121.5 -12.5q72 0 113 20.5t61.5 53.5t25.5 73t5 78v146q-78 -129 -231 -129q-152 0 -239 118.5t-87 383.5zM283 494q0 -188 44 -267.5t134 -79.5q92 0 138 82t46 260t-48 267.5t-136 89.5q-90 0 -131 -76q-23 -39 -35 -104.5t-12 -171.5z" />
<glyph unicode="h" horiz-adv-x="987" d="M150 45v1362q0 20 13 32.5t32 12.5h92q18 0 31.5 -12.5t13.5 -32.5v-539q119 133 274 133q117 0 184.5 -69.5t67.5 -186.5v-700q0 -18 -13.5 -31.5t-31.5 -13.5h-92q-18 0 -32.5 13.5t-14.5 31.5v660q0 72 -29 104.5t-92 32.5q-47 0 -87 -18.5t-69.5 -51.5t-47 -77 t-17.5 -95v-555q0 -18 -13.5 -31.5t-31.5 -13.5h-92q-18 0 -31.5 13.5t-13.5 31.5z" />
<glyph unicode="i" horiz-adv-x="497" d="M27 889v55q0 18 11 31.5t32 13.5h243q20 0 33.5 -11t13.5 -32v-901q0 -18 -14 -31.5t-33 -13.5h-90q-18 0 -32.5 13.5t-14.5 31.5v799h-106q-20 0 -31.5 13t-11.5 32zM135 1329q0 53 37 91t90 38t91 -38t38 -91t-38 -90t-91 -37t-90 37t-37 90z" />
<glyph unicode="j" horiz-adv-x="497" d="M27 889v55q0 18 11 31.5t32 13.5h243q18 0 32.5 -11t14.5 -32v-1048q0 -92 -29.5 -158t-117.5 -113l-63 -35q-11 -7 -24 -7q-5 0 -10 1q-18 4 -28 21l-39 65q-10 16 -7 34t19 28l33 18q55 31 68.5 69t13.5 99v924h-106q-20 0 -31.5 13t-11.5 32zM135 1329q0 53 37 91 t90 38t91 -38t38 -91t-38 -90t-91 -37t-90 37t-37 90z" />
<glyph unicode="k" horiz-adv-x="872" d="M150 45v1362q0 20 13 32.5t32 12.5h92q18 0 31.5 -12.5t13.5 -32.5v-832l246 379q10 14 23 24.5t36 10.5h131q23 0 29 -17.5t-6 -33.5l-275 -375l336 -510q6 -10 6 -21q0 -8 -2 -14q-6 -18 -29 -18h-145q-18 0 -31.5 11.5t-23.5 27.5l-295 493v-487q0 -18 -13.5 -31.5 t-31.5 -13.5h-92q-18 0 -31.5 13.5t-13.5 31.5z" />
<glyph unicode="l" horiz-adv-x="514" d="M150 180v1227q0 20 13 32.5t32 12.5h92q18 0 31.5 -12.5t13.5 -32.5v-1180q0 -39 8 -59.5t41 -20.5q14 0 31.5 4.5t33.5 8.5q8 2 15 2q28 0 35 -33l14 -72q1 -5 1 -9q0 -26 -30 -36q-29 -10 -61.5 -16t-73.5 -6q-104 0 -150 49t-46 141z" />
<glyph unicode="m" horiz-adv-x="1425" d="M152 45v901q0 20 14 31.5t33 11.5h61q39 0 49 -37l21 -90q45 53 113.5 96t146.5 43q82 0 139 -38.5t74 -108.5q123 147 276 147q39 0 79 -11t73 -36.5t54.5 -69.5t21.5 -110v-729q0 -18 -13.5 -31.5t-31.5 -13.5h-97q-18 0 -31.5 13.5t-13.5 31.5v700q0 94 -90 95 q-43 0 -81 -17.5t-65.5 -49.5t-44 -76t-16.5 -95v-557q0 -18 -14 -31.5t-33 -13.5h-94q-18 0 -31.5 13.5t-13.5 31.5v700q0 47 -24.5 71t-67.5 24t-81 -17.5t-65.5 -49.5t-44 -76t-16.5 -95v-557q0 -18 -13.5 -31.5t-31.5 -13.5h-94q-18 0 -32.5 13.5t-14.5 31.5z" />
<glyph unicode="n" horiz-adv-x="989" d="M152 45v901q0 20 14 31.5t33 11.5h61q39 0 49 -37l21 -92q66 76 132 108.5t146 32.5q117 0 184.5 -69.5t67.5 -186.5v-700q0 -18 -13 -31.5t-32 -13.5h-94q-18 0 -32.5 13.5t-14.5 31.5v660q0 72 -26.5 104.5t-90.5 32.5q-47 0 -87 -18.5t-68.5 -51.5t-46 -77t-17.5 -95 v-555q0 -18 -13.5 -31.5t-31.5 -13.5h-94q-18 0 -32.5 13.5t-14.5 31.5z" />
<glyph unicode="o" horiz-adv-x="931" d="M78 496q0 117 27.5 211t80 159.5t126 100t165.5 34.5q186 0 290.5 -134.5t104.5 -370.5t-104 -371t-291 -135q-186 0 -292.5 133t-106.5 373zM268 496q0 -186 54.5 -268.5t150.5 -82.5t150.5 82.5t54.5 268.5q0 182 -54.5 265t-150.5 83t-150.5 -83t-54.5 -265z" />
<glyph unicode="p" horiz-adv-x="956" d="M152 -360v1306q0 18 14 30.5t33 12.5h55q47 0 57 -43l21 -90q37 70 94 107.5t135 37.5q66 0 128.5 -26.5t103.5 -83.5q51 -68 74.5 -158t23.5 -244q0 -141 -28.5 -246.5t-88.5 -168.5q-37 -41 -89 -62.5t-118 -21.5q-80 0 -135 29.5t-96 95.5v-475q0 -20 -14.5 -31.5 t-32.5 -11.5h-90q-18 0 -32.5 11t-14.5 32zM330 496q0 -352 186 -353q94 0 136 82.5t42 268.5q0 106 -13 170.5t-36 103.5q-43 76 -131 76q-86 0 -135 -87t-49 -261z" />
<glyph unicode="q" horiz-adv-x="948" d="M84 489q0 154 23.5 244t74.5 158q41 57 103.5 83.5t128.5 26.5q78 0 136 -37.5t95 -107.5l19 90q8 43 57 43h57q18 0 31.5 -12t13.5 -31v-1306q0 -20 -13 -31.5t-32 -11.5h-92q-18 0 -31.5 11t-13.5 32v475q-78 -125 -233 -125q-129 0 -207 84q-59 63 -88 168.5 t-29 246.5zM283 489q0 -184 42 -265t136 -81q92 0 138 84t46 262q0 78 -10 143.5t-32.5 112t-58.5 72t-85 25.5q-90 0 -129 -76q-25 -47 -36 -117.5t-11 -159.5z" />
<glyph unicode="r" horiz-adv-x="661" d="M152 45v901q0 20 14 31.5t33 11.5h59q39 0 49 -37l27 -98q43 70 99 108.5t130 38.5q45 0 78 -16q41 -19 41 -49q0 -6 -2 -12l-27 -101q-10 -39 -45 -39q-7 0 -16 2q-27 6 -58.5 17.5t-60.5 11.5q-25 0 -48.5 -14.5t-43 -46t-31.5 -81.5t-12 -120v-508q0 -18 -13.5 -31.5 t-31.5 -13.5h-94q-18 0 -32.5 13.5t-14.5 31.5z" />
<glyph unicode="s" horiz-adv-x="770" d="M78 104l22 74q6 23 21.5 30t34.5 -1q51 -23 109.5 -39t117.5 -16q137 0 137 118q0 33 -16.5 58.5t-43 47t-61 41t-71.5 40.5q-41 23 -81 47t-71 57t-50.5 74t-19.5 94q0 121 84 196.5t232 75.5q74 0 123 -11t96 -34q16 -8 24.5 -23t0.5 -34l-23 -59q-11 -28 -35 -28 q-8 0 -18 3q-31 12 -75 24.5t-91 12.5q-63 0 -98 -30.5t-35 -80.5q0 -53 51 -88t117 -71q43 -25 88 -51.5t81 -62.5t58.5 -83.5t22.5 -110.5q0 -59 -21.5 -111t-63.5 -91t-102.5 -60.5t-138.5 -21.5q-70 0 -145.5 14t-135.5 43q-27 13 -27 38q0 9 3 19z" />
<glyph unicode="t" horiz-adv-x="565" d="M23 889v55q0 18 11 31.5t32 13.5h110v209q0 43 35 53l92 27q14 4 25 4q8 0 15 -2q17 -4 17 -33v-258h117q18 0 30.5 -13t12.5 -32v-55q0 -18 -12 -31.5t-31 -13.5h-117v-617q0 -80 70 -80q12 0 30.5 2.5t33.5 6.5q16 4 29.5 -5.5t17.5 -27.5l10 -64q2 -7 2 -14 q0 -11 -4 -19q-6 -14 -29 -20q-53 -16 -131 -16q-213 0 -213 207v647h-110q-20 0 -31.5 13t-11.5 32z" />
<glyph unicode="u" horiz-adv-x="978" d="M137 248v698q0 20 14.5 31.5t32.5 11.5h95q18 0 32.5 -11t14.5 -32v-670q0 -66 30.5 -98.5t85.5 -32.5q100 0 165 74t65 221v506q0 20 13 31.5t32 11.5h96q18 0 31.5 -11t13.5 -32v-901q0 -18 -13.5 -31.5t-31.5 -13.5h-63q-35 0 -45 39l-25 96l-48.5 -48.5t-59 -47 t-80 -35.5t-107.5 -14q-113 0 -180.5 65.5t-67.5 192.5z" />
<glyph unicode="v" horiz-adv-x="856" d="M51 934q-3 12 -3 21q0 13 6 21q12 13 30 13h113q43 0 53 -43l164 -661q10 -39 16 -93.5t10 -95.5q4 41 11.5 94.5t17.5 94.5l158 663q10 41 51 41h110q18 0 30 -13q7 -8 6 -20q0 -8 -3 -18l-264 -897q-6 -18 -17.5 -29.5t-33.5 -11.5h-146q-37 0 -49 41z" />
<glyph unicode="w" horiz-adv-x="1353" d="M53 936q-2 9 -2 16q-1 14 7 23q12 14 30 14h115q43 0 51 -43l121 -624q10 -49 15 -113t9 -111q8 47 15.5 110.5t17.5 110.5l143 629q10 41 52 41h139q43 0 53 -43l142 -627q10 -47 18 -109.5t14 -111.5q6 47 12.5 110.5t16.5 110.5l117 629q6 41 51 41h104q18 0 28 -13 q7 -8 7 -21q0 -8 -2 -17l-205 -897q-10 -41 -51 -41h-168q-39 0 -47 41l-135 610q-10 47 -15.5 102.5t-11.5 112.5q-4 -59 -11 -113.5t-17 -101.5l-138 -610q-10 -41 -51 -41h-166q-41 0 -49 41z" />
<glyph unicode="x" horiz-adv-x="890" d="M44 12q-4 5 -4 12q0 9 7 21l303 471l-264 428q-12 18 -3 31.5t28 13.5h127q20 0 33.5 -7t23.5 -28l170 -301l170 301q10 20 23.5 27.5t33.5 7.5h117q18 0 26.5 -12t-4.5 -33l-270 -418l297 -481q6 -9 6 -18q0 -7 -3 -13q-7 -14 -25 -14h-129q-37 0 -58 33l-198 356 l-207 -356q-20 -33 -56 -33h-118q-18 0 -26 12z" />
<glyph unicode="y" horiz-adv-x="882" d="M51 944q-2 6 -2 12q0 12 9 20q12 13 30 13h115q41 0 53 -43l186 -661q8 -27 12.5 -55.5t8.5 -57.5q4 27 13 63.5t20 77.5l159 635q10 41 52 41h106q18 0 31 -13q8 -9 8 -21q0 -6 -2 -13l-291 -1063q-55 -195 -213 -270l-43 -21q-9 -5 -18 -5q-7 0 -15 3q-16 6 -24 23 l-35 69q-8 14 -1 34t23 28l29 14q59 29 89 77t48 116q2 2 7.5 21.5t11.5 42t11 42t5 23.5h-65q-39 0 -54 41z" />
<glyph unicode="z" horiz-adv-x="776" d="M74 59v58q0 16 6 29.5t14 25.5l377 606q29 45 51 68q-16 -4 -34.5 -4h-30.5h-312q-20 0 -31.5 13t-11.5 32v57q0 18 11.5 31.5t31.5 13.5h514q18 0 32 -13t14 -32v-67q0 -18 -4.5 -32t-12.5 -26l-364 -586q-14 -23 -32 -46t-30 -40q16 2 38 3.5t40 1.5h332 q18 0 30.5 -11.5t12.5 -29.5v-66q0 -18 -12.5 -31.5t-30.5 -13.5h-549q-23 0 -36 16.5t-13 42.5z" />
<glyph unicode="{" horiz-adv-x="688" d="M78 631v51q0 39 33 45q61 10 109 69.5t48 159.5v359q0 61 20.5 109.5t51.5 81t68.5 49t74.5 16.5h90q47 0 48 -47v-39q0 -45 -48 -45h-43q-33 0 -52 -13.5t-30.5 -37t-14.5 -52t-3 -59.5v-354q0 -70 -21.5 -118t-50 -79t-58.5 -47t-48 -21l2 -2q18 -4 48 -17t58.5 -43 t49 -80t20.5 -124v-409q0 -31 3 -60.5t14.5 -53.5t31 -38t51.5 -14h43q47 0 48 -45v-39q0 -47 -48 -47h-90q-39 0 -76.5 16t-68.5 49t-50.5 81t-19.5 110v415q0 51 -14 93.5t-36.5 72t-51.5 46t-57 20.5q-31 4 -31 41z" />
<glyph unicode="|" horiz-adv-x="509" d="M182 -467v1958q0 20 13.5 32.5t31.5 12.5h66q18 0 32.5 -12.5t14.5 -32.5v-1958q0 -18 -14.5 -31.5t-32.5 -13.5h-66q-18 0 -31.5 13.5t-13.5 31.5z" />
<glyph unicode="}" horiz-adv-x="688" d="M66 -227q0 45 47 45h43q33 0 52 14t29.5 38t14.5 53.5t4 60.5v409q0 76 21.5 126t50 80t58.5 43t48 15l-2 2q-18 6 -49 22.5t-58.5 48.5t-48 79t-20.5 115v354q0 31 -4 59.5t-14.5 52t-30 37t-51.5 13.5h-43q-47 0 -47 45v39q0 47 47 47h92q37 0 74.5 -16.5t68.5 -49 t51.5 -81t20.5 -109.5v-359q0 -100 48 -159.5t110 -69.5q33 -6 32 -45v-51q0 -37 -30 -41q-29 -4 -57.5 -20.5t-51 -46t-37 -71.5t-14.5 -94v-415q0 -61 -19.5 -109.5t-50.5 -81.5t-68.5 -49t-76.5 -16h-92q-47 0 -47 47v39z" />
<glyph unicode="~" horiz-adv-x="1124" d="M115 612.5q2 12.5 20 32.5q47 51 111.5 85t156.5 34q59 0 103.5 -16.5t85.5 -36.5q43 -23 86 -43.5t102 -20.5q49 0 83 20.5t63 43.5q14 12 32.5 13t30.5 -15l29 -39q14 -18 11 -32.5t-17 -29.5q-53 -51 -114.5 -87t-156.5 -36q-59 0 -104 17.5t-86 38.5q-43 23 -86 42 t-103 19q-51 0 -84.5 -19.5t-62.5 -43.5q-16 -12 -33.5 -9.5t-29.5 19.5l-27 35q-12 16 -10 28.5z" />
<glyph unicode="&#xa1;" horiz-adv-x="620" d="M180 901q0 57 40 97t97 40t96.5 -40t39.5 -97t-39 -96t-97 -39q-57 0 -97 39t-40 96zM209 -344l22 893q0 49 45 49h78q20 0 31.5 -13.5t11.5 -35.5l27 -893q0 -43 -45 -43h-125q-45 0 -45 43z" />
<glyph unicode="&#xa2;" horiz-adv-x="858" d="M109 504q0 94 25.5 177t71.5 147.5t111.5 106.5t145.5 58v146q0 20 13 31.5t32 11.5h51q18 0 31.5 -11.5t13.5 -31.5v-142q41 -4 74 -12t55 -18q45 -20 33 -56l-23 -71q-4 -16 -17 -26.5t-38 -0.5q-16 6 -36.5 13.5t-47.5 11.5v-678q33 2 59.5 7t49.5 11t36 -5t17 -28 l16 -75q4 -16 -3 -31.5t-29 -22.5q-33 -10 -69 -16t-77 -10v-140q0 -18 -13 -31.5t-32 -13.5h-51q-18 0 -31.5 13.5t-13.5 31.5v144q-160 27 -257 154.5t-97 355.5zM303 504q0 -137 41 -219t119 -111v651q-72 -31 -116 -112.5t-44 -208.5z" />
<glyph unicode="&#xa3;" horiz-adv-x="1021" d="M141 694v56q0 18 12.5 32.5t32.5 14.5h113v145q0 74 10 145.5t45 128t104.5 92t188.5 35.5q66 0 124 -9t103 -21q35 -10 29 -53l-14 -76q-4 -18 -19.5 -28.5t-35.5 -4.5q-41 10 -81 19.5t-96 9.5q-53 0 -87.5 -12.5t-54 -38t-27 -63.5t-7.5 -87v-182h248q18 0 31.5 -14.5 t13.5 -32.5v-56q0 -18 -13 -32.5t-32 -14.5h-248v-106q0 -125 -28.5 -216.5t-77.5 -154.5h508q18 0 31.5 -13.5t13.5 -29.5v-82q0 -18 -13.5 -31.5t-31.5 -13.5h-654q-23 0 -35 17.5t-12 43.5v60q0 31 19 59q37 66 67.5 149t30.5 210v108h-113q-20 0 -32.5 14.5t-12.5 32.5z " />
<glyph unicode="&#xa4;" horiz-adv-x="950" d="M151.5 187.5q2.5 21.5 14.5 37.5l63 92q-39 49 -56 110.5t-17 123.5q0 61 18.5 123.5t58.5 111.5l-65 97q-10 16 -9 35.5t21 33.5l80 52q18 12 38.5 6t31.5 -23l55 -94q23 6 44.5 10t49.5 4q29 0 52.5 -4t46.5 -12l53 90q10 18 26.5 25.5t30.5 -2.5l103 -64q29 -20 6 -53 l-70 -101q43 -49 62.5 -113t19.5 -130q0 -59 -16.5 -118.5t-55.5 -107.5l68 -96q10 -16 9 -37.5t-19 -33.5l-80 -50q-20 -12 -40 -7t-32 24l-57 90q-25 -10 -48.5 -13.5t-56.5 -3.5q-31 0 -54.5 4.5t-47.5 14.5l-57 -92q-27 -43 -66 -19l-84 54q-23 14 -20.5 35.5zM328 553 q0 -43 7 -84t24.5 -71.5t47 -49t74.5 -18.5q84 0 120 62.5t36 160.5q0 43 -7 83t-25.5 71.5t-48.5 50t-75 18.5q-80 0 -116.5 -60.5t-36.5 -162.5z" />
<glyph unicode="&#xa5;" horiz-adv-x="1439" d="M102 47v899q0 20 13.5 33.5t34.5 13.5h81q20 0 35 -13t15 -34v-532q0 -35 -10.5 -78t-20.5 -80q16 18 39.5 51t44.5 53l909 910q14 14 33.5 14t34.5 -14l57 -58q14 -14 14 -33.5t-14 -33.5l-907 -909q-20 -20 -53 -45t-52 -41q37 10 80 21t80 11l531 -2q27 0 36 -22 q4 -4 7.5 -22.5t3.5 -26.5v-12.5t-1 -23t-2 -23.5l-1 -11q-4 -37 -43 -37l-895 -2q-49 0 -50 47z" />
<glyph unicode="&#xa6;" horiz-adv-x="509" d="M182 313q0 20 13.5 31.5t31.5 11.5h66q18 0 32.5 -11t14.5 -32v-780q0 -18 -14.5 -31.5t-32.5 -13.5h-66q-18 0 -31.5 13.5t-13.5 31.5v780zM182 711v780q0 20 13.5 32.5t31.5 12.5h66q18 0 32.5 -12.5t14.5 -32.5v-780q0 -18 -14.5 -30.5t-32.5 -12.5h-66 q-18 0 -31.5 12t-13.5 31z" />
<glyph unicode="&#xa7;" horiz-adv-x="907" d="M96 635q0 86 48.5 154.5t129.5 101.5q-59 51 -82.5 107.5t-23.5 121.5q0 55 19.5 109.5t61.5 97.5t107.5 69.5t155.5 26.5q61 0 108.5 -12t86.5 -22q14 -4 22 -17.5t2 -36.5l-20 -71q-8 -35 -47 -27q-35 8 -75 17.5t-75 9.5q-45 0 -75.5 -12.5t-49 -32t-27 -44 t-8.5 -49.5q0 -39 23.5 -68.5t60.5 -56t84 -51t96 -55.5q43 -27 82 -57.5t70 -71.5t49.5 -92t18.5 -117q0 -68 -36 -133.5t-120 -114.5q43 -41 65.5 -95t22.5 -132q0 -61 -22.5 -117.5t-68.5 -99.5t-119 -69.5t-173 -28.5q-57 -2 -117.5 10t-101.5 22q-39 10 -31 51l17 84 q4 23 18 32t37 1q33 -10 79 -21.5t99 -11.5q106 0 146 45.5t40 98.5q0 47 -21.5 83t-57 63.5t-80.5 52t-90 49.5q-43 25 -84 52.5t-73 64t-51.5 83.5t-19.5 109zM285 641q0 -35 15 -60.5t48 -51t83 -54.5t120 -65q47 16 69.5 58t22.5 93q0 37 -10 64.5t-36 54.5t-72 55.5 t-119 65.5q-53 -8 -87 -54.5t-34 -105.5z" />
<glyph unicode="&#xa8;" horiz-adv-x="1017" d="M203 1280q0 47 32.5 76.5t73.5 29.5q47 0 78 -29.5t31 -76.5t-31 -79t-78 -32q-43 0 -74.5 32t-31.5 79zM567 1280q0 47 32 76.5t79 29.5q41 0 73.5 -29.5t32.5 -76.5t-32.5 -79t-73.5 -32q-47 0 -79 32t-32 79z" />
<glyph unicode="&#xa9;" horiz-adv-x="1660" d="M166 688q0 150 54 278t147.5 221t219.5 146t269 53t268 -53t219.5 -146t148.5 -221t54 -278t-54 -277.5t-148.5 -221t-219.5 -146.5t-268 -53t-269 53t-219.5 146.5t-147.5 221.5t-54 277zM299 688q0 -125 43 -232.5t118 -187.5t176 -125t220 -45t220.5 45t176 125 t117.5 187.5t43 232.5t-43 232.5t-117.5 187.5t-176 125t-220.5 45t-220 -45t-176 -125t-118 -187.5t-43 -232.5zM559 692q0 92 23.5 167t67.5 127t105.5 81t137.5 29q41 0 80 -9.5t63 -19.5q33 -16 25 -43l-19 -57q-10 -33 -45 -21q-20 8 -44.5 13.5t-59.5 5.5 q-82 0 -130 -65.5t-48 -209.5q0 -152 50 -216t140 -64q33 0 61.5 5t53.5 11q37 10 43 -25l12 -59q6 -31 -26 -43q-35 -12 -74 -17.5t-82 -5.5q-154 0 -244 103.5t-90 312.5z" />
<glyph unicode="&#xaa;" horiz-adv-x="880" d="M143 510v47q0 47 45 47h488q27 0 37 -13t10 -36v-45q0 -45 -47 -45h-488q-45 0 -45 45zM145 940q0 119 67 176.5t161 61.5l157 8v26q0 63 -22.5 93t-97.5 30q-41 0 -78 -7t-68 -17q-33 -8 -39 22l-14 66q-8 33 20 39q31 10 86.5 18t102.5 8q88 0 139 -25.5t78 -64.5 t34 -88t7 -94v-260q0 -29 1 -58.5t7 -62.5l8 -45q4 -14 -5 -22.5t-21 -8.5h-80q-29 0 -35 31l-10 61q-31 -55 -86.5 -80.5t-116.5 -25.5q-90 0 -142.5 58.5t-52.5 160.5zM297 942q0 -53 24.5 -77.5t63.5 -24.5q33 0 59.5 13t46 35.5t29.5 51.5t10 59v82q-53 -2 -96 -5 t-73.5 -15t-47 -40t-16.5 -79z" />
<glyph unicode="&#xab;" horiz-adv-x="1015" d="M119 467q-16 27 0 55l260 389q8 12 24.5 16.5t26.5 -3.5l76 -50q12 -8 16 -24t-6 -29l-217 -325l217 -324q10 -14 7 -30.5t-13 -22.5l-80 -51q-12 -8 -27.5 -3t-23.5 15zM502 467q-16 27 0 55l260 389q8 12 24.5 16.5t26.5 -3.5l76 -50q12 -8 16 -24t-6 -29l-217 -325 l215 -324q10 -14 7 -30.5t-13 -22.5l-78 -51q-12 -8 -27.5 -3t-23.5 15z" />
<glyph unicode="&#xac;" horiz-adv-x="1052" d="M111 487v70q0 23 13 35t34 12h719q47 0 47 -47v-360q0 -45 -45 -45h-72q-47 0 -47 45v243h-602q-20 0 -33.5 13.5t-13.5 33.5z" />
<glyph unicode="&#xad;" horiz-adv-x="643" d="M104 498v77q0 23 13.5 35.5t34.5 12.5h354q47 0 47 -48v-77q0 -45 -47 -45h-354q-20 0 -34 12t-14 33z" />
<glyph unicode="&#xae;" horiz-adv-x="1660" d="M166 688q0 150 54 278t147.5 221t219.5 146t269 53t268 -53t219.5 -146t148.5 -221t54 -278t-54 -277.5t-148.5 -221t-219.5 -146.5t-268 -53t-269 53t-219.5 146.5t-147.5 221.5t-54 277zM299 688q0 -125 43 -232.5t118 -187.5t176 -125t220 -45t220.5 45t176 125 t117.5 187.5t43 232.5t-43 232.5t-117.5 187.5t-176 125t-220.5 45t-220 -45t-176 -125t-118 -187.5t-43 -232.5zM623 344v700q0 37 39 37h206q68 0 116 -18.5t79 -48t45 -68.5t14 -78q0 -80 -45 -141t-143 -68q37 -18 96 -108q23 -37 55.5 -93.5t61.5 -109.5 q10 -16 3 -30.5t-32 -14.5h-82q-27 0 -35 19q-12 25 -22 47t-27 51q-29 53 -58.5 105.5t-68.5 86.5q-23 18 -45 19h-22v-287q0 -16 -10.5 -28.5t-26.5 -12.5h-59q-16 0 -27.5 12.5t-11.5 28.5zM758 741h67q88 0 121 30t33 91q0 59 -39 85t-111 26h-71v-232z" />
<glyph unicode="&#xaf;" horiz-adv-x="741" d="M135 1276v53q0 47 45 47h381q47 0 47 -47v-53q0 -20 -12 -33.5t-35 -13.5h-381q-20 0 -32.5 13t-12.5 34z" />
<glyph unicode="&#xb0;" horiz-adv-x="788" d="M119 1143q0 66 18.5 124t55 101t90 68.5t120.5 25.5q135 0 214 -87t79 -245q0 -59 -16 -114t-52 -99.5t-92.5 -71t-134.5 -26.5q-137 0 -209.5 91t-72.5 233zM270 1149q0 -98 29 -153.5t107 -55.5q84 0 113.5 55.5t29.5 143.5q0 92 -31 148t-110 56q-78 0 -108 -55 t-30 -139z" />
<glyph unicode="&#xb1;" horiz-adv-x="1888" d="M102 686v82q0 20 13.5 34.5t34.5 14.5l1286 -2q29 0 69.5 -4t63.5 -8q-33 20 -70 41.5t-63 48.5l-375 375q-14 14 -14 32.5t14 34.5l57 60q14 16 33.5 15t34.5 -15l635 -637q33 -35 0 -68l-635 -631q-14 -14 -33.5 -15t-34.5 15l-57 60q-31 33 0 67l373 377 q27 27 64.5 48.5t70.5 41.5q-23 -2 -64 -8t-69 -6h-1286q-20 0 -34 13.5t-14 33.5z" />
<glyph unicode="&#xb2;" horiz-adv-x="675" d="M82 612v84q0 27 14 41q86 78 146.5 131.5t97.5 95.5t53.5 76.5t16.5 77.5q0 49 -33 76t-78 27q-43 0 -71.5 -12.5t-59.5 -30.5q-16 -10 -26.5 -3t-16.5 19l-43 82q-6 12 0 23.5t20 19.5q47 29 95.5 44t103.5 15q63 0 115.5 -19.5t89.5 -53t56.5 -79.5t19.5 -100 q0 -53 -15.5 -97t-50.5 -89t-89 -93t-134 -108h280q12 0 21.5 -10t9.5 -22v-95q0 -12 -9 -22t-22 -10h-458q-14 0 -23.5 10t-9.5 22z" />
<glyph unicode="&#xb3;" horiz-adv-x="661" d="M88 477q-4 31 29 31q164 0 246.5 44t82.5 140q0 72 -54 112t-161 40q-35 0 -34 30v93q0 33 34 32q72 0 127.5 33t55.5 96q0 53 -33 76t-86 23q-63 0 -121 -37q-14 -10 -25.5 -5t-17.5 17l-41 82q-14 31 16 47q47 25 100.5 36t102.5 11q115 0 192 -65.5t77 -175.5 q0 -59 -34 -114.5t-108 -90.5q80 -20 130 -83t50 -161q0 -154 -129 -240t-358 -86q-16 0 -24.5 9.5t-10.5 21.5z" />
<glyph unicode="&#xb4;" horiz-adv-x="741" d="M119 1254.5q6 13.5 22 23.5l336 209q37 23 55 -12l48 -91q12 -23 5 -38t-26 -23l-358 -160q-35 -14 -54 15l-24 43q-10 20 -4 33.5z" />
<glyph unicode="&#xb6;" horiz-adv-x="1085" d="M98 952q0 201 103.5 312.5t296.5 111.5h420q18 0 31.5 -12t13.5 -33v-1591q0 -20 -13.5 -31.5t-31.5 -11.5h-78q-18 0 -32.5 11t-14.5 32v1483h-164v-1483q0 -20 -14.5 -31.5t-32.5 -11.5h-76q-18 0 -32.5 11t-14.5 32v831q-76 0 -141.5 30t-114.5 81t-77 120.5 t-28 149.5z" />
<glyph unicode="&#xb7;" horiz-adv-x="569" d="M135 627q0 33 12.5 61.5t33 51t49 35.5t61.5 13q66 0 109.5 -47.5t43.5 -113.5t-44 -114t-109 -48q-66 0 -111 48t-45 114z" />
<glyph unicode="&#xb8;" horiz-adv-x="839" d="M279 -328l20 52q10 27 37 14q51 -23 98 -23q29 0 49.5 15.5t20.5 44.5t-23.5 43t-52.5 14q-16 0 -26.5 -1t-18.5 1q-33 4 -23 39l50 178h110l-28 -127q86 -2 119.5 -47t33.5 -104q0 -31 -12 -63t-39 -57.5t-66 -42t-94 -16.5q-35 0 -70.5 9.5t-64.5 23.5q-33 14 -20 47z " />
<glyph unicode="&#xb9;" horiz-adv-x="577" d="M86 1232.5q4 14.5 14 18.5l252 119q20 10 45 6t25 -33v-618h63q12 0 21.5 -10t9.5 -23v-86q0 -12 -9 -21.5t-22 -9.5h-323q-14 0 -23.5 9.5t-9.5 21.5v86q0 12 9 22.5t24 10.5h86v428l-78 -37q-29 -14 -41 12l-41 80q-6 10 -2 24.5z" />
<glyph unicode="&#xba;" horiz-adv-x="888" d="M150 510v47q0 47 45 47h499q27 0 37 -13t10 -36v-45q0 -45 -47 -45h-499q-45 0 -45 45zM156 1092q0 174 76.5 273t213.5 99t212 -99t75 -273t-79 -273.5t-216 -99.5t-209.5 98t-72.5 275zM311 1098q0 -131 32 -192.5t99 -61.5q70 0 101.5 61.5t31.5 192.5 q0 129 -31.5 187t-101.5 58q-68 0 -99.5 -58t-31.5 -187z" />
<glyph unicode="&#xbb;" horiz-adv-x="1015" d="M131 849.5q4 16.5 16 24.5l76 50q10 8 26.5 4t24.5 -17l261 -389q16 -29 0 -55l-261 -387q-8 -10 -23 -15.5t-28 3.5l-78 51q-10 6 -13 22.5t7 30.5l217 324l-219 325q-10 12 -6 28.5zM514 849.5q4 16.5 16 24.5l76 50q10 8 26.5 4t24.5 -17l261 -389q16 -29 0 -55 l-261 -387q-8 -10 -23.5 -15.5t-27.5 3.5l-78 51q-10 6 -13 22.5t7 30.5l215 324l-217 325q-10 12 -6 28.5z" />
<glyph unicode="&#xbc;" horiz-adv-x="1427" d="M86 1232.5q4 14.5 14 18.5l252 119q20 10 45 6t25 -33v-618h63q12 0 21.5 -10t9.5 -23v-86q0 -12 -9 -21.5t-22 -9.5h-323q-14 0 -23.5 9.5t-9.5 21.5v86q0 12 9 22.5t24 10.5h86v428l-78 -37q-29 -14 -41 12l-41 80q-6 10 -2 24.5zM436 -43l426 1477q12 43 53 43h70 q23 0 31 -15.5t2 -38.5l-426 -1478q-10 -37 -47 -37h-76q-27 0 -33 13t0 36zM827 152v92q0 10 2 17t7 18l208 595q8 23 35 23h127q16 0 20.5 -9t0.5 -22l-226 -596h158l27 275q4 31 31 30h73q12 0 21.5 -8t9.5 -22v-275h63q12 0 21.5 -10t9.5 -22v-86q0 -12 -9 -21.5 t-22 -9.5h-63v-166q0 -12 -9 -21.5t-22 -9.5h-100q-12 0 -22.5 9.5t-10.5 21.5v166h-299q-14 0 -22.5 9t-8.5 22z" />
<glyph unicode="&#xbd;" horiz-adv-x="1495" d="M86 1232.5q4 14.5 14 18.5l252 119q20 10 45 6t25 -33v-618h63q12 0 21.5 -10t9.5 -23v-86q0 -12 -9 -21.5t-22 -9.5h-323q-14 0 -23.5 9.5t-9.5 21.5v86q0 12 9 22.5t24 10.5h86v428l-78 -37q-29 -14 -41 12l-41 80q-6 10 -2 24.5zM434 -43l428 1477q12 43 51 43h72 q23 0 31 -15.5t2 -38.5l-428 -1478q-10 -37 -45 -37h-78q-27 0 -33 13t0 36zM920 33v84q0 27 14 41q86 78 146.5 131t98.5 94t54 76t16 78q0 49 -33.5 76.5t-78.5 27.5q-43 0 -72 -12.5t-59 -30.5q-16 -10 -26.5 -3t-16.5 19l-43 82q-12 25 18 41q47 29 95 45.5t104 16.5 q63 0 115.5 -19.5t89 -53.5t57 -80t20.5 -99t-15 -97t-50 -89.5t-89.5 -93.5t-134.5 -107h281q12 0 21.5 -10.5t9.5 -22.5v-94q0 -12 -9.5 -22.5t-21.5 -10.5h-461q-14 0 -22 10t-8 23z" />
<glyph unicode="&#xbe;" horiz-adv-x="1529" d="M96 477q-4 31 29 31q164 0 247 44t83 140q0 72 -54.5 112t-160.5 40q-37 0 -37 30v93q0 33 37 32q72 0 127 33t55 96q0 53 -33 76t-86 23q-63 0 -121 -37q-14 -10 -25.5 -5t-17.5 17l-43 82q-16 29 19 47q47 25 100 36t102 11q115 0 192 -65.5t77 -175.5 q0 -59 -34 -114.5t-108 -90.5q80 -20 130.5 -83t50.5 -161q0 -154 -130 -240t-360 -86q-16 0 -23.5 9.5t-9.5 21.5zM536 -79q-6 13 1 36l428 1477q12 43 53 43h69q23 0 31 -15.5t2 -38.5l-428 -1478q-10 -37 -45 -37h-78q-27 0 -33 13zM928 152v92q0 10 2 17t6 18l213 595 q8 23 35 23h127q16 0 19 -9t-1 -22l-227 -596h160l26 277q4 31 33 31h72q12 0 22 -8.5t10 -22.5v-277h64q12 0 21.5 -10t9.5 -22v-86q0 -12 -9.5 -21.5t-21.5 -9.5h-64v-166q0 -12 -10 -21.5t-22 -9.5h-101q-12 0 -21 9.5t-9 21.5v166h-304q-14 0 -22 9t-8 22z" />
<glyph unicode="&#xbf;" horiz-adv-x="823" d="M104 -68q0 96 41 173t91.5 144.5t91.5 131t41 133.5v33q0 55 43 55h98q47 0 47 -55v-37q0 -92 -39 -165t-85 -138.5t-85 -128t-39 -133.5q0 -72 40 -114t112 -42q59 0 101 20.5t63 30.5q23 10 37 3t20 -21l41 -88q14 -33 -16 -53q-59 -41 -128 -60.5t-137 -19.5 q-74 0 -136 24.5t-107 68.5t-70 105.5t-25 132.5zM324 901q0 57 39.5 97t97.5 40q57 0 96 -40t39 -97t-39 -96t-96 -39t-97 39t-40 96z" />
<glyph unicode="&#xc0;" horiz-adv-x="1091" d="M37 51l373 1282q6 23 22.5 33t34.5 10h154q18 0 35.5 -10t23.5 -33l397 -1282q6 -20 -3 -35.5t-30 -15.5h-124q-18 0 -37 12.5t-23 30.5l-90 324h-446l-84 -324q-4 -18 -20.5 -30.5t-35.5 -12.5h-114q-20 0 -29.5 15.5t-3.5 35.5zM232.5 1674.5q-7.5 15.5 5.5 37.5l47 90 q18 35 55 13l336 -209q16 -10 22.5 -23.5t-4.5 -34.5l-22 -43q-16 -31 -56 -14l-358 160q-18 8 -25.5 23.5zM367 528h360l-154 570q-10 41 -17 89t-13 89q-4 -43 -12.5 -91t-18.5 -89z" />
<glyph unicode="&#xc1;" horiz-adv-x="1091" d="M37 51l373 1282q6 23 22.5 33t34.5 10h154q18 0 35.5 -10t23.5 -33l397 -1282q6 -20 -3 -35.5t-30 -15.5h-124q-18 0 -37 12.5t-23 30.5l-90 324h-446l-84 -324q-4 -18 -20.5 -30.5t-35.5 -12.5h-114q-20 0 -29.5 15.5t-3.5 35.5zM363 1581.5q6 13.5 22 24.5l336 209 q37 23 55 -13l47 -90q12 -23 5 -38t-25 -23l-359 -160q-35 -14 -53 14l-24 43q-10 20 -4 33.5zM367 528h360l-154 570q-10 41 -17 89t-13 89q-4 -43 -12.5 -91t-18.5 -89z" />
<glyph unicode="&#xc2;" horiz-adv-x="1091" d="M37 51l373 1282q6 23 22.5 33t34.5 10h154q18 0 35.5 -10t23.5 -33l397 -1282q6 -20 -3 -35.5t-30 -15.5h-124q-18 0 -37 12.5t-23 30.5l-90 324h-446l-84 -324q-4 -18 -20.5 -30.5t-35.5 -12.5h-114q-20 0 -29.5 15.5t-3.5 35.5zM222 1585q1 14 16 25l262 207 q41 31 80 0l260 -203q12 -10 14 -26.5t-6 -28.5l-27 -39q-8 -12 -26.5 -17.5t-32.5 4.5l-230 148l-221 -146q-14 -10 -31.5 -5t-25.5 18l-25 37q-8 12 -7 26zM367 528h360l-154 570q-10 41 -17 89t-13 89q-4 -43 -12.5 -91t-18.5 -89z" />
<glyph unicode="&#xc3;" horiz-adv-x="1091" d="M37 51l373 1282q6 23 22.5 33t34.5 10h154q18 0 35.5 -10t23.5 -33l397 -1282q6 -20 -3 -35.5t-30 -15.5h-124q-18 0 -37 12.5t-23 30.5l-90 324h-446l-84 -324q-4 -18 -20.5 -30.5t-35.5 -12.5h-114q-20 0 -29.5 15.5t-3.5 35.5zM204 1619.5q5 14.5 19 31.5 q41 43 89 65.5t120 22.5q45 0 74 -11.5t54.5 -25.5t53 -25.5t70.5 -11.5q41 0 62.5 9t44.5 32q25 25 49 -4l20 -25q14 -16 8 -32.5t-16 -28.5q-47 -47 -92 -68.5t-119 -21.5q-45 0 -73.5 11t-54.5 25.5t-53.5 25.5t-70.5 11q-41 0 -62.5 -10t-45.5 -33q-20 -20 -50 13 l-18 20q-14 16 -9 30.5zM367 528h360l-154 570q-10 41 -17 89t-13 89q-4 -43 -12.5 -91t-18.5 -89z" />
<glyph unicode="&#xc4;" horiz-adv-x="1091" d="M37 51l373 1282q6 23 22.5 33t34.5 10h154q18 0 35.5 -10t23.5 -33l397 -1282q6 -20 -3 -35.5t-30 -15.5h-124q-18 0 -37 12.5t-23 30.5l-90 324h-446l-84 -324q-4 -18 -20.5 -30.5t-35.5 -12.5h-114q-20 0 -29.5 15.5t-3.5 35.5zM250 1608q0 47 32.5 76.5t73.5 29.5 q47 0 78 -29.5t31 -76.5t-31 -79t-78 -32q-43 0 -74.5 32t-31.5 79zM367 528h360l-154 570q-10 41 -17 89t-13 89q-4 -43 -12.5 -91t-18.5 -89zM614 1608q0 47 32 76.5t79 29.5q41 0 73.5 -29.5t32.5 -76.5t-32.5 -79t-73.5 -32q-47 0 -79 32t-32 79z" />
<glyph unicode="&#xc5;" horiz-adv-x="1091" d="M37 51l383 1286q-29 25 -43.5 61t-14.5 77q0 78 52.5 131t130.5 53t131 -53.5t53 -130.5q0 -82 -59 -138l407 -1286q6 -20 -3 -35.5t-30 -15.5h-124q-18 0 -37 12.5t-23 30.5l-90 324h-446l-84 -324q-4 -18 -20.5 -30.5t-35.5 -12.5h-114q-20 0 -29.5 15.5t-3.5 35.5z M367 528h358l-152 572q-4 14 -8 36.5l-8 45l-8 45t-6 37.5q-2 -14 -5 -36t-7.5 -45.5t-8.5 -46t-8 -36.5zM449 1475q0 -43 26.5 -75t69.5 -32t69.5 32t26.5 75t-26.5 73.5t-69.5 30.5t-69.5 -30.5t-26.5 -73.5z" />
<glyph unicode="&#xc6;" horiz-adv-x="1574" d="M-18.5 15.5q-8.5 15.5 4.5 39.5l645 1278q10 18 28.5 30.5t36.5 12.5h719q18 0 31.5 -12t13.5 -33v-80q0 -20 -12 -33.5t-33 -13.5h-469v-393h426q20 0 33.5 -13.5t13.5 -31.5v-74q0 -20 -13 -33.5t-34 -13.5h-426v-469h498q20 0 34.5 -12t14.5 -33v-86 q0 -18 -14.5 -31.5t-32.5 -13.5h-645q-18 0 -31.5 13.5t-13.5 31.5v322h-400l-155 -324q-10 -18 -25.5 -30.5t-34.5 -12.5h-131q-20 0 -28.5 15.5zM438 532h318v543v185q-25 -98 -66 -187z" />
<glyph unicode="&#xc7;" horiz-adv-x="966" d="M98 696q0 160 39 288t109.5 217t170 137t220.5 48q59 0 122.5 -10t119.5 -43q16 -10 22 -27.5t-4 -35.5l-37 -74q-8 -16 -23.5 -21.5t-33.5 5.5q-35 16 -72 26.5t-84 10.5q-164 0 -253 -123t-89 -400q0 -141 24.5 -240.5t69.5 -164t107.5 -94t138.5 -29.5q41 0 88 11 t76 26q18 10 33.5 5t21.5 -20l39 -88q8 -18 1 -33.5t-19 -21.5q-45 -23 -103.5 -38t-144.5 -17l-16 -68q86 -2 119.5 -47t33.5 -104q0 -31 -13 -63t-39 -57.5t-66 -42t-95 -16.5q-35 0 -69.5 9.5t-63.5 23.5q-33 14 -20 47l20 52q10 27 37 14q25 -10 47.5 -16.5t48.5 -6.5 q29 0 50.5 15.5t21.5 44.5t-23.5 43t-52.5 14q-16 0 -26.5 -1t-18.5 1q-33 6 -23 39l35 127q-205 35 -315.5 214t-110.5 484z" />
<glyph unicode="&#xc8;" horiz-adv-x="1009" d="M188 45v1286q0 20 14.5 32.5t33.5 12.5h628q18 0 31.5 -12t13.5 -33v-80q0 -20 -12 -33.5t-33 -13.5h-485v-393h436q20 0 32.5 -13.5t12.5 -31.5v-74q0 -20 -12 -33.5t-33 -13.5h-436v-469h500q20 0 33.5 -12t13.5 -33v-86q0 -18 -13.5 -31.5t-31.5 -13.5h-645 q-18 0 -33 13.5t-15 31.5zM267.5 1674.5q-7.5 15.5 4.5 37.5l47 90q18 35 56 13l336 -209q16 -10 22 -23.5t-4 -34.5l-22 -43q-16 -31 -56 -14l-358 160q-18 8 -25.5 23.5z" />
<glyph unicode="&#xc9;" horiz-adv-x="1009" d="M188 45v1286q0 20 14.5 32.5t33.5 12.5h628q18 0 31.5 -12t13.5 -33v-80q0 -20 -12 -33.5t-33 -13.5h-485v-393h436q20 0 32.5 -13.5t12.5 -31.5v-74q0 -20 -12 -33.5t-33 -13.5h-436v-469h500q20 0 33.5 -12t13.5 -33v-86q0 -18 -13.5 -31.5t-31.5 -13.5h-645 q-18 0 -33 13.5t-15 31.5zM363 1581.5q6 13.5 22 24.5l336 209q37 23 55 -13l47 -90q12 -23 5 -38t-25 -23l-359 -160q-35 -14 -53 14l-24 43q-10 20 -4 33.5z" />
<glyph unicode="&#xca;" horiz-adv-x="1009" d="M188 45v1286q0 20 14.5 32.5t33.5 12.5h628q18 0 31.5 -12t13.5 -33v-80q0 -20 -12 -33.5t-33 -13.5h-485v-393h436q20 0 32.5 -13.5t12.5 -31.5v-74q0 -20 -12 -33.5t-33 -13.5h-436v-469h500q20 0 33.5 -12t13.5 -33v-86q0 -18 -13.5 -31.5t-31.5 -13.5h-645 q-18 0 -33 13.5t-15 31.5zM220 1585q1 14 16 25l262 207q41 31 80 0l260 -203q12 -10 14 -26.5t-6 -28.5l-27 -39q-8 -12 -26.5 -17.5t-32.5 4.5l-230 148l-221 -146q-14 -10 -31.5 -5t-25.5 18l-25 37q-8 12 -7 26z" />
<glyph unicode="&#xcb;" horiz-adv-x="1009" d="M188 45v1286q0 20 14.5 32.5t33.5 12.5h628q18 0 31.5 -12t13.5 -33v-80q0 -20 -12 -33.5t-33 -13.5h-485v-393h436q20 0 32.5 -13.5t12.5 -31.5v-74q0 -20 -12 -33.5t-33 -13.5h-436v-469h500q20 0 33.5 -12t13.5 -33v-86q0 -18 -13.5 -31.5t-31.5 -13.5h-645 q-18 0 -33 13.5t-15 31.5zM262 1608q0 47 33 76.5t74 29.5q47 0 77.5 -29.5t30.5 -76.5t-30.5 -79t-77.5 -32q-43 0 -75 32t-32 79zM627 1608q0 47 31.5 76.5t78.5 29.5q41 0 74 -29.5t33 -76.5t-33 -79t-74 -32q-47 0 -78.5 32t-31.5 79z" />
<glyph unicode="&#xcc;" horiz-adv-x="557" d="M-13 1674.5q-7 15.5 5 37.5l47 90q18 35 55 13l336 -209q16 -10 22.5 -23.5t-3.5 -34.5l-23 -43q-16 -31 -55 -14l-359 160q-18 8 -25 23.5zM51 45v57q0 18 12.5 33t32.5 15h92v1077h-92q-20 0 -32.5 14t-12.5 33v57q0 18 12.5 31.5t32.5 13.5h375q20 0 32.5 -13 t12.5 -32v-57q0 -18 -12 -32.5t-33 -14.5h-92v-1077h92q20 0 32.5 -14.5t12.5 -33.5v-57q0 -18 -12 -31.5t-33 -13.5h-375q-20 0 -32.5 13.5t-12.5 31.5z" />
<glyph unicode="&#xcd;" horiz-adv-x="557" d="M51 45v57q0 18 12.5 33t32.5 15h92v1077h-92q-20 0 -32.5 14t-12.5 33v57q0 18 12.5 31.5t32.5 13.5h375q20 0 32.5 -13t12.5 -32v-57q0 -18 -12 -32.5t-33 -14.5h-92v-1077h92q20 0 32.5 -14.5t12.5 -33.5v-57q0 -18 -12 -31.5t-33 -13.5h-375q-20 0 -32.5 13.5 t-12.5 31.5zM105 1581.5q6 13.5 22 24.5l336 209q37 23 55 -13l47 -90q12 -23 5 -38t-25 -23l-359 -160q-35 -14 -53 14l-24 43q-10 20 -4 33.5z" />
<glyph unicode="&#xce;" horiz-adv-x="557" d="M-25.5 1585q0.5 14 15.5 25l262 207q41 31 80 0l260 -203q12 -10 14 -26.5t-6 -28.5l-27 -39q-8 -12 -26.5 -17.5t-32.5 4.5l-229 148l-222 -146q-14 -10 -31.5 -5t-25.5 18l-24 37q-8 12 -7.5 26zM51 45v57q0 18 12.5 33t32.5 15h92v1077h-92q-20 0 -32.5 14t-12.5 33 v57q0 18 12.5 31.5t32.5 13.5h375q20 0 32.5 -13t12.5 -32v-57q0 -18 -12 -32.5t-33 -14.5h-92v-1077h92q20 0 32.5 -14.5t12.5 -33.5v-57q0 -18 -12 -31.5t-33 -13.5h-375q-20 0 -32.5 13.5t-12.5 31.5z" />
<glyph unicode="&#xcf;" horiz-adv-x="557" d="M-4 1608q0 47 32.5 76.5t73.5 29.5q47 0 78 -29.5t31 -76.5t-30.5 -79t-78.5 -32q-43 0 -74.5 32t-31.5 79zM51 45v57q0 18 12.5 33t32.5 15h92v1077h-92q-20 0 -32.5 14t-12.5 33v57q0 18 12.5 31.5t32.5 13.5h375q20 0 32.5 -13t12.5 -32v-57q0 -18 -12 -32.5 t-33 -14.5h-92v-1077h92q20 0 32.5 -14.5t12.5 -33.5v-57q0 -18 -12 -31.5t-33 -13.5h-375q-20 0 -32.5 13.5t-12.5 31.5zM360 1608q0 47 32 76.5t79 29.5q41 0 74 -29.5t33 -76.5t-33 -79t-74 -32q-47 0 -79 32t-32 79z" />
<glyph unicode="&#xd0;" horiz-adv-x="1140" d="M78 698v76q0 23 13 36t34 13h63v508q0 20 14.5 32.5t33.5 12.5h303q125 0 223 -38t165.5 -119.5t102.5 -210t35 -308.5q0 -172 -26.5 -302t-87 -219t-160 -134t-244.5 -45h-311q-18 0 -33 13.5t-15 31.5v608h-63q-20 0 -33.5 12.5t-13.5 32.5zM379 168h147 q76 0 137.5 18.5t105.5 73.5t68.5 155.5t24.5 264.5q0 90 -6 158.5t-19.5 121t-33 90t-43.5 68.5q-41 49 -102.5 71.5t-129.5 22.5h-149v-389h115q23 0 35 -13t12 -36v-76q0 -45 -47 -45h-115v-485z" />
<glyph unicode="&#xd1;" horiz-adv-x="1265" d="M188 43v1290q0 20 13.5 31.5t34.5 11.5h172q18 0 34.5 -8t22.5 -25l387 -911q29 -68 49.5 -137.5t40.5 -132.5q-6 70 -13 151.5t-7 151.5l-4 868q0 18 14 30.5t33 12.5h86q18 0 32.5 -12t14.5 -31v-1290q0 -16 -14.5 -29.5t-32.5 -13.5h-166q-37 0 -54 37l-399 915 q-29 66 -50.5 139.5t-39.5 145.5q2 -35 7 -79t8 -87t6.5 -81t3.5 -64l4 -883q0 -16 -14.5 -29.5t-32.5 -13.5h-88q-18 0 -33 13.5t-15 29.5zM314.5 1619.5q4.5 14.5 19.5 31.5q41 43 89 65.5t120 22.5q45 0 73.5 -11.5t54 -25.5t53.5 -25.5t71 -11.5q41 0 62.5 9t43.5 32 q25 25 49 -4l21 -25q14 -16 8 -32.5t-16 -28.5q-47 -47 -92.5 -68.5t-118.5 -21.5q-45 0 -74 11t-54.5 25.5t-53 25.5t-70.5 11q-41 0 -62.5 -10t-46.5 -33q-20 -20 -49 13l-18 20q-14 16 -9.5 30.5z" />
<glyph unicode="&#xd2;" horiz-adv-x="1142" d="M109 684q0 356 119.5 529t355.5 173q233 0 352 -171t119 -531q0 -358 -119 -526t-352 -168t-354 168t-121 526zM261.5 1674.5q-7.5 15.5 4.5 37.5l47 90q18 35 56 13l336 -209q16 -10 22 -23.5t-4 -34.5l-23 -43q-16 -31 -55 -14l-358 160q-18 8 -25.5 23.5zM311 686 q0 -279 61.5 -407.5t209.5 -128.5q78 0 130 37.5t83.5 107.5t45 169t13.5 222q0 113 -11.5 213t-41 174t-82.5 117t-137 43q-92 0 -146.5 -47t-82 -125t-35 -176.5t-7.5 -198.5z" />
<glyph unicode="&#xd3;" horiz-adv-x="1142" d="M109 684q0 356 119.5 529t355.5 173q233 0 352 -171t119 -531q0 -358 -119 -526t-352 -168t-354 168t-121 526zM311 686q0 -279 61.5 -407.5t209.5 -128.5q78 0 130 37.5t83.5 107.5t45 169t13.5 222q0 113 -11.5 213t-41 174t-82.5 117t-137 43q-92 0 -146.5 -47 t-82 -125t-35 -176.5t-7.5 -198.5zM399.5 1581.5q6.5 13.5 22.5 24.5l336 209q37 23 55 -13l47 -90q12 -23 5 -38t-25 -23l-359 -160q-35 -14 -53 14l-25 43q-10 20 -3.5 33.5z" />
<glyph unicode="&#xd4;" horiz-adv-x="1142" d="M109 684q0 356 119.5 529t355.5 173q233 0 352 -171t119 -531q0 -358 -119 -526t-352 -168t-354 168t-121 526zM257 1585q1 14 15 25l263 207q41 31 79 0l260 -203q12 -10 14.5 -26.5t-5.5 -28.5l-27 -39q-8 -12 -26.5 -17.5t-32.5 4.5l-230 148l-221 -146 q-14 -10 -31.5 -5t-25.5 18l-25 37q-8 12 -7 26zM311 686q0 -279 61.5 -407.5t209.5 -128.5q78 0 130 37.5t83.5 107.5t45 169t13.5 222q0 113 -11.5 213t-41 174t-82.5 117t-137 43q-92 0 -146.5 -47t-82 -125t-35 -176.5t-7.5 -198.5z" />
<glyph unicode="&#xd5;" horiz-adv-x="1142" d="M109 684q0 356 119.5 529t355.5 173q233 0 352 -171t119 -531q0 -358 -119 -526t-352 -168t-354 168t-121 526zM237 1619.5q5 14.5 19 31.5q41 43 89 65.5t120 22.5q45 0 73.5 -11.5t54 -25.5t53.5 -25.5t71 -11.5q41 0 62.5 9t43.5 32q25 25 49 -4l21 -25 q14 -16 8 -32.5t-16 -28.5q-47 -47 -92 -68.5t-119 -21.5q-45 0 -74 11t-54.5 25.5t-53 25.5t-70.5 11q-41 0 -62.5 -10t-46.5 -33q-20 -20 -49 13l-18 20q-14 16 -9 30.5zM311 686q0 -279 61.5 -407.5t209.5 -128.5q78 0 130 37.5t83.5 107.5t45 169t13.5 222 q0 113 -11.5 213t-41 174t-82.5 117t-137 43q-92 0 -146.5 -47t-82 -125t-35 -176.5t-7.5 -198.5z" />
<glyph unicode="&#xd6;" horiz-adv-x="1142" d="M109 684q0 356 119.5 529t355.5 173q233 0 352 -171t119 -531q0 -358 -119 -526t-352 -168t-354 168t-121 526zM293 1608q0 47 32.5 76.5t73.5 29.5q47 0 78 -29.5t31 -76.5t-31 -79t-78 -32q-43 0 -74.5 32t-31.5 79zM311 686q0 -279 61.5 -407.5t209.5 -128.5 q78 0 130 37.5t83.5 107.5t45 169t13.5 222q0 113 -11.5 213t-41 174t-82.5 117t-137 43q-92 0 -146.5 -47t-82 -125t-35 -176.5t-7.5 -198.5zM657 1608q0 47 32 76.5t79 29.5q41 0 73.5 -29.5t32.5 -76.5t-32.5 -79t-73.5 -32q-47 0 -79 32t-32 79z" />
<glyph unicode="&#xd7;" horiz-adv-x="1050" d="M97.5 148.5q0.5 17.5 17.5 33.5l303 303l-307 308q-31 31 0 63l55 57q27 31 65 -8l306 -301l301 301q33 33 65 0l51 -51q33 -35 2 -66l-303 -303l301 -303q12 -12 15.5 -26.5t-13.5 -30.5l-55 -57q-20 -20 -33.5 -20.5t-31.5 18.5l-301 301l-302 -299q-37 -37 -67 -7 l-53 54q-16 16 -15.5 33.5z" />
<glyph unicode="&#xd8;" horiz-adv-x="1142" d="M109 684q0 356 119.5 529t355.5 173q113 0 200 -40l45 106q8 18 25.5 25.5t34.5 -0.5l49 -23q16 -8 25.5 -24.5t1.5 -34.5l-60 -140q150 -174 150 -571q0 -358 -119 -526t-352 -168q-117 0 -201 39l-45 -111q-8 -18 -26.5 -24.5t-35.5 2.5l-49 22q-16 8 -24 24.5t0 34.5 l59 142q-76 86 -114.5 224t-38.5 341zM315 686q0 -233 43 -362l367 864q-57 47 -143 47q-92 0 -145.5 -48t-80 -125t-34 -176.5t-7.5 -199.5zM446 188q55 -43 136 -43q78 0 130 38t82.5 108.5t43 171t12.5 223.5q0 104 -9.5 196.5t-31.5 164.5z" />
<glyph unicode="&#xd9;" horiz-adv-x="1198" d="M178 420v911q0 20 14.5 32.5t32.5 12.5h97q45 0 45 -45v-882q0 -72 12 -127.5t41 -94.5t75 -59.5t115 -20.5q57 0 103.5 12.5t80 44.5t52 86t18.5 140v901q0 45 45 45h99q18 0 31.5 -12t13.5 -33v-911q0 -209 -112 -319.5t-329 -110.5q-227 0 -330.5 114.5t-103.5 315.5z M298.5 1674.5q-7.5 15.5 4.5 37.5l47 90q18 35 56 13l335 -209q16 -10 22.5 -23.5t-3.5 -34.5l-23 -43q-16 -31 -55 -14l-358 160q-18 8 -25.5 23.5z" />
<glyph unicode="&#xda;" horiz-adv-x="1198" d="M178 420v911q0 20 14.5 32.5t32.5 12.5h97q45 0 45 -45v-882q0 -72 12 -127.5t41 -94.5t75 -59.5t115 -20.5q57 0 103.5 12.5t80 44.5t52 86t18.5 140v901q0 45 45 45h99q18 0 31.5 -12t13.5 -33v-911q0 -209 -112 -319.5t-329 -110.5q-227 0 -330.5 114.5t-103.5 315.5z M463 1581.5q6 13.5 22 24.5l336 209q37 23 56 -13l47 -90q12 -23 5 -38t-26 -23l-358 -160q-35 -14 -53 14l-25 43q-10 20 -4 33.5z" />
<glyph unicode="&#xdb;" horiz-adv-x="1198" d="M178 420v911q0 20 14.5 32.5t32.5 12.5h97q45 0 45 -45v-882q0 -72 12 -127.5t41 -94.5t75 -59.5t115 -20.5q57 0 103.5 12.5t80 44.5t52 86t18.5 140v901q0 45 45 45h99q18 0 31.5 -12t13.5 -33v-911q0 -209 -112 -319.5t-329 -110.5q-227 0 -330.5 114.5t-103.5 315.5z M292 1585q1 14 15 25l262 207q41 31 80 0l260 -203q12 -10 14.5 -26.5t-5.5 -28.5l-27 -39q-8 -12 -26.5 -17.5t-33.5 4.5l-229 148l-221 -146q-14 -10 -31.5 -5t-25.5 18l-25 37q-8 12 -7 26z" />
<glyph unicode="&#xdc;" horiz-adv-x="1206" d="M178 420v911q0 20 14.5 32.5t32.5 12.5h97q45 0 45 -45v-882q0 -72 12 -127.5t41 -94.5t75 -59.5t115 -20.5q57 0 103.5 12.5t80 44.5t52 86t18.5 140v901q0 45 45 45h99q18 0 31.5 -12t13.5 -33v-911q0 -209 -112 -319.5t-329 -110.5q-227 0 -330.5 114.5t-103.5 315.5z M324 1608q0 47 32.5 76.5t73.5 29.5q47 0 78 -29.5t31 -76.5t-31 -79t-78 -32q-43 0 -74.5 32t-31.5 79zM688 1608q0 47 32 76.5t79 29.5q41 0 73.5 -29.5t32.5 -76.5t-32.5 -79t-73.5 -32q-47 0 -79 32t-32 79z" />
<glyph unicode="&#xdd;" horiz-adv-x="1001" d="M47 1329q-8 16 0 31.5t31 15.5h145q33 0 47 -30l199 -488q25 -61 36 -111.5t19 -97.5q8 47 19.5 95.5t36.5 113.5l188 485q14 33 53 33h131q18 0 26.5 -13t-1.5 -36l-367 -799v-483q0 -18 -14 -31.5t-33 -13.5h-96q-18 0 -32.5 13.5t-14.5 31.5v481zM365 1581.5 q6 13.5 22 24.5l336 209q37 23 55 -13l47 -90q12 -23 5 -38t-25 -23l-359 -160q-35 -14 -53 14l-24 43q-10 20 -4 33.5z" />
<glyph unicode="&#xde;" horiz-adv-x="1021" d="M188 45v1286q0 18 14.5 31.5t33.5 13.5h98q18 0 31.5 -13t13.5 -32v-239h160q211 0 320.5 -110t109.5 -288q0 -90 -29 -165.5t-84 -130t-134 -85t-179 -30.5h-164v-238q0 -18 -13.5 -31.5t-31.5 -13.5h-98q-18 0 -33 13.5t-15 31.5zM379 444h164q113 0 172 71t59 175 q0 111 -57.5 172.5t-173.5 61.5h-164v-480z" />
<glyph unicode="&#xdf;" horiz-adv-x="1048" d="M8 887v55q0 18 11.5 32.5t31.5 14.5h107v107q0 184 103.5 273t277.5 89q76 0 140 -19.5t110.5 -57.5t72 -93t25.5 -125q0 -92 -32 -146t-73 -95q-43 -41 -77.5 -75t-34.5 -83q0 -41 29.5 -68.5t74.5 -58.5l86 -59q33 -23 64.5 -51.5t56.5 -64.5t39 -81t14 -102 q0 -131 -83 -210t-220 -79q-55 0 -111.5 8t-97.5 22q-20 6 -25 22.5t-1 35.5l16 76q4 23 20.5 29.5t34.5 0.5q35 -10 77 -18t71 -8q66 0 98.5 33.5t32.5 93.5q0 57 -38 96t-91 78l-78 55q-59 41 -101 93t-42 136q0 88 38.5 140.5t83.5 95.5q37 35 66 73t29 97 q0 66 -47.5 108.5t-128.5 42.5q-94 0 -144.5 -53t-50.5 -164v-1038q0 -18 -13.5 -31.5t-31.5 -13.5h-92q-16 0 -31.5 13.5t-15.5 31.5v797h-107q-20 0 -31.5 13t-11.5 32z" />
<glyph unicode="&#xe0;" horiz-adv-x="911" d="M70 283q0 82 24.5 140t66.5 96t98 56.5t118 22.5l223 14v50q0 88 -35 131t-141 43q-61 0 -108.5 -12.5t-88.5 -22.5q-20 -6 -34.5 4t-18.5 29l-16 75q-10 41 28 54q43 12 113 25t135 13q123 0 192.5 -34.5t104.5 -89t44 -121t9 -129.5v-355v-80.5t11 -87.5l12 -59 q4 -20 -6 -32.5t-31 -12.5h-94q-41 0 -47 41l-15 90q-47 -76 -120.5 -108.5t-159.5 -32.5q-123 0 -193.5 76.5t-70.5 216.5zM175.5 1346.5q-7.5 15.5 4.5 37.5l47 91q18 35 56 12l335 -209q16 -10 22.5 -23.5t-3.5 -33.5l-23 -43q-16 -31 -55 -15l-358 160q-18 8 -25.5 23.5 zM258 283q0 -74 37 -109t92 -35q49 0 88 18.5t66.5 47t43 61.5t15.5 62v153l-127 -4q-47 -2 -86 -11t-67.5 -30.5t-45 -58.5t-16.5 -94z" />
<glyph unicode="&#xe1;" horiz-adv-x="911" d="M70 283q0 82 24.5 140t66.5 96t98 56.5t118 22.5l223 14v50q0 88 -35 131t-141 43q-61 0 -108.5 -12.5t-88.5 -22.5q-20 -6 -34.5 4t-18.5 29l-16 75q-10 41 28 54q43 12 113 25t135 13q123 0 192.5 -34.5t104.5 -89t44 -121t9 -129.5v-355v-80.5t11 -87.5l12 -59 q4 -20 -6 -32.5t-31 -12.5h-94q-41 0 -47 41l-15 90q-47 -76 -120.5 -108.5t-159.5 -32.5q-123 0 -193.5 76.5t-70.5 216.5zM258 283q0 -74 37 -109t92 -35q49 0 88 18.5t66.5 47t43 61.5t15.5 62v153l-127 -4q-47 -2 -86 -11t-67.5 -30.5t-45 -58.5t-16.5 -94zM262 1254.5 q6 13.5 23 23.5l336 209q37 23 55 -12l47 -91q12 -23 5 -38t-26 -23l-358 -160q-35 -14 -53 15l-25 43q-10 20 -4 33.5z" />
<glyph unicode="&#xe2;" horiz-adv-x="911" d="M70 283q0 82 24.5 140t66.5 96t98 56.5t118 22.5l223 14v50q0 88 -35 131t-141 43q-61 0 -108.5 -12.5t-88.5 -22.5q-20 -6 -34.5 4t-18.5 29l-16 75q-10 41 28 54q43 12 113 25t135 13q123 0 192.5 -34.5t104.5 -89t44 -121t9 -129.5v-355v-80.5t11 -87.5l12 -59 q4 -20 -6 -32.5t-31 -12.5h-94q-41 0 -47 41l-15 90q-47 -76 -120.5 -108.5t-159.5 -32.5q-123 0 -193.5 76.5t-70.5 216.5zM124 1257.5q1 14.5 15 24.5l262 207q41 31 80 0l260 -203q12 -10 14.5 -26.5t-5.5 -28.5l-27 -39q-8 -12 -26.5 -17.5t-32.5 5.5l-230 147 l-221 -145q-14 -10 -31.5 -5t-25.5 17l-25 37q-8 12 -7 26.5zM258 283q0 -74 37 -109t92 -35q49 0 88 18.5t66.5 47t43 61.5t15.5 62v153l-127 -4q-47 -2 -86 -11t-67.5 -30.5t-45 -58.5t-16.5 -94z" />
<glyph unicode="&#xe3;" horiz-adv-x="911" d="M70 283q0 82 24.5 140t66.5 96t98 56.5t118 22.5l223 14v50q0 88 -35 131t-141 43q-61 0 -108.5 -12.5t-88.5 -22.5q-20 -6 -34.5 4t-18.5 29l-16 75q-10 41 28 54q43 12 113 25t135 13q123 0 192.5 -34.5t104.5 -89t44 -121t9 -129.5v-355v-80.5t11 -87.5l12 -59 q4 -20 -6 -32.5t-31 -12.5h-94q-41 0 -47 41l-15 90q-47 -76 -120.5 -108.5t-159.5 -32.5q-123 0 -193.5 76.5t-70.5 216.5zM122 1292.5q5 14.5 19 30.5q41 43 89.5 65.5t119.5 22.5q45 0 74 -11t54.5 -25.5t53 -26t70.5 -11.5q41 0 62.5 9.5t44.5 31.5q25 25 49 -4l20 -24 q14 -16 8 -33t-16 -29q-47 -47 -92 -68.5t-119 -21.5q-45 0 -73.5 11.5t-54 25.5t-53.5 25.5t-71 11.5q-41 0 -62.5 -10.5t-45.5 -32.5q-20 -20 -49 12l-19 21q-14 16 -9 30.5zM258 283q0 -74 37 -109t92 -35q49 0 88 18.5t66.5 47t43 61.5t15.5 62v153l-127 -4 q-47 -2 -86 -11t-67.5 -30.5t-45 -58.5t-16.5 -94z" />
<glyph unicode="&#xe4;" horiz-adv-x="911" d="M70 283q0 82 24.5 140t66.5 96t98 56.5t118 22.5l223 14v50q0 88 -35 131t-141 43q-61 0 -108.5 -12.5t-88.5 -22.5q-20 -6 -34.5 4t-18.5 29l-16 75q-10 41 28 54q43 12 113 25t135 13q123 0 192.5 -34.5t104.5 -89t44 -121t9 -129.5v-355v-80.5t11 -87.5l12 -59 q4 -20 -6 -32.5t-31 -12.5h-94q-41 0 -47 41l-15 90q-47 -76 -120.5 -108.5t-159.5 -32.5q-123 0 -193.5 76.5t-70.5 216.5zM160 1280q0 47 32.5 76.5t73.5 29.5q47 0 78 -29.5t31 -76.5t-31 -79t-78 -32q-43 0 -74.5 32t-31.5 79zM258 283q0 -74 37 -109t92 -35 q49 0 88 18.5t66.5 47t43 61.5t15.5 62v153l-127 -4q-47 -2 -86 -11t-67.5 -30.5t-45 -58.5t-16.5 -94zM524 1280q0 47 32 76.5t79 29.5q41 0 73.5 -29.5t32.5 -76.5t-32.5 -79t-73.5 -32q-47 0 -79 32t-32 79z" />
<glyph unicode="&#xe5;" horiz-adv-x="911" d="M70 283q0 82 24.5 140t66.5 96t98 56.5t118 22.5l223 14v50q0 88 -35 131t-141 43q-61 0 -108.5 -12.5t-88.5 -22.5q-20 -6 -34.5 4t-18.5 29l-16 75q-10 41 28 54q43 12 113 25t135 13q123 0 192.5 -34.5t104.5 -89t44 -121t9 -129.5v-355v-80.5t11 -87.5l12 -59 q4 -20 -6 -32.5t-31 -12.5h-94q-41 0 -47 41l-15 90q-47 -76 -120.5 -108.5t-159.5 -32.5q-123 0 -193.5 76.5t-70.5 216.5zM258 283q0 -74 37 -109t92 -35q49 0 88 18.5t66.5 47t43 61.5t15.5 62v153l-127 -4q-47 -2 -86 -11t-67.5 -30.5t-45 -58.5t-16.5 -94zM289 1350 q0 78 53 131t131 53t130 -53t52 -131t-52 -131.5t-130 -53.5t-131 53.5t-53 131.5zM375 1350q0 -43 27.5 -74t70.5 -31t69.5 31t26.5 74t-26.5 73.5t-69.5 30.5t-70.5 -30.5t-27.5 -73.5z" />
<glyph unicode="&#xe6;" horiz-adv-x="1433" d="M88 283q0 166 102.5 240.5t294.5 74.5h133v74q0 82 -34.5 124t-139.5 42q-59 0 -107 -12.5t-89 -22.5q-20 -6 -35.5 3t-19.5 28l-17 77q-10 41 31 54q45 12 112.5 24t133.5 12q106 0 177.5 -31.5t104.5 -86.5q88 119 252 118q76 0 143.5 -26.5t117.5 -86t79 -154.5 t29 -234q0 -18 -12.5 -31.5t-30.5 -13.5h-510q6 -154 61.5 -229.5t190.5 -75.5q59 0 104 10t90 24q23 8 35 -2t19 -26l24 -66q12 -39 -29 -55q-49 -23 -105 -35t-149 -12q-123 0 -212 42t-144 134q-51 -76 -135 -126t-201 -50q-123 0 -193.5 77.5t-70.5 217.5zM279 283 q0 -74 35.5 -109t91.5 -35q49 0 87.5 19.5t66.5 48.5t43 61.5t15 61.5v125q-90 0 -154.5 -4.5t-105.5 -20.5t-60 -51t-19 -96zM803 598h362q-2 49 -12 95t-30.5 82t-53.5 57.5t-78 21.5q-27 0 -56.5 -10t-56 -39t-47 -79t-28.5 -128z" />
<glyph unicode="&#xe7;" horiz-adv-x="751" d="M78 504q0 109 29.5 200t84 157.5t130 103t167.5 36.5q51 0 98.5 -10t78.5 -24q45 -20 32 -56l-24 -71q-4 -16 -17.5 -26.5t-38.5 -0.5t-56.5 18.5t-72.5 8.5q-96 0 -154.5 -88t-58.5 -248q0 -176 55.5 -260t172.5 -84q39 0 74.5 5t64.5 13q23 6 36 -5t17 -28l17 -75 q6 -39 -33 -54q-80 -27 -182 -26l-17 -68q86 -2 120 -47t34 -104q0 -31 -12.5 -63t-39 -57.5t-65.5 -42t-94 -16.5q-35 0 -71 9.5t-64 23.5q-31 14 -19 47l21 52q10 27 37 14q25 -10 47 -16.5t49 -6.5q29 0 50.5 15.5t21.5 44.5t-25 43t-53 14q-16 0 -26.5 -1t-18.5 1 q-31 4 -21 39l35 129q-143 33 -226 159t-83 345z" />
<glyph unicode="&#xe8;" horiz-adv-x="913" d="M80 500q0 115 26.5 208t75.5 158.5t119 100t156 34.5q78 0 145.5 -26.5t117.5 -87t78.5 -156.5t28.5 -237q0 -18 -13 -31.5t-32 -13.5h-508q6 -143 61.5 -220t190.5 -77q59 0 103.5 10t89.5 24q23 8 36 -2t19 -26l23 -66q12 -39 -27 -55q-47 -23 -104.5 -35t-149.5 -12 q-211 0 -323.5 128t-112.5 382zM177.5 1346.5q-7.5 15.5 4.5 37.5l47 91q18 35 56 12l336 -209q16 -10 22 -23.5t-4 -33.5l-23 -43q-16 -31 -55 -15l-358 160q-18 8 -25.5 23.5zM274 588h363q-2 49 -11.5 96t-30 85t-53 60.5t-79.5 22.5q-29 0 -58.5 -11.5t-56 -41 t-46 -80.5t-28.5 -131z" />
<glyph unicode="&#xe9;" horiz-adv-x="913" d="M80 500q0 115 26.5 208t75.5 158.5t119 100t156 34.5q78 0 145.5 -26.5t117.5 -87t78.5 -156.5t28.5 -237q0 -18 -13 -31.5t-32 -13.5h-508q6 -143 61.5 -220t190.5 -77q59 0 103.5 10t89.5 24q23 8 36 -2t19 -26l23 -66q12 -39 -27 -55q-47 -23 -104.5 -35t-149.5 -12 q-211 0 -323.5 128t-112.5 382zM272.5 1254.5q6.5 13.5 22.5 23.5l336 209q37 23 55 -12l47 -91q12 -23 5 -38t-25 -23l-359 -160q-35 -14 -53 15l-25 43q-10 20 -3.5 33.5zM274 588h363q-2 49 -11.5 96t-30 85t-53 60.5t-79.5 22.5q-29 0 -58.5 -11.5t-56 -41t-46 -80.5 t-28.5 -131z" />
<glyph unicode="&#xea;" horiz-adv-x="913" d="M80 500q0 115 26.5 208t75.5 158.5t119 100t156 34.5q78 0 145.5 -26.5t117.5 -87t78.5 -156.5t28.5 -237q0 -18 -13 -31.5t-32 -13.5h-508q6 -143 61.5 -220t190.5 -77q59 0 103.5 10t89.5 24q23 8 36 -2t19 -26l23 -66q12 -39 -27 -55q-47 -23 -104.5 -35t-149.5 -12 q-211 0 -323.5 128t-112.5 382zM151 1257.5q1 14.5 15 24.5l262 207q41 31 80 0l260 -203q12 -10 14 -26.5t-6 -28.5l-26 -39q-8 -12 -26.5 -17.5t-33.5 5.5l-229 147l-221 -145q-14 -10 -32 -5t-26 17l-24 37q-8 12 -7 26.5zM274 588h363q-2 49 -11.5 96t-30 85t-53 60.5 t-79.5 22.5q-29 0 -58.5 -11.5t-56 -41t-46 -80.5t-28.5 -131z" />
<glyph unicode="&#xeb;" horiz-adv-x="913" d="M80 500q0 115 26.5 208t75.5 158.5t119 100t156 34.5q78 0 145.5 -26.5t117.5 -87t78.5 -156.5t28.5 -237q0 -18 -13 -31.5t-32 -13.5h-508q6 -143 61.5 -220t190.5 -77q59 0 103.5 10t89.5 24q23 8 36 -2t19 -26l23 -66q12 -39 -27 -55q-47 -23 -104.5 -35t-149.5 -12 q-211 0 -323.5 128t-112.5 382zM172 1280q0 47 33 76.5t74 29.5q47 0 77.5 -29.5t30.5 -76.5t-30.5 -79t-77.5 -32q-43 0 -75 32t-32 79zM274 588h363q-2 49 -11.5 96t-30 85t-53 60.5t-79.5 22.5q-29 0 -58.5 -11.5t-56 -41t-46 -80.5t-28.5 -131zM537 1280q0 47 31.5 76.5 t78.5 29.5q41 0 74 -29.5t33 -76.5t-33 -79t-74 -32q-47 0 -78.5 32t-31.5 79z" />
<glyph unicode="&#xec;" horiz-adv-x="501" d="M-41.5 1346.5q-7.5 15.5 4.5 37.5l47 91q18 35 56 12l335 -209q16 -10 22.5 -23.5t-3.5 -33.5l-23 -43q-16 -31 -55 -15l-358 160q-18 8 -25.5 23.5zM27 889v55q0 18 11 31.5t32 13.5h243q18 0 32.5 -11t14.5 -32v-901q0 -18 -14 -31.5t-33 -13.5h-90q-18 0 -32.5 13.5 t-14.5 31.5v799h-106q-20 0 -31.5 13t-11.5 32z" />
<glyph unicode="&#xed;" horiz-adv-x="501" d="M27 889v55q0 18 11 31.5t32 13.5h243q18 0 32.5 -11t14.5 -32v-901q0 -18 -14 -31.5t-33 -13.5h-90q-18 0 -32.5 13.5t-14.5 31.5v799h-106q-20 0 -31.5 13t-11.5 32zM51 1254.5q6 13.5 23 23.5l336 209q37 23 55 -12l47 -91q12 -23 5 -38t-25 -23l-359 -160 q-35 -14 -53 15l-25 43q-10 20 -4 33.5z" />
<glyph unicode="&#xee;" horiz-adv-x="501" d="M-81 1257.5q1 14.5 15 24.5l263 207q41 31 79 0l261 -203q12 -10 14 -26.5t-6 -28.5l-27 -39q-8 -12 -26.5 -17.5t-32.5 5.5l-230 147l-221 -145q-14 -10 -31.5 -5t-25.5 17l-25 37q-8 12 -7 26.5zM27 889v55q0 18 11 31.5t32 13.5h243q18 0 32.5 -11t14.5 -32v-901 q0 -18 -14 -31.5t-33 -13.5h-90q-18 0 -32.5 13.5t-14.5 31.5v799h-106q-20 0 -31.5 13t-11.5 32z" />
<glyph unicode="&#xef;" horiz-adv-x="501" d="M-49 1280q0 47 32.5 76.5t73.5 29.5q47 0 78 -29.5t31 -76.5t-31 -79t-78 -32q-43 0 -74.5 32t-31.5 79zM27 889v55q0 18 11 31.5t32 13.5h243q18 0 32.5 -11t14.5 -32v-901q0 -18 -14 -31.5t-33 -13.5h-90q-18 0 -32.5 13.5t-14.5 31.5v799h-106q-20 0 -31.5 13 t-11.5 32zM315 1280q0 47 32 76.5t79 29.5q41 0 73.5 -29.5t32.5 -76.5t-32.5 -79t-73.5 -32q-47 0 -79 32t-32 79z" />
<glyph unicode="&#xf0;" horiz-adv-x="970" d="M88 434q0 94 27.5 170t78 130t120 83t151.5 29q43 0 99.5 -14.5t101.5 -43.5q-20 61 -54 122t-82 116l-79 -51q-16 -10 -27.5 -10t-28.5 14l-57 51q-35 31 0 53l76 50q-117 88 -264 133q-29 8 -31 22.5t6 34.5l25 70q14 35 65 20q92 -27 182 -73t168 -111l82 53 q33 23 60 -2l59 -55q29 -27 -8 -51l-82 -54q104 -121 167.5 -278t63.5 -350q0 -125 -31.5 -220.5t-87 -159t-132 -96t-167.5 -32.5q-92 0 -165.5 33.5t-126 93t-81 142.5t-28.5 181zM276 430q0 -135 58.5 -220t165.5 -85q106 0 162.5 97t56.5 253q0 47 -7 100.5t-12 69.5 q-29 23 -90 44.5t-127 21.5q-98 0 -152.5 -72t-54.5 -209z" />
<glyph unicode="&#xf1;" horiz-adv-x="983" d="M152 45v901q0 20 14 31.5t33 11.5h61q39 0 49 -37l21 -92q66 76 132 108.5t146 32.5q117 0 184.5 -69.5t67.5 -186.5v-700q0 -18 -13 -31.5t-32 -13.5h-94q-18 0 -32.5 13.5t-14.5 31.5v660q0 72 -26.5 104.5t-90.5 32.5q-47 0 -87 -18.5t-68.5 -51.5t-46 -77t-17.5 -95 v-555q0 -18 -13.5 -31.5t-31.5 -13.5h-94q-18 0 -32.5 13.5t-14.5 31.5zM177 1292.5q5 14.5 20 30.5q41 43 89 65.5t120 22.5q45 0 73.5 -11t54 -25.5t53 -26t70.5 -11.5q41 0 62.5 9.5t44.5 31.5q25 25 49 -4l21 -24q14 -16 8 -33t-17 -29q-47 -47 -92 -68.5t-119 -21.5 q-45 0 -73.5 11.5t-54 25.5t-53 25.5t-71.5 11.5q-41 0 -62 -10.5t-46 -32.5q-20 -20 -49 12l-19 21q-14 16 -9 30.5z" />
<glyph unicode="&#xf2;" horiz-adv-x="937" d="M78 496q0 117 27.5 211t80 159.5t126 100t165.5 34.5q186 0 290.5 -134.5t104.5 -370.5t-104 -371t-291 -135q-186 0 -292.5 133t-106.5 373zM204 1346.5q-7 15.5 5 37.5l47 91q18 35 55 12l336 -209q16 -10 22.5 -23.5t-3.5 -33.5l-23 -43q-16 -31 -55 -15l-359 160 q-18 8 -25 23.5zM268 496q0 -186 54.5 -268.5t150.5 -82.5t150.5 82.5t54.5 268.5q0 182 -54.5 265t-150.5 83t-150.5 -83t-54.5 -265z" />
<glyph unicode="&#xf3;" horiz-adv-x="937" d="M78 496q0 117 27.5 211t80 159.5t126 100t165.5 34.5q186 0 290.5 -134.5t104.5 -370.5t-104 -371t-291 -135q-186 0 -292.5 133t-106.5 373zM268 496q0 -186 54.5 -268.5t150.5 -82.5t150.5 82.5t54.5 268.5q0 182 -54.5 265t-150.5 83t-150.5 -83t-54.5 -265z M299 1254.5q6 13.5 23 23.5l335 209q37 23 56 -12l47 -91q12 -23 5 -38t-26 -23l-358 -160q-35 -14 -53 15l-25 43q-10 20 -4 33.5z" />
<glyph unicode="&#xf4;" horiz-adv-x="937" d="M78 496q0 117 27.5 211t80 159.5t126 100t165.5 34.5q186 0 290.5 -134.5t104.5 -370.5t-104 -371t-291 -135q-186 0 -292.5 133t-106.5 373zM159 1257.5q1 14.5 15 24.5l262 207q41 31 80 0l260 -203q12 -10 14.5 -26.5t-6.5 -28.5l-26 -39q-8 -12 -26.5 -17.5 t-33.5 5.5l-229 147l-221 -145q-14 -10 -31.5 -5t-26.5 17l-24 37q-8 12 -7 26.5zM268 496q0 -186 54.5 -268.5t150.5 -82.5t150.5 82.5t54.5 268.5q0 182 -54.5 265t-150.5 83t-150.5 -83t-54.5 -265z" />
<glyph unicode="&#xf5;" horiz-adv-x="937" d="M78 496q0 117 27.5 211t80 159.5t126 100t165.5 34.5q186 0 290.5 -134.5t104.5 -370.5t-104 -371t-291 -135q-186 0 -292.5 133t-106.5 373zM151 1292.5q5 14.5 19 30.5q41 43 89 65.5t120 22.5q45 0 73.5 -11t54 -25.5t53.5 -26t71 -11.5q41 0 62.5 9.5t43.5 31.5 q25 25 49 -4l21 -24q14 -16 8 -33t-16 -29q-47 -47 -92 -68.5t-119 -21.5q-45 0 -74 11.5t-54.5 25.5t-53 25.5t-70.5 11.5q-41 0 -62.5 -10.5t-46.5 -32.5q-20 -20 -49 12l-18 21q-14 16 -9 30.5zM268 496q0 -186 54.5 -268.5t150.5 -82.5t150.5 82.5t54.5 268.5 q0 182 -54.5 265t-150.5 83t-150.5 -83t-54.5 -265z" />
<glyph unicode="&#xf6;" horiz-adv-x="937" d="M78 496q0 117 27.5 211t80 159.5t126 100t165.5 34.5q186 0 290.5 -134.5t104.5 -370.5t-104 -371t-291 -135q-186 0 -292.5 133t-106.5 373zM186 1280q0 47 33 76.5t74 29.5q47 0 77.5 -29.5t30.5 -76.5t-30.5 -79t-77.5 -32q-43 0 -75 32t-32 79zM268 496 q0 -186 54.5 -268.5t150.5 -82.5t150.5 82.5t54.5 268.5q0 182 -54.5 265t-150.5 83t-150.5 -83t-54.5 -265zM551 1280q0 47 31.5 76.5t79.5 29.5q41 0 73.5 -29.5t32.5 -76.5t-33 -79t-73 -32q-47 0 -79 32t-32 79z" />
<glyph unicode="&#xf7;" horiz-adv-x="1501" d="M23 889v55q0 18 11 31.5t32 13.5h110l2 164q0 82 22.5 137.5t60.5 89t87 48t105 14.5q47 0 100 -10.5t82 -22.5q18 -8 23.5 -23.5t0.5 -33.5l-20 -72q-10 -39 -49 -25q-23 8 -54.5 15.5t-66.5 7.5q-18 0 -36.5 -6t-35 -21.5t-27 -42t-10.5 -67.5v-152h332l-2 174 q0 86 23.5 143.5t68.5 92.5t106.5 50t135.5 15q33 0 72 -5t75.5 -13t68.5 -17.5t50 -17.5t23.5 -24.5t-0.5 -32.5l-29 -80q-14 -35 -51 -23q-14 4 -38 12.5t-51.5 15.5t-57 12t-56.5 5q-68 0 -112 -27.5t-44 -115.5v-164h467q45 0 45 -43v-901q0 -18 -13 -31.5t-32 -13.5 h-92q-18 0 -31.5 13.5t-13.5 31.5v799h-330v-799q0 -18 -13 -31.5t-32 -13.5h-92q-16 0 -31.5 13.5t-15.5 31.5v799h-332l2 -799q0 -18 -14 -31.5t-33 -13.5h-90q-16 0 -31.5 13.5t-15.5 31.5v799h-110q-20 0 -31.5 13t-11.5 32z" />
<glyph unicode="&#xf8;" horiz-adv-x="952" d="M78 496q0 117 27.5 211t80 159.5t126 100t165.5 34.5q35 0 65.5 -5t59.5 -15l33 76q8 18 26.5 24t34.5 -2l43 -18q16 -8 24.5 -24.5t0.5 -35.5l-39 -92q72 -66 109.5 -169t37.5 -244q0 -236 -104 -371t-291 -135q-76 0 -135 20l-33 -78q-8 -18 -25.5 -24t-33.5 2l-43 18 q-16 8 -25.5 24.5t-1.5 35.5l41 96q-70 66 -106.5 169t-36.5 243zM270 496q0 -152 37 -234l240 567q-31 14 -74 15q-96 0 -149.5 -83t-53.5 -265zM397 158q31 -14 76 -15q96 0 150.5 83.5t54.5 269.5q0 145 -39 233z" />
<glyph unicode="&#xf9;" horiz-adv-x="972" d="M137 248v698q0 20 14.5 31.5t32.5 11.5h95q18 0 32.5 -11t14.5 -32v-670q0 -66 30.5 -98.5t85.5 -32.5q100 0 165 74t65 221v506q0 20 13 31.5t32 11.5h96q18 0 31.5 -11t13.5 -32v-901q0 -18 -13.5 -31.5t-31.5 -13.5h-63q-35 0 -45 39l-25 96l-48.5 -48.5t-59 -47 t-80 -35.5t-107.5 -14q-113 0 -180.5 65.5t-67.5 192.5zM202 1346.5q-7 15.5 5 37.5l47 91q18 35 55 12l336 -209q16 -10 22.5 -23.5t-3.5 -33.5l-23 -43q-16 -31 -55 -15l-359 160q-18 8 -25 23.5z" />
<glyph unicode="&#xfa;" horiz-adv-x="972" d="M137 248v698q0 20 14.5 31.5t32.5 11.5h95q18 0 32.5 -11t14.5 -32v-670q0 -66 30.5 -98.5t85.5 -32.5q100 0 165 74t65 221v506q0 20 13 31.5t32 11.5h96q18 0 31.5 -11t13.5 -32v-901q0 -18 -13.5 -31.5t-31.5 -13.5h-63q-35 0 -45 39l-25 96l-48.5 -48.5t-59 -47 t-80 -35.5t-107.5 -14q-113 0 -180.5 65.5t-67.5 192.5zM287 1254.5q6 13.5 22 23.5l336 209q37 23 55 -12l48 -91q12 -23 4.5 -38t-25.5 -23l-358 -160q-35 -14 -54 15l-24 43q-10 20 -4 33.5z" />
<glyph unicode="&#xfb;" horiz-adv-x="972" d="M137 248v698q0 20 14.5 31.5t32.5 11.5h95q18 0 32.5 -11t14.5 -32v-670q0 -66 30.5 -98.5t85.5 -32.5q100 0 165 74t65 221v506q0 20 13 31.5t32 11.5h96q18 0 31.5 -11t13.5 -32v-901q0 -18 -13.5 -31.5t-31.5 -13.5h-63q-35 0 -45 39l-25 96l-48.5 -48.5t-59 -47 t-80 -35.5t-107.5 -14q-113 0 -180.5 65.5t-67.5 192.5zM169 1257.5q1 14.5 15 24.5l262 207q41 31 80 0l260 -203q12 -10 14.5 -26.5t-5.5 -28.5l-27 -39q-8 -12 -26.5 -17.5t-32.5 5.5l-230 147l-221 -145q-14 -10 -31.5 -5t-25.5 17l-25 37q-8 12 -7 26.5z" />
<glyph unicode="&#xfc;" horiz-adv-x="972" d="M137 248v698q0 20 14.5 31.5t32.5 11.5h95q18 0 32.5 -11t14.5 -32v-670q0 -66 30.5 -98.5t85.5 -32.5q100 0 165 74t65 221v506q0 20 13 31.5t32 11.5h96q18 0 31.5 -11t13.5 -32v-901q0 -18 -13.5 -31.5t-31.5 -13.5h-63q-35 0 -45 39l-25 96l-48.5 -48.5t-59 -47 t-80 -35.5t-107.5 -14q-113 0 -180.5 65.5t-67.5 192.5zM203 1280q0 47 32.5 76.5t73.5 29.5q47 0 78 -29.5t31 -76.5t-31 -79t-78 -32q-43 0 -74.5 32t-31.5 79zM567 1280q0 47 32 76.5t79 29.5q41 0 73.5 -29.5t32.5 -76.5t-32.5 -79t-73.5 -32q-47 0 -79 32t-32 79z" />
<glyph unicode="&#xfd;" horiz-adv-x="882" d="M51 944q-6 20 6.5 32.5t30.5 12.5h115q41 0 53 -43l186 -661q8 -27 12.5 -55.5t8.5 -57.5q4 27 13 63.5t20 77.5l159 635q10 41 52 41h106q18 0 30.5 -13t6.5 -34l-291 -1063q-55 -195 -213 -270l-43 -21q-16 -8 -32.5 -2t-24.5 23l-35 69q-8 14 -1 34t23 28l29 14 q59 29 89 77t48 116q2 2 7.5 21.5t11.5 42t11 42t5 23.5h-65q-39 0 -54 41zM285 1254.5q6 13.5 22 23.5l336 209q37 23 55 -12l47 -91q12 -23 5 -38t-25 -23l-358 -160q-35 -14 -54 15l-24 43q-10 20 -4 33.5z" />
<glyph unicode="&#xfe;" horiz-adv-x="952" d="M150 -360v1767q0 20 13 32.5t32 12.5h92q18 0 31.5 -12.5t13.5 -32.5v-543q39 66 94 101.5t133 35.5q66 0 126 -28.5t99 -77.5q57 -72 81 -164t24 -237q0 -133 -22.5 -228.5t-64.5 -157t-102.5 -90t-136.5 -28.5q-82 0 -137 32.5t-94 90.5v-473q0 -20 -13.5 -31.5 t-31.5 -11.5h-92q-18 0 -31.5 11t-13.5 32zM328 489q0 -178 46 -261t138 -83q90 0 134 80.5t44 268.5q0 106 -12 171.5t-35 104.5q-43 76 -133 76q-88 0 -135 -89t-47 -268z" />
<glyph unicode="&#xff;" horiz-adv-x="878" d="M51 944q-6 20 6.5 32.5t30.5 12.5h115q41 0 53 -43l186 -661q8 -27 12.5 -55.5t8.5 -57.5q4 27 13 63.5t20 77.5l159 635q10 41 52 41h106q18 0 30.5 -13t6.5 -34l-291 -1063q-55 -195 -213 -270l-43 -21q-16 -8 -32.5 -2t-24.5 23l-35 69q-8 14 -1 34t23 28l29 14 q59 29 89 77t48 116q2 2 7.5 21.5t11.5 42t11 42t5 23.5h-65q-39 0 -54 41zM172 1280q0 47 33 76.5t74 29.5q47 0 77.5 -29.5t30.5 -76.5t-30.5 -79t-77.5 -32q-43 0 -75 32t-32 79zM537 1280q0 47 31.5 76.5t78.5 29.5q41 0 74 -29.5t33 -76.5t-33 -79t-74 -32 q-47 0 -78.5 32t-31.5 79z" />
<glyph unicode="&#x152;" horiz-adv-x="1525" d="M117 682q0 362 116.5 533t358.5 171q43 0 68.5 -5t62.5 -5h668q18 0 31.5 -12t13.5 -33v-80q0 -20 -12.5 -33.5t-32.5 -13.5h-486v-393h436q20 0 34 -13.5t14 -31.5v-74q0 -20 -13.5 -33.5t-34.5 -13.5h-436v-469h500q20 0 34.5 -12t14.5 -33v-86q0 -18 -14.5 -31.5 t-32.5 -13.5h-684q-37 0 -64.5 -6t-66.5 -6q-238 0 -356.5 165.5t-118.5 528.5zM322 684q0 -139 13 -240.5t45 -168t83 -99.5t127 -33q35 0 68.5 5.5t58.5 17.5v1048q-27 12 -59.5 16.5t-67.5 4.5q-94 0 -148.5 -48t-81 -126t-32.5 -177.5t-6 -199.5z" />
<glyph unicode="&#x153;" horiz-adv-x="1470" d="M76 496q0 117 27.5 211t80 159.5t126 100t165.5 34.5t167 -36.5t124 -110.5q47 72 118.5 109.5t159.5 37.5q78 0 145.5 -26.5t118 -86t79 -155.5t28.5 -237q0 -18 -12 -32.5t-31 -14.5h-510q6 -145 60.5 -222t189.5 -77q59 0 104.5 10t90.5 24q23 8 36 -2t19 -26l22 -66 q12 -39 -28 -55q-49 -23 -104.5 -35t-147.5 -12q-111 0 -196 36.5t-138 114.5q-100 -152 -295 -151q-186 0 -292.5 134t-106.5 374zM268 496q0 -186 53.5 -271.5t149.5 -85.5t149.5 85.5t53.5 271.5q0 182 -53.5 266t-149.5 84t-149.5 -84t-53.5 -266zM862 590h363 q-2 49 -12.5 97t-31 85t-53 59.5t-79.5 22.5q-29 0 -58.5 -11.5t-55.5 -40t-45.5 -80.5t-27.5 -132z" />
<glyph unicode="&#x178;" horiz-adv-x="1001" d="M47 1329q-8 16 0 31.5t31 15.5h145q33 0 47 -30l199 -488q25 -61 36 -111.5t19 -97.5q8 47 19.5 95.5t36.5 113.5l188 485q14 33 53 33h131q18 0 26.5 -13t-1.5 -36l-367 -799v-483q0 -18 -14 -31.5t-33 -13.5h-96q-18 0 -32.5 13.5t-14.5 31.5v481zM233 1608 q0 47 33 76.5t74 29.5q47 0 78 -29.5t31 -76.5t-31 -79t-78 -32q-43 0 -75 32t-32 79zM598 1608q0 47 32 76.5t79 29.5q41 0 73.5 -29.5t32.5 -76.5t-32.5 -79t-73.5 -32q-47 0 -79 32t-32 79z" />
<glyph unicode="&#x2c6;" horiz-adv-x="833" d="M105.5 1257.5q0.5 14.5 15.5 24.5l262 207q41 31 80 0l260 -203q12 -10 14 -26.5t-6 -28.5l-26 -39q-8 -12 -27 -17.5t-33 5.5l-229 147l-221 -145q-14 -10 -32 -5t-26 17l-24 37q-8 12 -7.5 26.5z" />
<glyph unicode="&#x2dc;" horiz-adv-x="825" d="M85 1292.5q5 14.5 19 30.5q41 43 89.5 65.5t119.5 22.5q45 0 74 -11t54.5 -25.5t53 -26t70.5 -11.5q41 0 62.5 9.5t44.5 31.5q25 25 49 -4l20 -24q14 -16 8 -33t-16 -29q-47 -47 -92 -68.5t-119 -21.5q-45 0 -73.5 11.5t-54 25.5t-53.5 25.5t-71 11.5q-41 0 -62.5 -10.5 t-45.5 -32.5q-20 -20 -49 12l-19 21q-14 16 -9 30.5z" />
<glyph unicode="&#x2000;" horiz-adv-x="916" />
<glyph unicode="&#x2001;" horiz-adv-x="1832" />
<glyph unicode="&#x2002;" horiz-adv-x="916" />
<glyph unicode="&#x2003;" horiz-adv-x="1832" />
<glyph unicode="&#x2004;" horiz-adv-x="610" />
<glyph unicode="&#x2005;" horiz-adv-x="458" />
<glyph unicode="&#x2006;" horiz-adv-x="305" />
<glyph unicode="&#x2007;" horiz-adv-x="305" />
<glyph unicode="&#x2008;" horiz-adv-x="229" />
<glyph unicode="&#x2009;" horiz-adv-x="366" />
<glyph unicode="&#x200a;" horiz-adv-x="101" />
<glyph unicode="&#x2010;" horiz-adv-x="643" d="M104 498v77q0 23 13.5 35.5t34.5 12.5h354q47 0 47 -48v-77q0 -45 -47 -45h-354q-20 0 -34 12t-14 33z" />
<glyph unicode="&#x2011;" horiz-adv-x="643" d="M104 498v77q0 23 13.5 35.5t34.5 12.5h354q47 0 47 -48v-77q0 -45 -47 -45h-354q-20 0 -34 12t-14 33z" />
<glyph unicode="&#x2012;" horiz-adv-x="643" d="M104 498v77q0 23 13.5 35.5t34.5 12.5h354q47 0 47 -48v-77q0 -45 -47 -45h-354q-20 0 -34 12t-14 33z" />
<glyph unicode="&#x2013;" horiz-adv-x="1003" d="M0 545v51q0 47 45 47h932q47 0 47 -47v-51q0 -20 -12.5 -33.5t-34.5 -13.5h-932q-20 0 -32.5 13t-12.5 34z" />
<glyph unicode="&#x2014;" horiz-adv-x="2007" d="M0 545v51q0 47 45 47h1956q47 0 47 -47v-51q0 -20 -12.5 -33.5t-34.5 -13.5h-1956q-20 0 -32.5 13t-12.5 34z" />
<glyph unicode="&#x2018;" horiz-adv-x="391" d="M70 1190q0 39 12 80t33.5 81t49.5 75.5t58 64.5q16 14 30.5 18t31.5 -8l34 -31q16 -12 19.5 -26t-10.5 -31q-23 -27 -35 -44t-21 -34q-10 -25 -6 -35t17 -18q23 -14 40 -42.5t17 -65.5q0 -59 -40 -97.5t-93 -38.5q-59 0 -98 41t-39 111z" />
<glyph unicode="&#x2019;" horiz-adv-x="391" d="M59 1358q0 59 41 97t95 38q59 0 98 -41t39 -111q0 -39 -12.5 -79.5t-34 -80.5t-49 -76t-58.5 -65q-35 -31 -61 -10l-37 31q-33 27 -6 57q23 27 34 43.5t19 32.5q10 25 7 36t-15 19q-23 14 -41.5 43t-18.5 66z" />
<glyph unicode="&#x201a;" horiz-adv-x="391" d="M59 123q0 59 41 98t95 39q59 0 98 -40.5t39 -110.5q0 -39 -12.5 -80t-34 -81t-49 -76t-58.5 -65q-16 -14 -30.5 -18t-30.5 8l-37 29q-33 27 -6 57q39 49 53 78q10 25 7 36t-15 19q-23 14 -41.5 42t-18.5 65z" />
<glyph unicode="&#x201c;" horiz-adv-x="751" d="M70 1190q0 39 12 80t33.5 81t49.5 75.5t58 64.5q16 14 30.5 18t31.5 -8l34 -31q16 -12 19.5 -26t-10.5 -31q-23 -27 -35 -44t-21 -34q-10 -25 -6 -35t17 -18q23 -14 40 -42.5t17 -65.5q0 -59 -40 -97.5t-93 -38.5q-59 0 -98 41t-39 111zM438 1190q0 39 12.5 80t33 81 t48 75.5t58.5 64.5q16 14 31.5 18t31.5 -8l35 -31q16 -12 19.5 -26t-11.5 -31q-23 -27 -35 -44t-20 -34q-10 -25 -6 -35t16 -18q23 -14 40.5 -42.5t17.5 -65.5q0 -59 -41 -97.5t-95 -38.5q-59 0 -97 41t-38 111z" />
<glyph unicode="&#x201d;" horiz-adv-x="751" d="M59 1358q0 59 41 97t95 38q59 0 98 -41t39 -111q0 -39 -12.5 -79.5t-34 -80.5t-49 -76t-58.5 -65q-35 -31 -61 -10l-37 31q-33 27 -6 57q23 27 34 43.5t19 32.5q10 25 7 36t-15 19q-23 14 -41.5 43t-18.5 66zM428 1358q0 59 41 97t94 38q59 0 98 -41t39 -111 q0 -39 -12 -79.5t-33.5 -80.5t-49 -76t-58.5 -65q-35 -31 -62 -10l-36 31q-33 27 -7 57q23 27 34 43.5t20 32.5q10 25 7 36t-16 19q-23 14 -41 43t-18 66z" />
<glyph unicode="&#x201e;" horiz-adv-x="751" d="M59 125q0 59 41 97t95 38q59 0 98 -40.5t39 -110.5q0 -39 -12.5 -80t-34 -81t-49 -76t-58.5 -65q-16 -14 -30.5 -18t-30.5 8l-37 31q-33 27 -6 57q23 27 34 43.5t19 32.5q10 25 7 36t-15 19q-23 14 -41.5 43t-18.5 66zM428 125q0 59 41 97t94 38q59 0 98 -40.5t39 -110.5 q0 -39 -12 -80t-33.5 -81t-49 -76t-58.5 -65q-16 -14 -30.5 -18t-31.5 8l-36 31q-33 27 -7 57q23 27 34 43.5t20 32.5q10 25 7 36t-16 19q-23 14 -41 43t-18 66z" />
<glyph unicode="&#x2022;" horiz-adv-x="933" d="M199 651q0 57 21.5 108.5t59 90.5t89 61.5t108.5 22.5t107.5 -22.5t88.5 -61.5t59.5 -90.5t21.5 -108.5t-21.5 -108t-59.5 -90t-88 -61.5t-108 -22.5q-57 0 -108.5 22.5t-89 61.5t-59 90t-21.5 108z" />
<glyph unicode="&#x2026;" horiz-adv-x="1323" d="M59 125q0 57 39 96t97 39q57 0 96 -39t39 -96t-39 -96t-96 -39t-96.5 39t-39.5 96zM539 125q0 57 38.5 96t96.5 39q57 0 97 -39t40 -96t-40 -96t-97 -39t-96 39t-39 96zM1018 125q0 57 40 96t97 39t96 -39t39 -96t-39 -96t-96 -39t-97 39t-40 96z" />
<glyph unicode="&#x202f;" horiz-adv-x="366" />
<glyph unicode="&#x2039;" horiz-adv-x="641" d="M119 467q-16 27 0 55l260 389q8 12 24.5 16.5t26.5 -3.5l76 -50q12 -8 16 -24t-6 -29l-217 -325l217 -324q10 -14 7 -30.5t-13 -22.5l-80 -51q-12 -8 -27.5 -3t-23.5 15z" />
<glyph unicode="&#x203a;" horiz-adv-x="641" d="M131 849.5q4 16.5 16 24.5l76 50q10 8 26.5 4t24.5 -17l261 -389q16 -29 0 -55l-261 -387q-8 -10 -23 -15.5t-28 3.5l-78 51q-10 6 -13 22.5t7 30.5l217 324l-219 325q-10 12 -6 28.5z" />
<glyph unicode="&#x205f;" horiz-adv-x="458" />
<glyph unicode="&#x2122;" horiz-adv-x="1466" d="M33 1358v59q0 35 33 35h456q33 0 33 -35v-59q0 -33 -33 -33h-157v-588q0 -14 -10.5 -23t-24.5 -9h-72q-33 0 -33 32v588h-159q-33 0 -33 33zM608 739l70 678q4 35 37 35h114q10 0 20.5 -9t14.5 -22l109 -415q6 -23 9 -51.5t5 -51.5q4 29 6 58.5t6 44.5l109 415 q4 12 14.5 21.5t22.5 9.5h119q31 0 34 -35l72 -680q0 -33 -27 -32h-88q-27 0 -30 32l-29 475l-6 103q-4 -27 -7 -53.5t-9 -49.5l-109 -399q-8 -29 -33 -29h-98q-27 0 -35 29l-104 399q-4 18 -9.5 52t-9.5 55q0 -25 -1 -55.5t-3 -51.5l-29 -475q-4 -33 -28 -32h-78 q-12 0 -21.5 9t-7.5 25z" />
<glyph unicode="&#x25fc;" horiz-adv-x="993" d="M0 0v993h993v-993h-993z" />
</font>
</defs>
</svg>
