<?xml version="1.0" standalone="no"?>
<!DOCTYPE svg PUBLIC "-//W3C//DTD SVG 1.1//EN" "http://www.w3.org/Graphics/SVG/1.1/DTD/svg11.dtd" >
<svg xmlns="http://www.w3.org/2000/svg">
<metadata></metadata>
<defs>
<font id="infomedium" horiz-adv-x="960" >
<font-face units-per-em="2048" ascent="1638" descent="-410" />
<missing-glyph horiz-adv-x="401" />
<glyph unicode="&#xfb01;" horiz-adv-x="1009" d="M12 877v67q0 20 13.5 33.5t33.5 13.5h109v160q0 168 90 241.5t256 73.5q35 0 76 -5t79 -13t71.5 -17.5t52.5 -17.5q39 -18 24 -59l-31 -97q-12 -35 -55 -22q-12 4 -35.5 11t-52.5 14.5t-60.5 12.5t-58.5 5q-70 0 -108.5 -28.5t-38.5 -108.5v-150h477q23 0 36 -13t13 -34 v-897q0 -20 -14.5 -33.5t-34.5 -13.5h-111q-20 0 -34.5 13.5t-14.5 33.5v780h-317v-780q0 -20 -13.5 -33.5t-33.5 -13.5h-113q-18 0 -33.5 13.5t-15.5 33.5v780h-109q-20 0 -33.5 14.5t-13.5 35.5z" />
<glyph unicode="&#xfb02;" horiz-adv-x="1071" d="M12 877v67q0 20 13.5 33.5t33.5 13.5h113l-2 174q-2 152 87 227.5t259 75.5q49 0 99.5 -8t95.5 -18t81.5 -22.5t61.5 -20.5q18 -6 33.5 -17.5t15.5 -33.5v-1094q0 -41 8.5 -60.5t38.5 -19.5q14 0 30.5 3t33.5 7q47 10 53 -32l14 -91q6 -37 -28 -49q-61 -25 -150 -24 q-113 0 -162 55t-49 156v1048q-29 10 -79 21.5t-97 11.5q-63 0 -99 -24.5t-36 -98.5v-166h149q20 0 35 -13t15 -34v-67q0 -20 -14.5 -35t-35.5 -15h-149v-780q0 -20 -15.5 -33.5t-35.5 -13.5h-113q-18 0 -33.5 13.5t-15.5 33.5l2 780h-111q-20 0 -33.5 14.5t-13.5 35.5z" />
<glyph horiz-adv-x="0" />
<glyph unicode="&#xd;" horiz-adv-x="401" />
<glyph unicode=" "  horiz-adv-x="401" />
<glyph unicode="&#x09;" horiz-adv-x="401" />
<glyph unicode="&#xa0;" horiz-adv-x="401" />
<glyph unicode="!" horiz-adv-x="600" d="M162 133q0 59 42 102.5t101 43.5t102.5 -43.5t43.5 -102.5t-43 -102t-103 -43q-59 0 -101 43t-42 102zM190 1370q0 23 13.5 36t36.5 13h133q23 0 36 -13t13 -36l-23 -885q0 -27 -14 -40t-35 -13h-88q-20 0 -33.5 15.5t-13.5 37.5z" />
<glyph unicode="&#x22;" horiz-adv-x="780" d="M119 1405q-2 20 14.5 33.5t34.5 13.5h111q20 0 34.5 -13.5t12.5 -33.5l-21 -350q-2 -20 -14 -34.5t-33 -14.5h-72q-18 0 -31.5 14t-15.5 35zM459 1405q-2 20 13 33.5t36 13.5h110q20 0 35 -13.5t13 -33.5l-21 -350q-2 -20 -14.5 -34.5t-32.5 -14.5h-72q-20 0 -32.5 14 t-14.5 35z" />
<glyph unicode="#" horiz-adv-x="1210" d="M80 473l8 62q4 18 15.5 32.5t31.5 14.5h172l41 272h-162q-20 0 -34.5 14.5t-10.5 34.5l9 60q4 20 16 33.5t33 13.5h172l45 323q4 23 18.5 35t34.5 12h76q18 0 30.5 -13t8.5 -34l-45 -323h243l45 323q4 23 19.5 35t36.5 12h73q18 0 30.5 -13t8.5 -34l-45 -323h160 q20 0 34.5 -12.5t10.5 -32.5l-10 -62q-4 -20 -15.5 -34.5t-31.5 -14.5h-168l-41 -272h160q20 0 34.5 -13.5t10.5 -31.5l-11 -64q-4 -18 -15 -32.5t-32 -14.5h-170l-55 -379q-4 -20 -19.5 -33.5t-35.5 -13.5h-72q-20 0 -32.5 13.5t-8.5 33.5l55 379h-243l-56 -379 q-4 -20 -20.5 -33.5t-36.5 -13.5h-70q-20 0 -33.5 13.5t-9.5 33.5l56 379h-162q-20 0 -33.5 14.5t-9.5 32.5zM475 582h246l39 272h-244z" />
<glyph unicode="$" horiz-adv-x="1105" d="M156 104l22 107q4 18 22.5 27.5t39.5 1.5q47 -16 114.5 -34t153.5 -22v426q-66 20 -127.5 47t-110.5 69t-78.5 102.5t-29.5 148.5q0 147 90 245.5t256 123.5v139q0 20 14.5 33.5t34.5 13.5h61q20 0 35 -13.5t15 -33.5v-135q72 -6 135 -17.5t110 -27.5q16 -6 23.5 -21.5 t3.5 -36.5l-20 -94q-4 -20 -20.5 -28.5t-37.5 -2.5q-47 14 -93 24.5t-101 14.5v-393q66 -23 129 -52.5t113.5 -73.5t81 -108.5t30.5 -156.5q0 -68 -20.5 -130.5t-63.5 -112.5t-110.5 -86t-159.5 -50v-168q0 -20 -14.5 -34.5t-35.5 -14.5h-61q-20 0 -34.5 14.5t-14.5 34.5 v160q-92 2 -176 17.5t-148 39.5q-20 8 -26 23.5t-2 33.5zM371 983q0 -63 37.5 -103t99.5 -65v342q-72 -14 -104.5 -58t-32.5 -116zM668 195q66 18 103.5 62t37.5 116q0 76 -39 116.5t-102 67.5v-362z" />
<glyph unicode="%" horiz-adv-x="1875" d="M123 936q0 199 90 307.5t248 108.5t240.5 -108.5t82.5 -307.5t-83 -311.5t-240 -112.5q-158 0 -248 112.5t-90 311.5zM315 938q0 -129 35 -199.5t107 -70.5t102.5 72.5t30.5 197.5q0 117 -30 188.5t-103 71.5q-72 0 -107 -71.5t-35 -188.5zM664 -41l411 1423q12 45 58 45 h79q27 0 36 -16t1 -41l-411 -1425q-12 -43 -52 -43h-86q-29 0 -36 17.5t0 39.5zM1130 412q0 199 90.5 307t247.5 108q158 0 241 -108t83 -307t-83 -311.5t-241 -112.5t-248 112.5t-90 311.5zM1325 414q0 -129 34 -199t105 -70q72 0 103.5 72t31.5 197q0 117 -29.5 189.5 t-103.5 72.5q-72 0 -106.5 -73t-34.5 -189z" />
<glyph unicode="&#x26;" horiz-adv-x="1181" d="M84 369q0 117 65.5 212t159.5 150q-31 35 -57.5 70t-47 73.5t-32.5 82.5t-12 98q0 70 24.5 131t70.5 107t110.5 73t146.5 27q74 0 136.5 -23.5t107.5 -65.5t69.5 -101.5t24.5 -131.5q0 -61 -20.5 -113.5t-54.5 -96.5t-78 -81t-93 -69l240 -273q10 39 14 82t4 84v55 q0 20 13.5 35t33.5 15h95q23 0 36 -14.5t13 -35.5v-53q0 -182 -72 -325l137 -158q14 -16 13 -34.5t-17 -33.5l-78 -71q-16 -14 -36.5 -13.5t-32.5 15.5l-115 133q-59 -57 -142 -94t-206 -37q-102 0 -181 28.5t-132.5 79.5t-80 121t-26.5 152zM315 379q0 -102 60.5 -156.5 t148.5 -54.5q70 0 123 24.5t88 59.5l-309 350q-49 -39 -80 -98.5t-31 -124.5zM369 1069q0 -37 8 -64.5t23.5 -53t40 -53.5t57.5 -64q59 43 100 95t41 136q0 78 -32 121t-101 43q-53 0 -95 -37t-42 -123z" />
<glyph unicode="'" horiz-adv-x="432" d="M117 1405q-2 20 13 33.5t36 13.5h110q20 0 35 -13.5t13 -33.5l-21 -350q-2 -20 -14.5 -34.5t-32.5 -14.5h-72q-20 0 -32.5 14t-14.5 35z" />
<glyph unicode="(" horiz-adv-x="567" d="M121 637q0 113 16.5 228.5t45 225t67.5 209t86 183.5q10 20 27.5 24t33.5 -4l64 -26q16 -8 21 -24.5t-1 -35.5q-35 -100 -61.5 -190t-44 -182.5t-25.5 -190.5t-8 -217t8 -219.5t25.5 -194.5t44 -186.5t61.5 -192.5q6 -18 1 -34.5t-21 -24.5l-64 -27q-39 -16 -61 21 q-45 82 -84 183t-68.5 214t-46 229.5t-16.5 231.5z" />
<glyph unicode=")" horiz-adv-x="567" d="M97 1451.5q5 16.5 22 25.5l61 26q16 8 33.5 4t28.5 -24q47 -84 87 -183.5t68.5 -209t45 -225t16.5 -228.5q0 -115 -17.5 -231.5t-46 -229.5t-68.5 -214t-85 -183q-23 -37 -62 -21l-61 27q-16 8 -21.5 24.5t0.5 34.5q35 100 61.5 192.5t44 186.5t26 194.5t8.5 219.5 t-8.5 217t-26 190.5t-44 182.5t-61.5 190q-6 18 -1 34.5z" />
<glyph unicode="*" horiz-adv-x="897" d="M76 1153l18 59q6 20 24.5 28.5t39.5 2.5l221 -72v234q0 20 13.5 33.5t33.5 13.5h63q20 0 34 -13.5t14 -33.5v-234l223 72q20 6 37.5 -2t23.5 -27l19 -59q6 -18 -3.5 -36.5t-27.5 -24.5l-223 -72l139 -191q12 -16 10 -34.5t-18 -30.5l-51 -37q-16 -12 -37 -9t-33 19 l-137 189l-137 -191q-12 -16 -32 -19t-36 9l-51 37q-16 12 -19.5 31.5t9.5 35.5l137 189l-224 72q-20 6 -28 24.5t-2 36.5z" />
<glyph unicode="+" horiz-adv-x="1042" d="M94 479v72q0 23 13.5 37t35.5 14h295v303q0 23 14.5 36t36.5 13h78q23 0 36 -13t13 -36v-303h295q23 0 36.5 -14.5t13.5 -36.5v-72q0 -23 -13.5 -36t-36.5 -13h-295v-313q0 -23 -13 -36t-36 -13h-78q-23 0 -37 13t-14 36v313h-295q-23 0 -36 13.5t-13 35.5z" />
<glyph unicode="," horiz-adv-x="407" d="M55 133q0 61 42 103.5t102 42.5q66 0 105.5 -45t39.5 -117q0 -78 -45 -160t-117 -147q-16 -14 -32.5 -20.5t-32.5 7.5l-45 39q-33 31 -9 62q23 25 34.5 41t19.5 32q10 23 7 33t-15 21q-23 16 -38.5 44.5t-15.5 63.5z" />
<glyph unicode="-" horiz-adv-x="636" d="M94 494v90q0 23 13.5 36t35.5 13h363q23 0 37 -13.5t14 -35.5v-90q0 -23 -14.5 -36.5t-36.5 -13.5h-363q-23 0 -36 13.5t-13 36.5z" />
<glyph unicode="." horiz-adv-x="391" d="M55 133q0 59 42 102.5t102 43.5q59 0 102 -43.5t43 -102.5t-43 -102t-102 -43t-101.5 43t-42.5 102z" />
<glyph unicode="/" horiz-adv-x="634" d="M45 -135l449 1550q12 43 59 43h80q23 0 32 -16.5t3 -38.5l-449 -1553q-12 -43 -57 -43h-82q-23 0 -33 16.5t-2 41.5z" />
<glyph unicode="0" d="M82 684q0 158 18.5 288t64.5 224t124 145.5t196 51.5q119 0 199 -53.5t128 -147.5t67.5 -224t19.5 -284q0 -147 -18.5 -274t-64.5 -221.5t-127 -147.5t-204 -53q-121 0 -199.5 51t-123.5 143t-62.5 220t-17.5 282zM299 684q0 -109 6 -204t26.5 -165.5t57.5 -111.5t98 -41 q63 0 102.5 42t60 112.5t26.5 166t6 201.5q0 113 -7 211t-28.5 171t-59.5 114t-100 41q-61 0 -98 -44t-56.5 -118t-26.5 -171t-7 -204z" />
<glyph unicode="1" d="M171 1175.5q7 18.5 24 28.5l350 180q31 16 60.5 5t29.5 -52v-1163h102q20 0 33.5 -13.5t13.5 -33.5v-78q0 -20 -13 -34.5t-34 -14.5h-454q-20 0 -33.5 14.5t-13.5 34.5v78q0 20 13 33.5t34 13.5h141v942l-141 -78q-16 -10 -35 -5t-29 24l-45 84q-10 16 -3 34.5z" />
<glyph unicode="2" d="M94 1266.5q8 17.5 27 27.5q72 41 149.5 70t161.5 29q96 0 173 -29t131.5 -80t83 -124t28.5 -161q0 -141 -50 -250.5t-134 -220.5q-66 -88 -143 -172t-154 -166h424q20 0 34.5 -14t14.5 -35v-92q0 -20 -14.5 -34.5t-34.5 -14.5h-625q-20 0 -34.5 14.5t-14.5 34.5v80 q0 23 5 37t19 31q84 100 173 198.5t161 196.5t115 187t43 204q0 102 -57.5 159.5t-143.5 57.5q-59 0 -115.5 -25.5t-107.5 -56.5q-23 -14 -39 -4t-27 29l-47 88q-10 18 -2 35.5z" />
<glyph unicode="3" d="M109 115l36 104q8 20 19.5 30.5t34.5 0.5q18 -6 44.5 -16.5t57.5 -19.5t64.5 -16.5t66.5 -7.5q98 0 153.5 62.5t55.5 163.5q0 102 -79 162.5t-220 60.5q-31 0 -41 13.5t-10 35.5v100q0 23 11 36.5t40 13.5q51 0 97 14t80 40t53.5 60.5t19.5 75.5q0 84 -47 129t-125 45 q-57 0 -100.5 -16.5t-90.5 -42.5q-45 -27 -67 14l-45 88q-23 45 22 70q66 35 142.5 56.5t148.5 21.5q84 0 153.5 -26t119 -74t76 -113.5t26.5 -145.5q0 -37 -10.5 -76.5t-33 -77.5t-61 -72t-94.5 -58q123 -31 188.5 -119t65.5 -223q0 -197 -115.5 -308.5t-312.5 -111.5 q-113 0 -190.5 25.5t-112.5 41.5q-35 18 -20 60z" />
<glyph unicode="4" d="M86 358v107q0 16 4 29.5t10 29.5l283 826q12 37 57 36h158q23 0 30 -15t-1 -36l-314 -831h254l33 370q2 20 15.5 35t33.5 15h82q20 0 34.5 -14.5t14.5 -35.5v-370h97q20 0 34.5 -14.5t14.5 -34.5v-97q0 -20 -14.5 -34.5t-34.5 -14.5h-97v-262q0 -20 -14 -33.5t-35 -13.5 h-117q-20 0 -34.5 13.5t-14.5 33.5v262h-432q-20 0 -33.5 14.5t-13.5 34.5z" />
<glyph unicode="5" d="M131 117l39 106q14 41 51 27q14 -6 40 -16.5t56.5 -19.5t63.5 -16.5t63 -7.5q66 0 108 24t66.5 64.5t35 95t10.5 118.5q0 121 -45.5 183t-118.5 62q-53 0 -96.5 -26.5t-77.5 -57.5q-14 -14 -30.5 -17t-41.5 9l-74 37q-16 10 -22 20.5t-6 36.5l16 600q0 18 15.5 32.5 t35.5 14.5h539q20 0 34.5 -14t14.5 -35v-94q0 -20 -14.5 -34.5t-34.5 -14.5h-389l-15 -344q41 41 88 58.5t103 17.5q72 0 132 -27t105 -81t70 -135t25 -187q0 -258 -115 -383t-332 -125q-92 0 -161.5 24.5t-108.5 40.5q-18 8 -28.5 23.5t-0.5 40.5z" />
<glyph unicode="6" d="M106 569q0 217 45.5 399.5t149.5 295.5q53 59 130 94t171 35q53 0 93 -7.5t85 -19.5q23 -6 28 -20.5t1 -32.5l-23 -96q-12 -49 -55 -35q-20 6 -54 12t-75 6q-57 0 -104 -32.5t-83 -91t-58.5 -139.5t-28.5 -179q39 63 97 102t136 39q82 0 144.5 -36t103.5 -97t61.5 -143.5 t20.5 -176.5q0 -209 -100.5 -333.5t-288.5 -124.5q-109 0 -183.5 43t-121.5 119.5t-69 183t-22 235.5zM330 451q0 -143 51 -213t123 -70t121 63.5t49 204.5q0 143 -49.5 214t-114.5 71q-70 0 -125 -68.5t-55 -201.5z" />
<glyph unicode="7" d="M94 1227v104q0 23 14.5 36t34.5 13h699q31 0 43 -19.5t2 -49.5l-400 -1268q-12 -43 -55 -43h-137q-23 0 -34 14.5t-3 36.5l383 1129h-498q-23 0 -36 12t-13 35z" />
<glyph unicode="8" horiz-adv-x="983" d="M100 369q0 131 68 222t166 134q-80 41 -134.5 120t-54.5 202q0 74 27 136t74 109t114.5 74t147.5 27q84 0 151.5 -26t113.5 -71t70.5 -109.5t24.5 -139.5q0 -113 -50 -184.5t-142 -125.5q45 -20 86 -51t72.5 -75t51 -101t19.5 -133q0 -188 -110.5 -288.5t-294.5 -100.5 t-292 97t-108 284zM324 381q0 -104 48 -158.5t134 -54.5q80 0 128 53.5t48 159.5q0 113 -50 176.5t-134 99.5q-37 -16 -69 -39.5t-55.5 -56.5t-36.5 -78t-13 -102zM352 1051q0 -86 44 -145.5t116 -98.5q72 39 112 98.5t40 145.5t-44.5 132t-113.5 46q-68 0 -111 -48 t-43 -130z" />
<glyph unicode="9" d="M100 946q0 100 26 182t76 140.5t122.5 91.5t167.5 33q109 0 184.5 -43t122.5 -121t68.5 -185.5t21.5 -236.5q0 -135 -11.5 -237.5t-36 -181.5t-62.5 -140.5t-93 -114.5q-82 -82 -186.5 -113.5t-253.5 -31.5q-23 0 -32 11t-11 30l-8 112q-2 43 49 43q88 0 157.5 15.5 t122.5 58.5q66 53 104 145.5t42 249.5q-41 -61 -102.5 -96t-135.5 -35q-166 0 -249 116t-83 308zM317 948q0 -72 14.5 -119t38 -75.5t53.5 -40t62 -11.5q35 0 68 11.5t57.5 38t40 72.5t15.5 114q0 135 -51.5 203.5t-122.5 68.5q-72 0 -123.5 -62.5t-51.5 -199.5z" />
<glyph unicode=":" horiz-adv-x="438" d="M102 133q0 59 43 102.5t103 43.5q59 0 102 -43.5t43 -102.5t-43 -102t-102 -43t-102.5 43t-43.5 102zM102 768q0 59 43 102t103 43q59 0 102 -43t43 -102t-43 -102t-102 -43t-102.5 43t-43.5 102z" />
<glyph unicode=";" horiz-adv-x="442" d="M102 768q0 59 43 102t103 43q59 0 102 -43t43 -102t-43 -102t-102 -43t-102.5 43t-43.5 102zM104 133q0 61 42 103.5t102 42.5q66 0 105.5 -45t39.5 -117q0 -78 -45 -160t-117 -147q-16 -14 -33.5 -21.5t-33.5 8.5l-43 39q-33 31 -8 62q23 25 34 41t19 32q10 23 7 33 t-15 21q-23 16 -38.5 44.5t-15.5 63.5z" />
<glyph unicode="&#x3c;" horiz-adv-x="972" d="M111 561v76q0 33 28 47l686 330q18 10 35 -1.5t17 -29.5v-98q0 -16 -7.5 -29.5t-23.5 -19.5l-529 -230l525 -190q35 -14 35 -49v-97q0 -18 -16.5 -29.5t-35.5 -2.5l-686 276q-14 6 -21 19.5t-7 27.5z" />
<glyph unicode="=" horiz-adv-x="1173" d="M104 412v77q0 23 13.5 37.5t36.5 14.5h888q23 0 36.5 -14.5t13.5 -37.5v-77q0 -23 -13.5 -36.5t-36.5 -13.5h-888q-23 0 -36.5 13.5t-13.5 36.5zM104 750v79q0 23 13.5 36.5t36.5 13.5h888q23 0 36.5 -13.5t13.5 -36.5v-79q0 -23 -13.5 -36.5t-36.5 -13.5h-888 q-23 0 -36.5 13.5t-13.5 36.5z" />
<glyph unicode="&#x3e;" horiz-adv-x="972" d="M111 270v97q0 35 34 49l527 188l-531 232q-16 6 -23 19t-7 30v98q0 18 15 29.5t34 1.5l686 -330q12 -6 21.5 -18.5t9.5 -28.5v-76q0 -33 -31 -47l-686 -276q-18 -8 -33.5 3t-15.5 29z" />
<glyph unicode="?" horiz-adv-x="800" d="M90 1294q-16 37 16 58q131 80 271 80q76 0 139.5 -26t108.5 -71t70.5 -107t25.5 -136q0 -66 -19.5 -121.5t-48 -103.5t-62.5 -91t-62.5 -85t-48 -85t-19.5 -90v-35q0 -55 -47 -55h-115q-51 0 -51 55v47q0 88 39 160t85 137.5t85 127t39 128.5q0 63 -36 103.5t-102 40.5 q-53 0 -93 -19.5t-66 -31.5q-25 -10 -38.5 -4t-21.5 22zM213 133q0 59 43 102.5t102 43.5t102.5 -43.5t43.5 -102.5t-43 -102t-103 -43q-59 0 -102 43t-43 102z" />
<glyph unicode="@" horiz-adv-x="1806" d="M150 371q0 199 63 383t180 326.5t280 227.5t363 85q168 0 294 -55.5t210 -150.5t126 -224.5t42 -274.5q0 -164 -29.5 -294t-87 -220t-139.5 -138t-188 -48q-55 0 -92 17.5t-59.5 45t-33 64.5t-12.5 78q-51 -90 -128 -147.5t-181 -57.5q-111 0 -175.5 84t-66.5 243 q-2 131 34 255t96.5 220.5t140 155t167.5 58.5q143 0 195 -134l35 80q16 39 57 39h80q16 0 26.5 -8t6.5 -33l-107 -573q-23 -113 -13.5 -168t69.5 -55q86 0 151.5 129t65.5 385q0 125 -29 229t-90.5 180t-157.5 118t-231 42q-131 0 -253 -60.5t-215 -173t-148.5 -270.5 t-55.5 -354q0 -160 41 -277.5t113.5 -196.5t174 -118t222.5 -39q86 0 160.5 18.5t142.5 53.5q43 23 57 -11q6 0 12.5 -10t11.5 -22.5t8 -24.5t1 -16q8 -16 5 -33.5t-32 -32.5q-98 -47 -198.5 -66.5t-210.5 -19.5q-137 0 -263 51.5t-223.5 151.5t-154.5 247.5t-57 338.5z M729 313q2 -76 27.5 -116.5t79.5 -40.5q59 0 106 47t81 122.5t52.5 171t18.5 191.5q0 72 -33 115t-84 43q-86 0 -158 -129q-41 -72 -66.5 -182.5t-23.5 -221.5z" />
<glyph unicode="A" horiz-adv-x="1099" d="M27 57l366 1276q6 23 24.5 35t39.5 12h180q45 0 61 -47l394 -1276q3 -9 3 -18q-1 -12 -7 -22q-12 -17 -33 -17h-144q-23 0 -40 12.5t-23 32.5l-82 303h-432l-78 -303q-4 -20 -20.5 -32.5t-38.5 -12.5h-134q-23 0 -33 18q-6 10 -6 22q0 8 3 17zM381 537h336l-142 538 q-10 41 -17 96.5t-13 96.5q-4 -43 -12.5 -96.5t-18.5 -96.5z" />
<glyph unicode="B" horiz-adv-x="1120" d="M172 47v1284q0 20 14.5 34.5t34.5 14.5h408q88 0 158.5 -26.5t118.5 -72.5t74 -110.5t26 -140.5q0 -111 -53.5 -184.5t-172.5 -112.5q70 -12 123 -43t89 -76t54.5 -103.5t18.5 -121.5q0 -186 -107.5 -287.5t-306.5 -101.5h-430q-20 0 -34.5 14.5t-14.5 32.5zM389 190h234 q98 0 153 61t55 165q0 94 -63 158.5t-180 64.5h-199v-449zM389 811h180q106 0 159.5 53.5t53.5 141.5q0 92 -49 142t-151 50h-193v-387z" />
<glyph unicode="C" horiz-adv-x="954" d="M82 696q0 160 39 288t110.5 219t172 140.5t225.5 49.5q59 0 125.5 -10.5t124.5 -45.5q18 -10 24 -28.5t-4 -38.5l-43 -84q-13 -25 -36 -25q-11 0 -23 6q-35 16 -72 25.5t-80 9.5q-78 0 -139.5 -28.5t-104.5 -90t-66.5 -158t-23.5 -231.5q0 -137 24.5 -233t69 -157.5 t105.5 -90.5t135 -29q37 0 83 12.5t77 26.5q18 8 34.5 3t22.5 -21l45 -99q6 -12 6 -22q0 -6 -3 -14q-7 -16 -21 -23q-53 -29 -117.5 -44t-150.5 -15q-254 0 -396.5 182t-142.5 526z" />
<glyph unicode="D" horiz-adv-x="1122" d="M172 49v1282q0 20 14.5 34.5t34.5 14.5h326q109 0 203 -32.5t163.5 -110.5t109.5 -210t40 -329q0 -164 -24.5 -294t-83 -220t-157 -137t-243.5 -47h-334q-20 0 -34.5 14.5t-14.5 34.5zM389 188h131q76 0 134.5 19.5t98.5 75t60.5 152.5t20.5 251q0 164 -24 261t-69 157 q-37 47 -94 70.5t-123 23.5h-135v-1010z" />
<glyph unicode="E" horiz-adv-x="997" d="M172 49v1282q0 20 14.5 34.5t34.5 14.5h635q20 0 34.5 -14t14.5 -35v-92q0 -20 -13 -35.5t-36 -15.5h-467v-367h418q20 0 35.5 -13t15.5 -34v-86q0 -23 -15.5 -37t-35.5 -14h-418v-438h483q20 0 36 -14.5t16 -34.5v-101q0 -20 -15.5 -34.5t-36.5 -14.5h-651 q-20 0 -34.5 14.5t-14.5 34.5z" />
<glyph unicode="F" horiz-adv-x="905" d="M172 49v1282q0 20 14.5 34.5t34.5 14.5h615q20 0 34.5 -14t14.5 -35v-92q0 -20 -13.5 -35.5t-35.5 -15.5h-447v-371h395q20 0 36 -14.5t16 -34.5v-84q0 -23 -15.5 -37t-36.5 -14h-395v-584q0 -14 -9 -24.5t-22 -14.5q-2 -2 -15 -4t-29.5 -4t-32 -2h-17.5q-4 0 -13 1 t-20.5 2t-19.5 3t-10 4q-12 2 -20.5 13.5t-8.5 25.5z" />
<glyph unicode="G" horiz-adv-x="1122" d="M82 694q0 160 38 289t109.5 220t176 140.5t237.5 49.5q92 0 176 -21.5t152 -56.5q29 -15 29 -39q0 -12 -7 -25l-41 -88q-8 -16 -24.5 -24.5t-34.5 2.5q-53 27 -111.5 43t-138.5 16q-166 0 -248 -124t-82 -396q0 -139 23.5 -234.5t68 -154t109 -85t145.5 -26.5 q70 0 132 19v403h-181q-20 0 -34.5 14.5t-14.5 34.5v97q0 20 14.5 34.5t34.5 14.5h346q20 0 35 -14.5t15 -34.5v-625q0 -35 -13.5 -53.5t-50.5 -32.5q-59 -23 -139 -36t-164 -13q-145 0 -250.5 48t-173.5 139t-100.5 222t-32.5 297z" />
<glyph unicode="H" horiz-adv-x="1193" d="M172 49v1282q0 20 14.5 34.5t34.5 14.5h119q20 0 34.5 -14t14.5 -35v-506h440v506q0 20 15.5 34.5t36.5 14.5h116q20 0 35 -14t15 -35v-1282q0 -20 -14.5 -34.5t-35.5 -14.5h-116q-20 0 -36 14.5t-16 34.5v588h-440v-588q0 -20 -14.5 -34.5t-34.5 -14.5h-119 q-20 0 -34.5 14.5t-14.5 34.5z" />
<glyph unicode="I" horiz-adv-x="548" d="M41 49v72q0 20 13.5 33.5t33.5 13.5h84v1042h-84q-20 0 -33.5 14.5t-13.5 35.5v71q0 20 13.5 34.5t33.5 14.5h385q20 0 33.5 -14t13.5 -35v-71q0 -20 -13 -35t-34 -15h-84v-1042h84q20 0 33.5 -13.5t13.5 -33.5v-72q0 -20 -13 -34.5t-34 -14.5h-385q-20 0 -33.5 14.5 t-13.5 34.5z" />
<glyph unicode="J" horiz-adv-x="509" d="M55 -268q4 20 27 32l57 33q35 20 48.5 48t13.5 63v1302h-95q-20 0 -33.5 14.5t-13.5 35.5v71q0 20 13.5 34.5t33.5 14.5h263q20 0 34.5 -14t14.5 -35v-1440q0 -92 -37 -153.5t-129 -108.5l-78 -41q-9 -6 -20 -6q-7 0 -16 3q-19 7 -29 24l-48 88q-7 11 -7 25q0 5 1 10z " />
<glyph unicode="K" horiz-adv-x="1032" d="M172 47v1284q0 20 14.5 34.5t34.5 14.5h119q20 0 34.5 -14t14.5 -35v-530l361 547q22 32 63 32h2h156q31 0 35 -19.5t-9 -37.5l-399 -559l440 -707q11 -17 11 -29q0 -6 -3 -12q-8 -16 -34 -16h-166q-23 0 -40.5 7t-29.5 30l-387 680v-670q0 -18 -14.5 -32.5t-34.5 -14.5 h-119q-20 0 -34.5 14.5t-14.5 32.5z" />
<glyph unicode="L" horiz-adv-x="868" d="M172 49v1282q0 20 14.5 34.5t34.5 14.5h119q20 0 34.5 -14t14.5 -35v-1134h434q20 0 34.5 -15.5t14.5 -34.5v-98q0 -20 -14 -34.5t-35 -14.5h-602q-20 0 -34.5 14.5t-14.5 34.5z" />
<glyph unicode="M" horiz-adv-x="1447" d="M104 49l109 1284q2 20 18.5 33.5t36.5 13.5h193q18 0 35.5 -12t21.5 -29l191 -815q10 -45 17 -115.5t11 -125.5q4 55 11.5 125.5t17.5 115.5l195 815q4 18 21 29.5t36 11.5h188q20 0 35.5 -12t18.5 -35l106 -1288v-6q0 -13 -8 -25q-10 -14 -31 -14h-135q-20 0 -34.5 13.5 t-16.5 31.5l-41 899q0 18 -1 56t-1 81v84v64q-4 -25 -8.5 -63t-10.5 -77.5t-12 -77.5t-12 -67l-193 -754q-14 -47 -55 -47h-145q-20 0 -37 12.5t-21 34.5l-186 754q-6 29 -12.5 67t-12.5 77.5t-11 76.5t-9 64v-60.5v-84.5t-1 -82.5t-1 -57.5l-45 -897q-2 -20 -16.5 -33.5 t-33.5 -13.5h-131q-19 0 -31 14q-11 12 -10 30v5z" />
<glyph unicode="N" horiz-adv-x="1241" d="M172 47v1286q0 20 14.5 33.5t34.5 13.5h193q20 0 38.5 -10t26.5 -27l346 -845q29 -68 48.5 -141.5t41.5 -149.5q-8 80 -14 169t-6 161l-2 796q0 18 14.5 32.5t34.5 14.5h105q20 0 35.5 -14t15.5 -33v-1286q0 -18 -15.5 -32.5t-35.5 -14.5h-193q-39 0 -55 39l-361 858 q-29 66 -49 146.5t-41 158.5q4 -39 9 -87t9.5 -96t7.5 -90t3 -71l2 -811q0 -18 -14.5 -32.5t-34.5 -14.5h-109q-20 0 -34.5 14.5t-14.5 32.5z" />
<glyph unicode="O" horiz-adv-x="1126" d="M92 684q0 350 121 529.5t362 179.5q238 0 359 -174.5t121 -534.5q0 -696 -480 -696q-240 0 -361.5 171t-121.5 525zM319 690q0 -129 12.5 -227t42 -164t79 -98.5t120.5 -32.5q76 0 125.5 37t79 104.5t40.5 163.5t11 217q0 111 -10 207t-38.5 168t-78 113t-129.5 41 q-86 0 -136 -44.5t-75.5 -118t-34 -168.5t-8.5 -198z" />
<glyph unicode="P" horiz-adv-x="1024" d="M172 49v1282q0 20 14.5 34.5t34.5 14.5h330q211 0 320.5 -109.5t109.5 -293.5q0 -92 -29.5 -168t-85 -131t-134.5 -85t-177 -30h-166v-514q0 -20 -14.5 -34.5t-34.5 -14.5h-119q-20 0 -34.5 14.5t-14.5 34.5zM389 750h160q104 0 158.5 63.5t54.5 161.5q0 104 -52.5 160.5 t-160.5 56.5h-160v-442z" />
<glyph unicode="Q" horiz-adv-x="1138" d="M92 684q0 350 121 529.5t362 179.5q238 0 359 -174.5t121 -534.5q0 -172 -30 -304t-95 -226q53 -47 114.5 -82t116.5 -58q16 -8 25 -26q3 -9 3 -18q0 -11 -5 -23l-47 -94q-16 -32 -42 -32q-10 0 -22 5q-74 31 -150.5 89t-125.5 124q-37 -23 -95.5 -37t-126.5 -14 q-240 0 -361.5 171t-121.5 525zM319 690q0 -129 12.5 -227t42 -164t79 -98.5t120.5 -32.5q76 0 125.5 37t79 104.5t40.5 163.5t11 217q0 111 -10 207t-38.5 168t-78 113t-129.5 41q-86 0 -136 -44.5t-75.5 -118t-34 -168.5t-8.5 -198z" />
<glyph unicode="R" horiz-adv-x="1116" d="M172 47v1284q0 20 14.5 34.5t34.5 14.5h361q129 0 210.5 -35.5t128 -88t62.5 -114t16 -112.5q0 -61 -17 -116.5t-52 -100.5t-88.5 -75.5t-126.5 -43.5q-4 -2 -9.5 -2h-7.5q74 -16 130.5 -72.5t89.5 -123.5q12 -27 32.5 -74t44 -106.5t48 -125.5t47.5 -127q6 -18 6 -31 q0 -9 -2 -15q-6 -17 -39 -17h-150q-23 0 -38 8t-23 35q-35 106 -65.5 209.5t-73.5 185.5q-35 68 -87.5 120t-144.5 52h-84v-563q0 -18 -14.5 -32.5t-34.5 -14.5h-119q-20 0 -34.5 14.5t-14.5 32.5zM389 786h164q106 0 165.5 58.5t59.5 156.5q0 74 -49 131.5t-154 57.5h-186 v-404z" />
<glyph unicode="S" horiz-adv-x="942" d="M78 109l24 102q4 20 21.5 29.5t40.5 1.5q59 -23 127.5 -41.5t146.5 -18.5q102 0 168 49.5t66 145.5q0 51 -21.5 89t-57.5 67.5t-82 52t-93 45.5l-84 39q-47 23 -91 51.5t-78 68t-53.5 95t-19.5 129.5q0 82 29 150.5t82 119.5t131 80t176 29q74 0 144.5 -15.5t123.5 -34.5 q18 -6 24.5 -23t2.5 -36l-23 -92q-4 -18 -19 -27.5t-36 -3.5q-49 16 -96 29.5t-117 13.5q-100 0 -150.5 -47t-50.5 -133q0 -41 16.5 -69.5t44 -52t63.5 -42t77 -37.5l111 -51q55 -25 104 -56.5t86 -76.5t58.5 -104.5t21.5 -141.5q0 -90 -30.5 -164.5t-89 -128t-142.5 -83 t-191 -29.5q-90 0 -179 17.5t-154 41.5q-19 7 -27 25q-5 11 -5 24q0 6 1 13z" />
<glyph unicode="T" horiz-adv-x="899" d="M20 1231v100q0 20 15.5 34.5t36.5 14.5h798q20 0 34 -14t14 -35v-100q0 -20 -13.5 -33.5t-34.5 -13.5h-290v-1135q0 -20 -14.5 -34.5t-35.5 -14.5h-118q-20 0 -35 14.5t-15 34.5v1135h-290q-20 0 -36 13t-16 34z" />
<glyph unicode="U" horiz-adv-x="1196" d="M162 428v903q0 49 47 49h119q49 0 49 -49v-880q0 -135 50 -209t177 -74q57 0 101.5 13.5t75 44t46 82.5t15.5 130v893q0 49 51 49h117q23 0 36 -13t13 -36v-903q0 -215 -114 -327.5t-337 -112.5q-229 0 -337.5 114.5t-108.5 325.5z" />
<glyph unicode="V" horiz-adv-x="1095" d="M47 1323q-2 8 -2 15q0 14 7 25q11 17 34 17h141q51 0 64 -49l235 -928q12 -49 24.5 -122.5t18.5 -145.5q10 72 20.5 145.5t22.5 122.5l236 926q12 51 61 51h123q23 0 34 -16q7 -10 7 -24q0 -7 -2 -15l-366 -1280q-6 -20 -23.5 -32.5t-38.5 -12.5h-156q-20 0 -37.5 12.5 t-23.5 32.5z" />
<glyph unicode="W" horiz-adv-x="1658" d="M90 1325q-1 7 -1 13q0 15 7 26q10 16 33 16h147q51 0 58 -51l129 -903q4 -29 7 -68t6 -78.5t6 -77.5t5 -67q4 31 9.5 69t11.5 78t11 76.5t11 65.5l181 907q8 49 59 49h188q49 0 60 -49l172 -903q12 -66 21.5 -146.5t15.5 -146.5q2 29 6 67t8 77.5t8 77.5t8 67l138 907 q4 23 18 36t37 13h127q23 0 33 -17q7 -12 7 -27q0 -6 -1 -13l-234 -1278q-4 -20 -22.5 -32.5t-38.5 -12.5h-199q-23 0 -41 11.5t-22 33.5l-176 950q-4 25 -8.5 60t-7.5 71.5t-5 71.5t-4 59q-2 -25 -4 -58.5t-5 -70t-6 -72.5t-9 -63l-187 -948q-4 -23 -22.5 -34t-38.5 -11 h-209q-20 0 -35.5 10t-19.5 33z" />
<glyph unicode="X" horiz-adv-x="1114" d="M37 16q-3 6 -3 13q0 14 11 32l391 656l-348 602q-16 27 -7 44t36 17h162q23 0 39 -12t26 -29l231 -436l230 436q10 16 26.5 28.5t38.5 12.5h136q27 0 36 -16t-8 -45l-340 -588l396 -670q11 -18 11 -32q0 -7 -3 -12q-8 -17 -35 -17h-168q-45 0 -66 39l-272 512l-274 -512 q-20 -39 -68 -39h-143q-27 0 -35 16z" />
<glyph unicode="Y" horiz-adv-x="1009" d="M39 1364q8 16 37 16h160q47 0 59 -34l184 -472q23 -57 33 -110t18 -98q6 47 17.5 98t34.5 110l178 469q14 37 61 37h146q23 0 32 -15q4 -6 4 -14q0 -12 -8 -28l-366 -786v-488q0 -20 -14.5 -34.5t-34.5 -14.5h-117q-20 0 -35.5 14.5t-15.5 34.5v481l-371 795q-6 13 -6 23 q0 9 4 16z" />
<glyph unicode="Z" horiz-adv-x="1001" d="M94 49v107q0 23 6 40t17 33l479 826q31 53 60.5 89t54.5 54q-35 -8 -66 -11t-78 -3h-403q-20 0 -35.5 14t-15.5 35v98q0 20 15 34.5t36 14.5h698q20 0 34.5 -14t14.5 -35v-96q0 -23 -8 -42t-18 -38l-479 -825q-33 -55 -62 -90t-53 -52q31 4 63.5 9.5t75.5 5.5h453 q20 0 34.5 -14.5t14.5 -34.5v-105q0 -20 -14.5 -34.5t-34.5 -14.5h-740q-20 0 -34.5 14.5t-14.5 34.5z" />
<glyph unicode="[" horiz-adv-x="577" d="M172 -268v1788q0 23 13.5 37t35.5 14h271q23 0 37 -14.5t14 -36.5v-54q0 -23 -14.5 -36t-36.5 -13h-140v-1585h140q23 0 37 -12.5t14 -34.5v-53q0 -23 -14.5 -37t-36.5 -14h-271q-23 0 -36 14t-13 37z" />
<glyph unicode="\" horiz-adv-x="651" d="M16 1403q-6 23 3.5 39t31.5 16h80q47 0 59 -43l449 -1550q8 -25 -2 -41.5t-33 -16.5h-82q-45 0 -57 43z" />
<glyph unicode="]" horiz-adv-x="577" d="M49 -215q0 23 13.5 35t35.5 12h142v1585h-142q-23 0 -36 13.5t-13 35.5v54q0 23 13.5 37t35.5 14h271q23 0 36 -14.5t13 -36.5v-1788q0 -23 -13.5 -37t-35.5 -14h-271q-23 0 -36 14t-13 37v53z" />
<glyph unicode="^" horiz-adv-x="1183" d="M103.5 616.5q-7.5 18.5 2.5 36.5l400 772q14 27 43 27h131q12 0 24.5 -6t20.5 -21l395 -772q10 -18 4 -36.5t-24 -28.5l-78 -39q-16 -8 -36.5 -4t-31.5 22l-344 682l-344 -682q-10 -18 -30.5 -23t-36.5 5l-72 39q-16 10 -23.5 28.5z" />
<glyph unicode="_" horiz-adv-x="1024" d="M10 -190q0 23 14.5 37t36.5 14h922q23 0 37 -14.5t14 -36.5v-41q0 -23 -14 -36.5t-37 -13.5h-922q-23 0 -37 13.5t-14 36.5v41z" />
<glyph unicode="`" horiz-adv-x="708" d="M123.5 1339.5q-8.5 14.5 5.5 38.5l53 99q23 39 60 16l336 -209q16 -10 22 -24.5t-4 -34.5l-29 -56q-10 -16 -25.5 -19t-33.5 5l-356 160q-20 10 -28.5 24.5z" />
<glyph unicode="a" horiz-adv-x="909" d="M66 291q0 154 87 230.5t232 86.5l205 15q0 4 1 22.5t-3 22.5q-2 39 -9.5 68.5t-24.5 48t-48 27.5t-80 9q-59 0 -108.5 -11t-90.5 -24q-11 -3 -20 -3q-32 0 -39 34l-21 90q-2 8 -2 16q0 30 33 40q45 14 119 27.5t139 13.5q129 0 202 -37t108.5 -93.5t44 -125t8.5 -132.5 v-344v-77.5t10 -85.5l12 -62q1 -6 1 -11q0 -15 -8 -24q-11 -12 -34 -12h-106q-45 0 -51 47l-13 76q-45 -70 -117.5 -102.5t-160.5 -32.5q-129 0 -197.5 81t-68.5 222zM279 291q0 -68 33.5 -99.5t80.5 -31.5q43 0 80 16.5t62.5 42t40 55t14.5 58.5v143l-117 -4 q-43 -2 -79 -11t-61.5 -29.5t-39.5 -54.5t-14 -85z" />
<glyph unicode="b" horiz-adv-x="956" d="M137 47v1358q0 20 14.5 33.5t34.5 13.5h111q20 0 34.5 -13.5t14.5 -33.5v-526q37 59 92.5 92t132.5 33q66 0 124.5 -29t95.5 -72q61 -72 85.5 -169t24.5 -234q0 -143 -24.5 -241.5t-68.5 -158t-104.5 -86t-132.5 -26.5q-78 0 -140 37.5t-97 103.5l-17 -82 q-10 -47 -59 -47h-72q-20 0 -34.5 13.5t-14.5 33.5zM340 492q0 -168 42 -245t126 -77q43 0 74.5 16.5t53 54.5t32 100.5t10.5 152.5q0 98 -11.5 162.5t-33.5 101.5q-38 69 -123 69h-2q-80 0 -124 -82.5t-44 -252.5z" />
<glyph unicode="c" horiz-adv-x="759" d="M70 506q0 106 29.5 197.5t85 158t134 104.5t177.5 38q49 0 96 -10.5t82 -24.5q38 -14 38 -41q0 -8 -3 -17l-29 -86q-6 -16 -18.5 -27.5t-38.5 -0.5q-23 8 -52.5 16t-68.5 8q-98 0 -154.5 -81t-56.5 -234q0 -170 53 -249t170 -79q35 0 71 5t64 14q23 6 37 -4.5t19 -28.5 l16 -90q1 -7 1 -13q0 -11 -4 -21q-7 -16 -30 -24q-47 -16 -97 -22t-104 -6q-190 0 -303.5 129t-113.5 389z" />
<glyph unicode="d" horiz-adv-x="956" d="M76 500q0 137 24.5 234t85.5 169q37 43 94.5 72t122.5 29q78 0 134.5 -33t93.5 -92v526q0 20 13 33.5t34 13.5h113q20 0 34.5 -13.5t14.5 -33.5v-1358q0 -20 -14.5 -33.5t-34.5 -13.5h-72q-51 0 -62 47l-16 82q-35 -66 -96.5 -103.5t-138.5 -37.5q-72 0 -132.5 26.5 t-104.5 86t-68.5 157.5t-24.5 242zM299 494q0 -90 10 -151.5t31.5 -99.5t53.5 -54.5t75 -16.5q84 0 126 76t42 244q0 170 -44 251.5t-124 81.5q-86 0 -125 -69q-23 -37 -34 -100.5t-11 -161.5z" />
<glyph unicode="e" horiz-adv-x="899" d="M72 500q0 113 26.5 206t76.5 159.5t122 102.5t160 36q86 0 155.5 -29t118.5 -91.5t76 -159.5t27 -232q0 -20 -13.5 -35t-34.5 -15h-495q2 -66 15 -116t41 -83.5t72 -52t109 -18.5q59 0 104.5 11.5t90.5 25.5q23 8 36 -3t19 -28l29 -82q8 -20 -1 -34.5t-28 -22.5 q-55 -25 -116.5 -38t-155.5 -13q-207 0 -320.5 128t-113.5 384zM291 592h330q-2 45 -10.5 89t-27 79t-49 55.5t-73.5 20.5q-61 0 -109.5 -55.5t-60.5 -188.5z" />
<glyph unicode="f" horiz-adv-x="581" d="M12 877v67q0 20 13.5 33.5t33.5 13.5h109v199q0 135 62.5 204.5t183.5 69.5q45 0 93 -12t83 -29q28 -13 28 -38q0 -10 -4 -21l-26 -84q-11 -28 -35 -28q-8 0 -18 3q-16 4 -40 12.5t-44 8.5q-33 0 -53.5 -22.5t-20.5 -67.5v-195h153q20 0 35 -13t15 -34v-67 q0 -20 -14.5 -35t-35.5 -15h-151l-2 -780q0 -20 -13.5 -33.5t-33.5 -13.5h-113q-18 0 -33.5 13.5t-15.5 33.5v780h-109q-20 0 -33.5 14.5t-13.5 35.5z" />
<glyph unicode="g" horiz-adv-x="954" d="M76 500q0 137 24.5 234t85.5 169q35 41 93.5 71t123.5 30q78 0 139.5 -36t96.5 -104l18 80q10 47 62 47h72q20 0 34.5 -13t14.5 -34v-952q0 -70 -9.5 -142.5t-47.5 -132t-114.5 -97.5t-211.5 -38q-86 0 -163 12.5t-138 34.5q-27 9 -27 37q0 8 2 17l27 96q8 31 34 31 q9 0 19 -3q43 -14 105.5 -25t123.5 -11t98 16t57.5 45t28 67t7.5 81v141q-35 -59 -91.5 -94t-133.5 -35q-72 0 -132.5 26.5t-104.5 87t-68.5 156.5t-24.5 238zM299 494q0 -90 10 -151.5t31.5 -99.5t53.5 -54.5t75 -16.5q84 0 126 76t42 244q0 170 -44 251.5t-124 81.5 q-86 0 -125 -69q-23 -37 -34 -100.5t-11 -161.5z" />
<glyph unicode="h" horiz-adv-x="980" d="M137 47v1358q0 20 14.5 33.5t34.5 13.5h111q20 0 34.5 -13.5t14.5 -33.5v-526q53 59 121 92t145 33q117 0 184.5 -70t67.5 -186v-701q0 -20 -14 -33.5t-35 -13.5h-113q-20 0 -33.5 13.5t-13.5 33.5v658q0 59 -25.5 89.5t-84.5 30.5q-86 0 -142.5 -64.5t-56.5 -164.5v-549 q0 -20 -14.5 -33.5t-34.5 -13.5h-111q-20 0 -34.5 13.5t-14.5 33.5z" />
<glyph unicode="i" horiz-adv-x="503" d="M20 877v67q0 20 14.5 33.5t35.5 13.5h260q23 0 35 -13t12 -34v-897q0 -20 -13.5 -33.5t-33.5 -13.5h-113q-20 0 -34.5 13.5t-14.5 33.5v780h-98q-20 0 -35 14.5t-15 35.5zM129 1317q0 57 41 98t98 41t97.5 -41t40.5 -98t-40 -97t-98 -40q-57 0 -98 40t-41 97z" />
<glyph unicode="j" horiz-adv-x="503" d="M20 877v67q0 20 14.5 33.5t35.5 13.5h260q20 0 33.5 -13t13.5 -34v-1020q0 -47 -5 -88t-19.5 -76.5t-43 -66.5t-73.5 -58l-76 -45q-13 -7 -27 -7q-5 0 -11 1q-20 4 -30 21l-45 78q-10 16 -7 35.5t21 29.5l37 21q49 29 59.5 65.5t10.5 89.5v903h-98q-20 0 -35 14.5 t-15 35.5zM129 1317q0 57 41 98t98 41t97.5 -41t40.5 -98t-40 -97t-98 -40q-57 0 -98 40t-41 97z" />
<glyph unicode="k" horiz-adv-x="884" d="M137 47v1358q0 20 14.5 33.5t34.5 13.5h111q20 0 34.5 -13.5t14.5 -33.5v-817l232 366q23 37 65 37h154q23 0 30 -18.5t-8 -36.5l-270 -371l325 -510q7 -11 7 -22q0 -7 -3 -15q-8 -18 -30 -18h-166q-37 0 -64 43l-272 477v-473q0 -20 -14.5 -33.5t-34.5 -13.5h-111 q-20 0 -34.5 13.5t-14.5 33.5z" />
<glyph unicode="l" horiz-adv-x="526" d="M137 199v1206q0 20 14.5 33.5t34.5 13.5h111q20 0 34.5 -13.5t14.5 -33.5v-1151q0 -41 8 -60.5t39 -19.5q14 0 31.5 3t34.5 7q7 1 13 1q31 0 38 -33l16 -91q1 -5 1 -10q0 -29 -31 -39q-59 -24 -143 -24h-7q-113 0 -161 55t-48 156z" />
<glyph unicode="m" horiz-adv-x="1427" d="M139 47v897q0 20 14.5 33.5t34.5 13.5h80q43 0 51 -39l19 -82q47 53 116.5 93.5t143.5 40.5q82 0 139.5 -37t77.5 -105q57 68 127 105t145 37q45 0 87.5 -13.5t75 -42t52 -75t19.5 -111.5v-715q0 -20 -14.5 -33.5t-34.5 -13.5h-115q-20 0 -33.5 13.5t-13.5 33.5v684 q0 47 -24.5 69.5t-61.5 22.5q-80 0 -134 -63.5t-54 -163.5v-549q0 -20 -14.5 -33.5t-35.5 -13.5h-112q-20 0 -34.5 13.5t-14.5 33.5v684q0 47 -25 69.5t-61 22.5q-80 0 -134.5 -63.5t-54.5 -163.5v-549q0 -20 -14 -33.5t-35 -13.5h-113q-20 0 -34.5 13.5t-14.5 33.5z" />
<glyph unicode="n" horiz-adv-x="983" d="M139 47v897q0 20 14.5 33.5t34.5 13.5h80q43 0 51 -39l19 -84q63 72 130 104t146 32q117 0 184.5 -70t67.5 -186v-701q0 -20 -14 -33.5t-35 -13.5h-115q-20 0 -33.5 13.5t-13.5 33.5v658q0 59 -23.5 89.5t-82.5 30.5q-43 0 -79 -17t-62.5 -48t-42 -73t-15.5 -91v-549 q0 -20 -13 -33.5t-34 -13.5h-115q-20 0 -34.5 13.5t-14.5 33.5z" />
<glyph unicode="o" horiz-adv-x="927" d="M70 498q0 236 106.5 371t298.5 135q190 0 296 -136.5t106 -369.5q0 -236 -104.5 -373t-297.5 -137t-299 135t-106 375zM285 498q0 -182 51 -256t135 -74t136 74t52 256q0 178 -52 253.5t-136 75.5t-135 -75.5t-51 -253.5z" />
<glyph unicode="p" horiz-adv-x="958" d="M139 -358v1302q0 20 14.5 33.5t34.5 13.5h72q47 0 59 -47l21 -84q35 66 93.5 105t135.5 39q66 0 129.5 -25t106.5 -84q47 -66 72.5 -159t25.5 -249q0 -135 -26.5 -241.5t-92.5 -171.5q-35 -37 -88 -61.5t-118 -24.5q-80 0 -135.5 30.5t-94.5 87.5v-464q0 -20 -14.5 -34 t-34.5 -14h-111q-20 0 -34.5 13.5t-14.5 34.5zM342 504q0 -170 39 -254t129 -84q92 0 131 77t39 253q0 98 -13.5 160.5t-33.5 97.5q-38 67 -121 67h-2q-78 0 -123 -77.5t-45 -239.5z" />
<glyph unicode="q" horiz-adv-x="954" d="M76 487q0 156 25.5 249t72.5 159q43 59 105.5 84t128.5 25q78 0 137 -39t94 -105l18 84q10 47 62 47h72q20 0 34.5 -13t14.5 -34v-1302q0 -20 -14.5 -34t-34.5 -14h-113q-20 0 -33.5 13.5t-13.5 34.5v464q-39 -57 -94.5 -87.5t-135.5 -30.5q-66 0 -119 24.5t-87 61.5 q-66 66 -92.5 172t-26.5 241zM299 487q0 -172 39 -246.5t131 -74.5q84 0 126 79t42 249q0 61 -7 117.5t-24.5 101.5t-48.5 73.5t-78 32.5q-4 0 -9 1t-9 1q-78 0 -119 -76q-27 -51 -35 -115.5t-8 -123.5v-19z" />
<glyph unicode="r" horiz-adv-x="675" d="M139 47v897q0 20 14.5 33.5t34.5 13.5h76q18 0 34.5 -10t20.5 -31l23 -88q41 66 97.5 104t131.5 38q57 0 86 -15q44 -20 44 -52q0 -8 -3 -17l-30 -115q-6 -23 -23.5 -33t-38.5 -6q-33 4 -63.5 19.5t-61.5 15.5q-51 0 -91 -63.5t-40 -209.5v-481q0 -20 -14 -33.5 t-35 -13.5h-113q-20 0 -34.5 13.5t-14.5 33.5z" />
<glyph unicode="s" horiz-adv-x="768" d="M68 109l26 86q6 23 22.5 33t37.5 -1q53 -23 109 -40t116 -17q66 0 94.5 27.5t28.5 76.5q0 31 -16.5 55.5t-43 46t-61.5 40t-72 39.5q-39 20 -76.5 45.5t-68.5 57.5t-49.5 73t-18.5 94q0 123 82 201t236 78q74 0 125 -10.5t104 -32.5q18 -8 27.5 -24.5t1.5 -37.5l-27 -70 q-8 -20 -22.5 -29t-32.5 -1q-31 10 -75 24.5t-93 14.5q-57 0 -86 -28t-29 -71q0 -47 50.5 -80.5t115.5 -70.5q43 -23 86 -50.5t78 -63.5t56.5 -83t21.5 -108q0 -59 -20.5 -112.5t-61.5 -93.5t-103.5 -64.5t-146.5 -24.5q-72 0 -150.5 15t-138.5 44q-29 14 -29 42q0 9 3 20z " />
<glyph unicode="t" horiz-adv-x="581" d="M12 877v67q0 20 13.5 33.5t33.5 13.5h109v209q0 23 8 40t31 24l110 28q12 3 21 3q12 0 22 -5q16 -8 17 -39v-260h121q20 0 33.5 -13t13.5 -34v-67q0 -20 -13.5 -35t-33.5 -15h-121v-573q0 -80 69 -80q12 0 30 1t32 5q6 1 12 1q29 0 37 -34l16 -84q1 -6 1 -12 q0 -11 -5 -21q-8 -16 -28 -22q-29 -10 -69 -15t-83 -5q-117 0 -169 57t-52 166v616h-109q-20 0 -33.5 14.5t-13.5 35.5z" />
<glyph unicode="u" horiz-adv-x="976" d="M125 246v698q0 20 14.5 33.5t34.5 13.5h115q20 0 34.5 -13t14.5 -34v-661q0 -57 28.5 -87t82.5 -30q90 0 148 68.5t58 197.5v512q0 20 14.5 33.5t35.5 13.5h114q20 0 33.5 -13t13.5 -34v-897q0 -20 -13 -33.5t-34 -13.5h-82q-39 0 -49 41l-20 86q-47 -51 -115 -95 t-176 -44q-115 0 -183.5 67.5t-68.5 190.5z" />
<glyph unicode="v" horiz-adv-x="862" d="M41 932q-5 13 -5 23q0 12 7 21q12 15 33 15h139q45 0 55 -45l150 -637q10 -41 16 -95t10 -101q4 47 10.5 100t16.5 96l145 639q4 23 19.5 33t36.5 10h129q21 0 33 -13q8 -8 7 -22q0 -9 -3 -20l-262 -893q-12 -43 -56 -43h-168q-41 0 -53 43z" />
<glyph unicode="w" horiz-adv-x="1376" d="M43 934q-2 10 -2 19q0 15 7 24q11 14 32 14h135q45 0 53 -45l113 -604q8 -45 14 -112.5t11 -112.5q2 20 6 50t8 61.5t9 60t9 51.5l137 608q4 23 19.5 33t36.5 10h160q45 0 55 -45l137 -606q4 -23 9 -51.5t9.5 -59t7.5 -60.5t7 -52l5 50t7 61.5t8 60t8 51.5l109 608 q4 23 19.5 33t35.5 10h119q21 0 31 -13q7 -8 6 -23q0 -8 -2 -19l-205 -893q-10 -43 -55 -43h-189q-45 0 -53 43l-125 594q-10 47 -15 105.5t-11 115.5q-4 -59 -11.5 -117.5t-17.5 -103.5l-135 -594q-10 -43 -56 -43h-182q-41 0 -53 43z" />
<glyph unicode="x" horiz-adv-x="909" d="M36 16q-4 6 -3 13q0 10 8 22l299 465l-264 426q-12 20 -4 34.5t28 14.5h150q43 0 63 -37l160 -286l160 286q20 37 63 37h135q20 0 29.5 -14t-4.5 -35l-268 -416l297 -475q7 -11 7 -21q0 -8 -3 -14q-8 -16 -29 -16h-151q-45 0 -64 37l-188 342l-193 -342q-23 -37 -63 -37 h-135q-20 0 -30 16z" />
<glyph unicode="y" horiz-adv-x="884" d="M43 940q-3 9 -3 17q0 12 7 20q12 14 33 14h135q45 0 57 -45l172 -637q16 -61 19 -125q6 29 14 66t19 80l151 618q4 23 19.5 33t35.5 10h123q20 0 31 -14q8 -9 8 -23q0 -7 -2 -16l-280 -1036q-31 -115 -89.5 -186.5t-140.5 -108.5l-45 -21q-9 -5 -19 -5q-7 0 -14 3 q-18 6 -28 25l-43 84q-10 16 -1 34.5t25 28.5l29 15q102 53 139 182q4 4 9.5 21.5t10.5 37t9 38t6 26.5h-70q-41 0 -55 43z" />
<glyph unicode="z" horiz-adv-x="778" d="M66 59v66q0 18 6 32.5t16 30.5l358 574q29 49 56 69q-16 -4 -34.5 -4h-35.5h-293q-20 0 -33.5 14.5t-13.5 35.5v67q0 20 13.5 33.5t33.5 13.5h525q20 0 33.5 -13t13.5 -34v-74q0 -23 -5.5 -36t-15.5 -27l-346 -559q-14 -23 -31.5 -47.5t-31.5 -38.5q18 2 37.5 4t39.5 2 h318q20 0 33.5 -13.5t13.5 -33.5v-72q0 -20 -13.5 -34.5t-33.5 -14.5h-559q-23 0 -37 16.5t-14 42.5z" />
<glyph unicode="{" horiz-adv-x="677" d="M72 627v61q0 39 32 45q61 10 109.5 69.5t48.5 160.5v352q0 61 20.5 109.5t51.5 81t68.5 49t74.5 16.5h105q23 0 37 -14.5t14 -36.5v-43q0 -23 -14.5 -36.5t-36.5 -13.5h-39q-33 0 -52.5 -13t-30.5 -36.5t-14.5 -52.5t-3.5 -59v-342q0 -70 -21.5 -118t-51 -79t-59 -47 t-48.5 -21q18 -4 49 -17t60.5 -44t50 -80t20.5 -125v-399q0 -31 3.5 -60.5t14.5 -54t30.5 -40t52.5 -15.5h39q23 0 37 -13.5t14 -35.5v-43q0 -23 -14.5 -37t-36.5 -14h-105q-39 0 -77 16t-68.5 49t-50 81t-19.5 110v417q0 51 -14.5 93t-37 72t-51 46.5t-57.5 20.5 q-31 4 -30 41z" />
<glyph unicode="|" horiz-adv-x="505" d="M166 -463v1950q0 20 15.5 34.5t35.5 14.5h84q20 0 34.5 -14.5t14.5 -34.5v-1950q0 -20 -14 -34.5t-35 -14.5h-84q-20 0 -35.5 14.5t-15.5 34.5z" />
<glyph unicode="}" horiz-adv-x="677" d="M49 -225q0 23 13.5 36t35.5 13h41q33 0 52.5 15.5t29.5 40t14.5 54t4.5 60.5v399q0 76 21.5 126t50 81t58 44t48.5 15q-20 6 -51 22.5t-58.5 48.5t-48 80t-20.5 114v342q0 31 -4.5 59.5t-14.5 52t-29.5 36.5t-52.5 13h-41q-23 0 -36 13.5t-13 36.5v43q0 23 13.5 37 t35.5 14h107q37 0 74.5 -16.5t68.5 -49t50.5 -81t19.5 -109.5v-352q0 -100 48 -160t109 -70q33 -6 33 -45v-61q0 -37 -30 -41q-29 -4 -57.5 -20.5t-51.5 -46.5t-37 -71.5t-14 -93.5v-417q0 -61 -18.5 -109.5t-49.5 -81.5t-68.5 -49t-76.5 -16h-107q-23 0 -36 14t-13 37v43z " />
<glyph unicode="~" horiz-adv-x="1112" d="M100.5 609.5q1.5 13.5 18.5 33.5q43 53 107.5 94t156.5 41q57 0 104.5 -17.5t94.5 -39.5q47 -23 95 -45.5t103 -22.5q47 0 80 20.5t58 45.5q16 14 34.5 14t30.5 -16l37 -47q25 -33 -4 -64q-47 -53 -109.5 -95t-156.5 -42q-59 0 -106.5 18.5t-92.5 40.5q-47 23 -95 44.5 t-104 21.5q-49 0 -79.5 -20.5t-59.5 -45.5q-16 -16 -34.5 -12t-31.5 21l-34 43q-14 16 -12.5 29.5z" />
<glyph unicode="&#xa1;" horiz-adv-x="600" d="M162 903q0 59 42 102.5t101 43.5t102.5 -43.5t43.5 -102.5t-43 -101t-103 -42q-59 0 -101 42t-42 101zM190 -334l23 887q0 27 14.5 39t34.5 12h88q20 0 33.5 -14.5t13.5 -36.5l25 -887q0 -23 -13.5 -36t-35.5 -13h-133q-23 0 -36.5 13.5t-13.5 35.5z" />
<glyph unicode="&#xa2;" horiz-adv-x="886" d="M100 506q0 92 26 175t74 148.5t117.5 109.5t159.5 60v144q0 20 14.5 33.5t34.5 13.5h54q20 0 34.5 -13.5t14.5 -33.5v-139q43 -4 77.5 -14.5t59.5 -20.5q43 -18 33 -58l-27 -84q-4 -16 -17.5 -27.5t-39.5 -0.5q-16 6 -38 12t-48 10v-643q35 4 62.5 9.5t47.5 11.5 q23 6 37.5 -5.5t18.5 -29.5l20 -92q10 -41 -33 -56q-68 -23 -153 -28v-144q0 -20 -14.5 -33.5t-34.5 -13.5h-54q-20 0 -34.5 13.5t-14.5 33.5v146q-84 12 -153.5 49t-118.5 101.5t-77 155.5t-28 210zM319 508q0 -260 158 -318v621q-72 -29 -115 -104.5t-43 -198.5z" />
<glyph unicode="&#xa3;" horiz-adv-x="1040" d="M141 688v70q0 20 14.5 34.5t34.5 14.5h107v137q0 70 9 142.5t44 132t106.5 96.5t198.5 37q66 0 126.5 -9.5t107.5 -23.5q43 -12 33 -57l-21 -88q-4 -18 -20.5 -28.5t-38.5 -4.5q-41 12 -80 20t-94 8q-51 0 -83 -12t-49.5 -36.5t-23.5 -58.5t-6 -77v-178h239 q20 0 34 -14.5t14 -34.5v-70q0 -20 -13.5 -34.5t-34.5 -14.5h-239v-102q0 -111 -28.5 -197t-76.5 -147h494q20 0 34.5 -15.5t14.5 -34.5v-94q0 -20 -14.5 -34.5t-34.5 -14.5h-664q-23 0 -36 16.5t-13 42.5v72q0 18 5.5 35.5t13.5 32.5q37 63 66.5 144t29.5 192v104h-107 q-20 0 -34.5 14.5t-14.5 34.5z" />
<glyph unicode="&#xa4;" horiz-adv-x="950" d="M145.5 193.5q-4.5 23.5 8.5 42.5l63 98q-63 92 -63 215q0 59 17 114.5t48 100.5l-65 100q-12 18 -8 42t20 36l96 66q23 14 46.5 8t37.5 -31l51 -88q39 12 84 12q43 0 84 -12l51 88q14 25 38 31t46 -8l97 -66q16 -12 20 -35.5t-8 -42.5l-66 -100q31 -45 48.5 -100.5 t17.5 -114.5q0 -123 -64 -215l64 -98q12 -18 8 -42t-20 -36l-97 -66q-23 -14 -46 -8t-38 31l-49 86q-41 -12 -86 -13q-47 0 -86 13l-49 -86q-14 -25 -37.5 -31t-46.5 8l-96 66q-16 12 -20.5 35.5zM348 557q0 -39 5 -78t19.5 -69.5t41 -49t69.5 -18.5q72 0 102.5 56.5 t30.5 160.5q0 37 -5 75t-20.5 68.5t-41 50t-66.5 19.5q-61 0 -98 -53t-37 -162z" />
<glyph unicode="&#xa5;" horiz-adv-x="1439" d="M102 51v889q0 23 15.5 38t38.5 15h90q23 0 38 -15t15 -38l2 -479q0 -41 -12.5 -88t-22.5 -88q18 23 43 57.5t51 58.5l873 871q16 16 36.5 16t37.5 -16l65 -64q16 -16 16.5 -37.5t-16.5 -37.5l-872 -871q-25 -25 -59.5 -51.5t-57.5 -44.5q41 10 89 23.5t89 13.5l479 -2 q23 0 38.5 -15.5t15.5 -38.5v-92q0 -23 -15.5 -38t-38.5 -15l-882 -2q-55 0 -56 51z" />
<glyph unicode="&#xa6;" horiz-adv-x="505" d="M166 319q0 20 15.5 34t35.5 14h84q20 0 34.5 -13.5t14.5 -34.5v-782q0 -20 -14 -34.5t-35 -14.5h-84q-20 0 -35.5 14.5t-15.5 34.5v782zM166 705v782q0 20 15.5 34.5t35.5 14.5h84q20 0 34.5 -14.5t14.5 -34.5v-782q0 -20 -14 -34t-35 -14h-84q-20 0 -35.5 13.5 t-15.5 34.5z" />
<glyph unicode="&#xa7;" horiz-adv-x="915" d="M88 616q0 84 49 154t127 98q-55 49 -79.5 110.5t-24.5 129.5q0 63 22.5 120.5t68.5 101.5t115.5 69.5t161.5 25.5q63 0 112.5 -13t90.5 -23q14 -4 22.5 -17.5t2.5 -36.5l-25 -96q-4 -18 -14 -25.5t-33 -1.5q-37 10 -78 19.5t-80 9.5q-86 0 -120.5 -40t-34.5 -89 q0 -39 23.5 -68.5t61.5 -55t85 -51.5t96 -56q43 -27 83 -57.5t69.5 -71.5t48 -92t18.5 -117q0 -74 -37 -138.5t-114 -107.5q90 -86 90 -238q0 -66 -23.5 -124t-74 -102t-128 -71.5t-184.5 -27.5q-55 0 -120.5 11t-106.5 24q-39 10 -31 49l20 110q4 23 18.5 32t37.5 1 q33 -12 86 -24.5t102 -12.5q98 0 140 40t42 93q0 47 -22.5 82t-58 62.5t-81.5 52.5t-94 51q-45 25 -86 53.5t-72.5 65.5t-51 84t-19.5 108zM303 633q0 -37 17.5 -64.5t50 -53.5t81 -52.5t109.5 -59.5q41 18 60.5 55.5t19.5 80.5q0 37 -13.5 65.5t-41 54t-72.5 52t-108 59.5 q-45 -10 -74 -49t-29 -88z" />
<glyph unicode="&#xa8;" horiz-adv-x="987" d="M178 1284q0 51 35 85t82 34q51 0 87 -34t36 -85t-35 -87t-86 -36q-49 0 -84 36t-35 87zM555 1284q0 51 35 85t86 34q47 0 83 -34t36 -85t-35 -87t-82 -36q-51 0 -87 36t-36 87z" />
<glyph unicode="&#xa9;" horiz-adv-x="1640" d="M174 690q0 150 52.5 279t144.5 223t217 147.5t268 53.5t267 -53.5t216.5 -147.5t145.5 -223t53 -279t-53 -278.5t-145.5 -223t-216.5 -147.5t-267 -53t-268 53t-217 147.5t-144.5 223.5t-52.5 278zM315 690q0 -123 41 -229.5t113 -184t171 -122.5t216 -45t216 45 t171 122.5t113 184t41 229.5t-41 229.5t-113 184.5t-171 123t-216 45t-216 -45t-171 -123t-113 -184.5t-41 -229.5zM557 692q0 186 92 298t250 112q37 0 76 -9.5t65 -19.5q31 -14 21 -45l-19 -65q-10 -33 -45 -21q-39 16 -94 16q-82 0 -130 -60t-48 -206q0 -150 50 -210 t138 -60q29 0 57.5 5t51.5 11q37 10 43 -24l14 -68q6 -33 -24 -45q-33 -12 -75 -18.5t-85 -6.5q-158 0 -248 105.5t-90 310.5z" />
<glyph unicode="&#xaa;" horiz-adv-x="854" d="M125 500v51q0 23 13.5 36t35.5 13h494q25 0 37 -14.5t12 -36.5v-49q0 -23 -13.5 -36t-35.5 -13h-494q-23 0 -36 13t-13 36zM127 938q0 115 63.5 176.5t174.5 67.5l149 8l-2 22q0 59 -21.5 86t-93.5 27q-41 0 -79.5 -6t-69.5 -16q-37 -10 -43 22l-17 74q-8 33 25 41 q35 10 91 20t104 10q94 0 148 -27.5t82 -69.5t34 -93t6 -98v-258v-56.5t6 -60.5l10 -47q4 -16 -6 -24.5t-24 -8.5h-86q-31 0 -37 33l-11 55q-31 -51 -86 -77.5t-120 -26.5q-96 0 -146.5 61.5t-50.5 165.5zM295 940q0 -49 24.5 -71.5t57.5 -22.5q61 0 99 44t38 97v86 q-51 -2 -91 -5t-68.5 -16.5t-44 -40t-15.5 -71.5z" />
<glyph unicode="&#xab;" horiz-adv-x="1048" d="M106 471q-18 29 0 57l265 394q10 14 28.5 18t30.5 -4l94 -62q14 -10 17.5 -27.5t-6.5 -31.5l-213 -315l210 -312q10 -14 7.5 -32.5t-13.5 -26.5l-96 -63q-14 -10 -31.5 -4t-27.5 18zM516 471q-18 29 0 57l264 394q10 14 28.5 18t31.5 -4l94 -62q14 -10 17 -27.5t-7 -31.5 l-213 -315l211 -312q10 -14 7 -32.5t-13 -26.5l-96 -63q-14 -10 -31.5 -4t-28.5 18z" />
<glyph unicode="&#xac;" horiz-adv-x="1040" d="M98 485v84q0 23 13.5 37.5t35.5 14.5h732q23 0 37 -14.5t14 -37.5v-376q0 -23 -13.5 -36.5t-35.5 -13.5h-86q-23 0 -37.5 13.5t-14.5 36.5v243h-596q-23 0 -36 13.5t-13 35.5z" />
<glyph unicode="&#xad;" horiz-adv-x="636" d="M94 494v90q0 23 13.5 36t35.5 13h363q23 0 37 -13.5t14 -35.5v-90q0 -23 -14.5 -36.5t-36.5 -13.5h-363q-23 0 -36 13.5t-13 36.5z" />
<glyph unicode="&#xae;" horiz-adv-x="1640" d="M174 690q0 150 52.5 279t144.5 223t217 147.5t268 53.5t267 -53.5t216.5 -147.5t145.5 -223t53 -279t-53 -278.5t-145.5 -223t-216.5 -147.5t-267 -53t-268 53t-217 147.5t-144.5 223.5t-52.5 278zM315 690q0 -123 41 -229.5t113 -184t171 -122.5t216 -45t216 45 t171 122.5t113 184t41 229.5t-41 229.5t-113 184.5t-171 123t-216 45t-216 -45t-171 -123t-113 -184.5t-41 -229.5zM616 344v703q0 16 12.5 27t28.5 11h217q68 0 115 -19t77 -49t43 -67t13 -73q0 -78 -40 -137.5t-132 -69.5q23 -10 47.5 -36t51.5 -73q10 -18 23 -45 t28.5 -55.5t30 -57t26.5 -51.5q10 -18 4 -33.5t-33 -15.5h-94q-29 0 -41 27q-10 23 -19 45t-24 51q-10 20 -25.5 55t-36 69t-46 58.5t-56.5 24.5h-18v-289q0 -39 -39 -39h-72q-16 0 -28.5 11.5t-12.5 27.5zM768 754h61q76 0 106 27.5t30 82.5q0 100 -129 101h-68v-211z" />
<glyph unicode="&#xaf;" horiz-adv-x="741" d="M133 1274v55q0 23 13.5 37t35.5 14h383q23 0 36 -14t13 -37v-55q0 -23 -13 -36t-36 -13h-383q-23 0 -36 13t-13 36z" />
<glyph unicode="&#xb0;" horiz-adv-x="772" d="M117 1145q0 66 19.5 124t56 101t90 68.5t120.5 25.5q135 0 216 -86.5t81 -244.5q0 -59 -17 -114.5t-54 -100t-93.5 -71t-134.5 -26.5q-137 0 -210.5 91.5t-73.5 232.5zM274 1151q0 -96 31 -148.5t103 -52.5q78 0 106.5 52.5t28.5 138.5q0 92 -31 144t-104 52 q-72 0 -103 -52t-31 -134z" />
<glyph unicode="&#xb1;" horiz-adv-x="1888" d="M102 682v92q0 23 15.5 37t38.5 14h1233q35 0 77.5 -5t71.5 -9q-35 23 -78 47.5t-71 52.5l-338 340q-33 37 0 74l63 66q16 16 38 16t38 -16l627 -629q16 -16 17 -36.5t-17 -39.5l-627 -623q-16 -16 -38 -16t-38 16l-63 66q-33 37 0 74l335 342q29 29 73 53.5t79 46.5 q-29 -4 -72 -10t-77 -6h-1233q-23 0 -38.5 15t-15.5 38z" />
<glyph unicode="&#xb2;" horiz-adv-x="692" d="M84 621v90q0 29 18 45q92 80 152.5 132t96.5 91t49.5 70.5t13.5 70.5q0 47 -31 70.5t-72 23.5t-70.5 -13t-60.5 -32q-16 -10 -28.5 -2.5t-18.5 19.5l-47 90q-6 12 -1 24.5t19 20.5q51 29 100.5 47t106.5 18q133 0 213 -71.5t80 -181.5q0 -51 -14.5 -94.5t-47 -86.5 t-87 -89t-133.5 -103h266q14 0 24.5 -10.5t10.5 -24.5v-104q0 -14 -10.5 -24.5t-24.5 -10.5h-469q-14 0 -24.5 10t-10.5 25z" />
<glyph unicode="&#xb3;" horiz-adv-x="665" d="M82 494q-4 31 29 30q154 0 239.5 39t85.5 137q0 68 -51 106t-156 38q-23 0 -29.5 9t-6.5 26v98q0 14 8 24.5t28 10.5q74 0 124 29.5t50 88.5q0 47 -29.5 69t-76.5 22q-29 0 -59.5 -10.5t-59.5 -26.5q-31 -20 -47 10l-47 94q-14 31 16 47q45 25 103.5 38t109.5 13 q119 0 196 -68.5t77 -180.5q0 -59 -31 -111.5t-96 -87.5q74 -25 119 -86.5t45 -153.5q0 -160 -134.5 -246.5t-365.5 -86.5q-29 0 -33 30z" />
<glyph unicode="&#xb4;" horiz-adv-x="778" d="M115 1259.5q6 14.5 22 24.5l338 209q35 23 57 -16l54 -99q14 -25 6 -39t-29 -24l-356 -160q-18 -8 -33.5 -5t-26.5 19l-28 56q-10 20 -4 34.5z" />
<glyph unicode="&#xb6;" horiz-adv-x="1112" d="M98 956q0 201 103.5 312.5t296.5 111.5h460q20 0 36 -14t16 -35v-1585q0 -20 -15.5 -34.5t-36.5 -14.5h-90q-20 0 -34.5 14.5t-14.5 34.5v1458h-170v-1458q0 -20 -14 -34.5t-35 -14.5h-92q-20 0 -34.5 14.5t-14.5 34.5v829q-76 0 -141.5 30t-114.5 81t-77 121t-28 149z " />
<glyph unicode="&#xb7;" horiz-adv-x="577" d="M127 635q0 35 12.5 66.5t35 56t53 39t67.5 14.5q72 0 120 -52t48 -124q0 -35 -13.5 -66.5t-36 -55.5t-53 -38t-67.5 -14q-72 0 -119 51t-47 123z" />
<glyph unicode="&#xb8;" horiz-adv-x="778" d="M231 -328l23 56q10 29 43 16q23 -10 45.5 -15t46.5 -5q29 0 48.5 14t19.5 39q0 29 -21.5 43t-54.5 14h-25.5t-21.5 4q-27 10 -19 41l50 180h122l-28 -127q82 -4 117.5 -48.5t35.5 -110.5q0 -31 -12 -64t-38.5 -59.5t-69.5 -44t-103 -17.5q-35 0 -69.5 8.5t-65.5 22.5 q-37 18 -23 53z" />
<glyph unicode="&#xb9;" horiz-adv-x="593" d="M78 1225.5q4 13.5 16 19.5l279 131q25 10 49 6t24 -36v-603h60q14 0 24.5 -10t10.5 -24v-101q0 -14 -10.5 -24.5t-24.5 -10.5h-342q-14 0 -24.5 10.5t-10.5 24.5v101q0 14 10.5 24t24.5 10h88v390l-80 -39q-12 -6 -25.5 -4t-19.5 16l-47 94q-6 12 -2 25.5z" />
<glyph unicode="&#xba;" horiz-adv-x="860" d="M135 1092q0 174 78 276t221 102t220 -102t77 -276t-79 -278.5t-222 -104.5t-219 101t-76 282zM139 500v51q0 23 12.5 36t34.5 13h492q25 0 38 -14.5t13 -36.5v-49q0 -23 -14.5 -36t-36.5 -13h-492q-23 0 -35 13t-12 36zM305 1096q0 -133 34 -189.5t93 -56.5q61 0 93 56.5 t32 189.5q0 129 -31.5 183t-93.5 54q-59 0 -93 -54t-34 -183z" />
<glyph unicode="&#xbb;" horiz-adv-x="1050" d="M119 846.5q4 17.5 18 27.5l94 62q12 8 31 4t29 -18l262 -394q18 -29 0 -57l-262 -391q-10 -12 -27.5 -18.5t-32.5 4.5l-96 63q-10 8 -14 26.5t6 32.5l211 312l-213 315q-10 14 -6 31.5zM528.5 846.5q3.5 17.5 18.5 27.5l94 62q12 8 30.5 4t28.5 -18l263 -394 q18 -29 0 -57l-263 -391q-10 -12 -27.5 -18.5t-31.5 4.5l-96 63q-10 8 -14.5 26.5t6.5 32.5l211 312l-213 315q-10 14 -6.5 31.5z" />
<glyph unicode="&#xbc;" horiz-adv-x="1495" d="M78 1225.5q4 13.5 16 19.5l279 131q25 10 49 6t24 -36v-603h62q14 0 23.5 -10t9.5 -24v-101q0 -14 -9.5 -24.5t-23.5 -10.5h-344q-14 0 -24.5 10.5t-10.5 24.5v101q0 14 10.5 24t24.5 10h88v390l-80 -39q-12 -6 -25.5 -4t-19.5 16l-47 94q-6 12 -2 25.5zM459 -39 l426 1473q6 23 22.5 34t36.5 11h78q27 0 36 -16.5t1 -41.5l-426 -1474q-12 -41 -53 -41h-84q-29 0 -36 16.5t-1 38.5zM883 170v100q0 10 3 18.5t7 20.5l197 586q8 27 38 27h144q16 0 20 -10.5t0 -24.5l-213 -584h138l32 262q4 33 33 33h80q14 0 24.5 -9t10.5 -24v-262h53 q14 0 24.5 -10t10.5 -25v-98q0 -14 -10.5 -24.5t-24.5 -10.5h-53v-158q0 -14 -10.5 -23t-24.5 -9h-113q-14 0 -24.5 9t-10.5 23v158h-299q-14 0 -23 10.5t-9 24.5z" />
<glyph unicode="&#xbd;" horiz-adv-x="1536" d="M78 1225.5q4 13.5 16 19.5l279 131q25 10 49 6t24 -36v-603h60q14 0 24.5 -10t10.5 -24v-101q0 -14 -10.5 -24.5t-24.5 -10.5h-342q-14 0 -24.5 10.5t-10.5 24.5v101q0 14 10.5 24t24.5 10h88v390l-80 -39q-12 -6 -25.5 -4t-19.5 16l-47 94q-6 12 -2 25.5zM457 -39 l426 1473q6 23 22.5 34t36.5 11h78q27 0 36 -16.5t1 -41.5l-426 -1474q-12 -41 -53 -41h-84q-29 0 -36 16.5t-1 38.5zM944 35v90q0 31 19 47q92 80 153.5 132t96 90t49 70t14.5 71q0 47 -32 70.5t-73 23.5t-70.5 -13.5t-60.5 -31.5q-16 -10 -28.5 -3t-18.5 19l-47 90 q-6 12 -1 24.5t20 20.5q51 29 100 47.5t106 18.5q133 0 213 -72t80 -182q0 -51 -14 -94t-47 -85t-87 -88.5t-134 -103.5h266q14 0 24.5 -10t10.5 -25v-106q0 -14 -10.5 -24.5t-24.5 -10.5h-469q-14 0 -24.5 10t-10.5 25z" />
<glyph unicode="&#xbe;" horiz-adv-x="1576" d="M88 494q-4 31 29 30q154 0 238.5 39t84.5 137q0 68 -50 106t-154 38q-23 0 -30 9t-7 26v98q0 14 7 24.5t27 10.5q74 0 124.5 29.5t50.5 88.5q0 47 -30 69t-77 22q-29 0 -58.5 -10.5t-58.5 -26.5q-31 -20 -47 10l-47 94q-14 31 16 47q45 25 103.5 38t109.5 13 q119 0 196 -68.5t77 -180.5q0 -59 -32 -111.5t-97 -87.5q74 -25 120 -86.5t46 -153.5q0 -160 -134.5 -246.5t-365.5 -86.5q-31 0 -35 30zM543 -39l426 1473q12 45 57 45h80q27 0 36 -16.5t1 -41.5l-426 -1474q-6 -20 -21.5 -30.5t-33.5 -10.5h-82q-29 0 -36 16.5t-1 38.5z M963 170v100q0 10 3 18.5t7 20.5l201 586q8 27 38 27h144q16 0 20 -10.5t0 -24.5l-221 -584h148l30 266q4 33 33 33h80q14 0 24.5 -9t10.5 -24v-266h55q14 0 23.5 -10t9.5 -25v-98q0 -14 -9.5 -24.5t-23.5 -10.5h-55v-158q0 -14 -10.5 -23t-24.5 -9h-113q-33 0 -33 32v158 h-305q-14 0 -23 10.5t-9 24.5z" />
<glyph unicode="&#xbf;" horiz-adv-x="800" d="M90 -55q0 66 19.5 121t48 103t62.5 91t62.5 85t48 85t19.5 90v35q0 55 47 55h115q51 0 51 -55v-47q0 -88 -39 -160t-85 -137.5t-85 -126.5t-39 -129q0 -63 36 -103t102 -40q53 0 93 19t66 32q25 10 38.5 4t21.5 -23l49 -102q16 -37 -16 -57q-133 -80 -271 -80 q-76 0 -139.5 25.5t-108.5 70.5t-70.5 107.5t-25.5 136.5zM307 903q0 59 43 102.5t103 43.5q59 0 102 -43.5t43 -102.5t-43 -102t-102 -43t-102.5 43t-43.5 102z" />
<glyph unicode="&#xc0;" horiz-adv-x="1099" d="M27 57l366 1276q6 23 24.5 35t39.5 12h180q45 0 61 -47l394 -1276q8 -23 -3.5 -40t-33.5 -17h-144q-23 0 -40 12.5t-23 32.5l-82 303h-432l-78 -303q-4 -20 -20.5 -32.5t-38.5 -12.5h-134q-23 0 -33 17.5t-3 39.5zM233.5 1666.5q-8.5 14.5 6.5 39.5l53 98q23 39 59 17 l336 -209q16 -10 22.5 -24.5t-3.5 -35.5l-29 -55q-10 -16 -25.5 -19t-34.5 5l-356 159q-20 10 -28.5 24.5zM381 537h336l-142 538q-10 41 -17 96.5t-13 96.5q-4 -43 -12.5 -96.5t-18.5 -96.5z" />
<glyph unicode="&#xc1;" horiz-adv-x="1099" d="M27 57l366 1276q6 23 24.5 35t39.5 12h180q45 0 61 -47l394 -1276q8 -23 -3.5 -40t-33.5 -17h-144q-23 0 -40 12.5t-23 32.5l-82 303h-432l-78 -303q-4 -20 -20.5 -32.5t-38.5 -12.5h-134q-23 0 -33 17.5t-3 39.5zM367 1587q6 15 22 25l338 209q35 23 57 -17l54 -98 q14 -25 6 -39t-29 -25l-356 -159q-18 -8 -33.5 -5t-26.5 19l-28 55q-10 20 -4 35zM381 537h336l-142 538q-10 41 -17 96.5t-13 96.5q-4 -43 -12.5 -96.5t-18.5 -96.5z" />
<glyph unicode="&#xc2;" horiz-adv-x="1099" d="M27 57l366 1276q6 23 24.5 35t39.5 12h180q45 0 61 -47l394 -1276q8 -23 -3.5 -40t-33.5 -17h-144q-23 0 -40 12.5t-23 32.5l-82 303h-432l-78 -303q-4 -20 -20.5 -32.5t-38.5 -12.5h-134q-23 0 -33 17.5t-3 39.5zM215 1586q2 18 16 28l271 209q39 33 80 0l266 -207 q14 -10 17 -27.5t-7 -32.5l-29 -43q-10 -12 -28.5 -18t-34.5 4l-231 143l-224 -141q-16 -10 -35.5 -5t-27.5 17l-25 41q-10 14 -8 32zM381 537h336l-142 538q-10 41 -17 96.5t-13 96.5q-4 -43 -12.5 -96.5t-18.5 -96.5z" />
<glyph unicode="&#xc3;" horiz-adv-x="1099" d="M27 57l366 1276q6 23 24.5 35t39.5 12h180q45 0 61 -47l394 -1276q8 -23 -3.5 -40t-33.5 -17h-144q-23 0 -40 12.5t-23 32.5l-82 303h-432l-78 -303q-4 -20 -20.5 -32.5t-38.5 -12.5h-134q-23 0 -33 17.5t-3 39.5zM205 1630q4 15 18 31q41 45 90 69.5t123 24.5 q45 0 75 -12t55.5 -26.5t54 -27t71.5 -12.5q39 0 60.5 9.5t44.5 31.5q10 10 26.5 10.5t26.5 -14.5l24 -33q14 -16 8.5 -32.5t-16.5 -28.5q-45 -47 -92 -71.5t-123 -24.5q-47 0 -75.5 12t-55 26.5t-54.5 27t-71 12.5q-39 0 -61.5 -10.5t-44.5 -32.5q-25 -25 -51 10l-25 30 q-12 16 -8 31zM381 537h336l-142 538q-10 41 -17 96.5t-13 96.5q-4 -43 -12.5 -96.5t-18.5 -96.5z" />
<glyph unicode="&#xc4;" horiz-adv-x="1099" d="M27 57l366 1276q6 23 24.5 35t39.5 12h180q45 0 61 -47l394 -1276q8 -23 -3.5 -40t-33.5 -17h-144q-23 0 -40 12.5t-23 32.5l-82 303h-432l-78 -303q-4 -20 -20.5 -32.5t-38.5 -12.5h-134q-23 0 -33 17.5t-3 39.5zM223 1612q0 51 35 85t82 34q51 0 87 -34t36 -85t-35 -87 t-86 -36q-49 0 -84 36t-35 87zM381 537h336l-142 538q-10 41 -17 96.5t-13 96.5q-4 -43 -12.5 -96.5t-18.5 -96.5zM641 1612q0 51 35 85t82 34q51 0 87 -34t36 -85t-35 -87t-86 -36q-49 0 -84 36t-35 87z" />
<glyph unicode="&#xc5;" horiz-adv-x="1099" d="M29 57l379 1280q-59 59 -60 146q0 41 15.5 77.5t43 64.5t64.5 44.5t78 16.5t78 -16.5t64.5 -44.5t43 -64.5t15.5 -77.5q0 -43 -16.5 -80t-45.5 -66l406 -1280q8 -23 -3.5 -40t-33.5 -17h-146q-23 0 -40 12.5t-23 32.5l-84 303h-430l-78 -303q-4 -20 -20.5 -32.5 t-38.5 -12.5h-131q-23 0 -33 17.5t-4 39.5zM381 537h334l-140 544q-4 14 -8 38t-8 48.5t-8 48t-6 37.5q-2 -14 -5 -36.5t-7.5 -47t-8.5 -48t-8 -40.5zM449 1483q0 -43 28.5 -76t71.5 -33t70.5 33t27.5 76t-27.5 74.5t-70.5 31.5t-71.5 -31.5t-28.5 -74.5z" />
<glyph unicode="&#xc6;" horiz-adv-x="1595" d="M-16 18.5q-11 18.5 2 42.5l635 1274q10 20 28.5 32.5t38.5 12.5h760q20 0 34.5 -14t14.5 -35v-92q0 -20 -13.5 -35.5t-35.5 -15.5h-457v-367h412q20 0 34.5 -13t14.5 -34v-86q0 -23 -14.5 -37t-34.5 -14h-412v-438h482q20 0 35.5 -14.5t15.5 -34.5v-101 q0 -20 -14.5 -34.5t-34.5 -14.5h-652q-20 0 -35.5 14.5t-15.5 34.5v299h-395l-141 -303q-20 -45 -64 -45h-154q-23 0 -34 18.5zM469 539h303v536l2 180q-12 -47 -30.5 -99t-36.5 -93z" />
<glyph unicode="&#xc7;" horiz-adv-x="954" d="M82 696q0 160 39 288t110.5 219t172 140.5t225.5 49.5q59 0 125.5 -10.5t124.5 -45.5q18 -10 24 -28.5t-4 -38.5l-43 -84q-20 -37 -59 -19q-35 16 -72 24.5t-80 8.5q-78 0 -139.5 -27.5t-103.5 -89t-64.5 -158t-22.5 -231.5q0 -137 23.5 -233t67 -157.5t104.5 -89.5 t135 -28q37 0 83 11.5t77 25.5q18 8 34.5 3t22.5 -21l45 -99q10 -20 3 -36.5t-21 -22.5q-49 -25 -109.5 -41t-140.5 -18l-14 -56q82 -4 117.5 -49t35.5 -110q0 -31 -12 -64t-40 -59.5t-71 -44t-102 -17.5q-35 0 -68.5 8.5t-64.5 22.5q-37 18 -23 53l23 56q10 29 43 16 q23 -10 44 -15t46 -5q29 0 49.5 14t20.5 39q0 29 -21.5 43t-54.5 14h-25.5t-21.5 4q-27 10 -19 41l33 117q-205 37 -318.5 215t-113.5 485z" />
<glyph unicode="&#xc8;" horiz-adv-x="997" d="M172 49v1282q0 20 14.5 34.5t34.5 14.5h635q20 0 34.5 -14t14.5 -35v-92q0 -20 -13 -35.5t-36 -15.5h-467v-367h418q20 0 35.5 -13t15.5 -34v-86q0 -23 -15.5 -37t-35.5 -14h-418v-438h483q20 0 36 -14.5t16 -34.5v-101q0 -20 -15.5 -34.5t-36.5 -14.5h-651 q-20 0 -34.5 14.5t-14.5 34.5zM246 1666.5q-8 14.5 6 39.5l53 98q23 39 60 17l335 -209q16 -10 22.5 -24.5t-3.5 -35.5l-29 -55q-10 -16 -25.5 -19t-33.5 5l-357 159q-20 10 -28 24.5z" />
<glyph unicode="&#xc9;" horiz-adv-x="997" d="M172 49v1282q0 20 14.5 34.5t34.5 14.5h635q20 0 34.5 -14t14.5 -35v-92q0 -20 -13 -35.5t-36 -15.5h-467v-367h418q20 0 35.5 -13t15.5 -34v-86q0 -23 -15.5 -37t-35.5 -14h-418v-438h483q20 0 36 -14.5t16 -34.5v-101q0 -20 -15.5 -34.5t-36.5 -14.5h-651 q-20 0 -34.5 14.5t-14.5 34.5zM346 1587q6 15 23 25l338 209q35 23 57 -17l53 -98q14 -25 6 -39t-28 -25l-357 -159q-18 -8 -33.5 -5t-25.5 19l-29 55q-10 20 -4 35z" />
<glyph unicode="&#xca;" horiz-adv-x="997" d="M172 49v1282q0 20 14.5 34.5t34.5 14.5h635q20 0 34.5 -14t14.5 -35v-92q0 -20 -13 -35.5t-36 -15.5h-467v-367h418q20 0 35.5 -13t15.5 -34v-86q0 -23 -15.5 -37t-35.5 -14h-418v-438h483q20 0 36 -14.5t16 -34.5v-101q0 -20 -15.5 -34.5t-36.5 -14.5h-651 q-20 0 -34.5 14.5t-14.5 34.5zM205 1586q2 18 16 28l271 209q39 33 79 0l267 -207q14 -10 17 -27.5t-7 -32.5l-29 -43q-10 -12 -28.5 -18t-34.5 4l-232 143l-223 -141q-16 -10 -35.5 -5t-27.5 17l-25 41q-10 14 -8 32z" />
<glyph unicode="&#xcb;" horiz-adv-x="997" d="M172 49v1282q0 20 14.5 34.5t34.5 14.5h635q20 0 34.5 -14t14.5 -35v-92q0 -20 -13 -35.5t-36 -15.5h-467v-367h418q20 0 35.5 -13t15.5 -34v-86q0 -23 -15.5 -37t-35.5 -14h-418v-438h483q20 0 36 -14.5t16 -34.5v-101q0 -20 -15.5 -34.5t-36.5 -14.5h-651 q-20 0 -34.5 14.5t-14.5 34.5zM213 1612q0 51 35 85t82 34q51 0 87 -34t36 -85t-35 -87t-86 -36q-49 0 -84 36t-35 87zM631 1612q0 51 34.5 85t86.5 34q47 0 82.5 -34t35.5 -85t-35.5 -87t-82.5 -36q-51 0 -86 36t-35 87z" />
<glyph unicode="&#xcc;" horiz-adv-x="548" d="M-10 1666.5q-8 14.5 6 39.5l53 98q23 39 60 17l335 -209q16 -10 22.5 -24.5t-3.5 -35.5l-29 -55q-10 -16 -25.5 -19t-33.5 5l-357 159q-20 10 -28 24.5zM41 49v72q0 20 13.5 33.5t33.5 13.5h84v1042h-84q-20 0 -33.5 14.5t-13.5 35.5v71q0 20 13.5 34.5t33.5 14.5h385 q20 0 33.5 -14t13.5 -35v-71q0 -20 -13 -35t-34 -15h-84v-1042h84q20 0 33.5 -13.5t13.5 -33.5v-72q0 -20 -13 -34.5t-34 -14.5h-385q-20 0 -33.5 14.5t-13.5 34.5z" />
<glyph unicode="&#xcd;" horiz-adv-x="548" d="M41 49v72q0 20 13.5 33.5t33.5 13.5h84v1042h-84q-20 0 -33.5 14.5t-13.5 35.5v71q0 20 13.5 34.5t33.5 14.5h385q20 0 33.5 -14t13.5 -35v-71q0 -20 -13 -35t-34 -15h-84v-1042h84q20 0 33.5 -13.5t13.5 -33.5v-72q0 -20 -13 -34.5t-34 -14.5h-385q-20 0 -33.5 14.5 t-13.5 34.5zM100 1587q6 15 23 25l338 209q35 23 57 -17l53 -98q14 -25 6 -39t-28 -25l-356 -159q-18 -8 -34 -5t-26 19l-29 55q-10 20 -4 35z" />
<glyph unicode="&#xce;" horiz-adv-x="548" d="M-39 1586q2 18 16 28l271 209q39 33 80 0l266 -207q14 -10 17 -27.5t-7 -32.5l-29 -43q-10 -12 -28.5 -18t-34.5 4l-231 143l-224 -141q-16 -10 -35.5 -5t-27.5 17l-25 41q-10 14 -8 32zM41 49v72q0 20 13.5 33.5t33.5 13.5h84v1042h-84q-20 0 -33.5 14.5t-13.5 35.5v71 q0 20 13.5 34.5t33.5 14.5h385q20 0 33.5 -14t13.5 -35v-71q0 -20 -13 -35t-34 -15h-84v-1042h84q20 0 33.5 -13.5t13.5 -33.5v-72q0 -20 -13 -34.5t-34 -14.5h-385q-20 0 -33.5 14.5t-13.5 34.5z" />
<glyph unicode="&#xcf;" horiz-adv-x="548" d="M-45 1612q0 51 35 85t82 34q51 0 87 -34t36 -85t-35 -87t-86 -36q-49 0 -84 36t-35 87zM41 49v72q0 20 13.5 33.5t33.5 13.5h84v1042h-84q-20 0 -33.5 14.5t-13.5 35.5v71q0 20 13.5 34.5t33.5 14.5h385q20 0 33.5 -14t13.5 -35v-71q0 -20 -13 -35t-34 -15h-84v-1042h84 q20 0 33.5 -13.5t13.5 -33.5v-72q0 -20 -13 -34.5t-34 -14.5h-385q-20 0 -33.5 14.5t-13.5 34.5zM373 1612q0 51 34.5 85t86.5 34q47 0 82.5 -34t35.5 -85t-35.5 -87t-82.5 -36q-51 0 -86 36t-35 87z" />
<glyph unicode="&#xd0;" horiz-adv-x="1122" d="M66 692v88q0 23 13 37t36 14h57v500q0 20 14.5 34.5t34.5 14.5h326q109 0 203 -32.5t163.5 -110.5t109.5 -210t40 -329q0 -164 -24.5 -294t-83 -220t-157 -137t-243.5 -47h-334q-20 0 -34.5 14.5t-14.5 34.5v594h-57q-23 0 -36 13.5t-13 35.5zM389 188h131 q76 0 134.5 19.5t98.5 75t60.5 152.5t20.5 251q0 164 -24 261t-69 157q-37 47 -94 70.5t-123 23.5h-135v-367h98q23 0 37.5 -14t14.5 -37v-88q0 -23 -14.5 -36t-37.5 -13h-98v-455z" />
<glyph unicode="&#xd1;" horiz-adv-x="1241" d="M172 47v1286q0 20 14.5 33.5t34.5 13.5h193q20 0 38.5 -10t26.5 -27l346 -845q29 -68 48.5 -141.5t41.5 -149.5q-8 80 -14 169t-6 161l-2 796q0 18 14.5 32.5t34.5 14.5h105q20 0 35.5 -14t15.5 -33v-1286q0 -18 -15.5 -32.5t-35.5 -14.5h-193q-39 0 -55 39l-361 858 q-29 66 -49 146.5t-41 158.5q4 -39 9 -87t9.5 -96t7.5 -90t3 -71l2 -811q0 -18 -14.5 -32.5t-34.5 -14.5h-109q-20 0 -34.5 14.5t-14.5 32.5zM301 1630q4 15 18 31q41 45 90.5 69.5t122.5 24.5q45 0 75 -12t55.5 -26.5t54 -27t71.5 -12.5q39 0 60.5 9.5t44.5 31.5 q10 10 26.5 10.5t26.5 -14.5l25 -33q14 -16 8 -32.5t-16 -28.5q-45 -47 -92.5 -71.5t-122.5 -24.5q-47 0 -76 12t-55.5 26.5t-54 27t-70.5 12.5q-39 0 -61.5 -10.5t-45.5 -32.5q-25 -25 -51 10l-25 30q-12 16 -8 31z" />
<glyph unicode="&#xd2;" horiz-adv-x="1126" d="M92 684q0 350 121 529.5t362 179.5q238 0 359 -174.5t121 -534.5q0 -696 -480 -696q-240 0 -361.5 171t-121.5 525zM235.5 1666.5q-8.5 14.5 6.5 39.5l53 98q23 39 59 17l336 -209q16 -10 22.5 -24.5t-3.5 -35.5l-29 -55q-10 -16 -25.5 -19t-33.5 5l-357 159 q-20 10 -28.5 24.5zM319 690q0 -129 12.5 -227t42 -164t79 -98.5t120.5 -32.5q76 0 125.5 37t79 104.5t40.5 163.5t11 217q0 111 -10 207t-38.5 168t-78 113t-129.5 41q-86 0 -136 -44.5t-75.5 -118t-34 -168.5t-8.5 -198z" />
<glyph unicode="&#xd3;" horiz-adv-x="1126" d="M92 684q0 350 121 529.5t362 179.5q238 0 359 -174.5t121 -534.5q0 -696 -480 -696q-240 0 -361.5 171t-121.5 525zM319 690q0 -129 12.5 -227t42 -164t79 -98.5t120.5 -32.5q76 0 125.5 37t79 104.5t40.5 163.5t11 217q0 111 -10 207t-38.5 168t-78 113t-129.5 41 q-86 0 -136 -44.5t-75.5 -118t-34 -168.5t-8.5 -198zM387 1587q6 15 23 25l338 209q35 23 57 -17l53 -98q14 -25 6 -39t-28 -25l-357 -159q-18 -8 -33.5 -5t-25.5 19l-29 55q-10 20 -4 35z" />
<glyph unicode="&#xd4;" horiz-adv-x="1126" d="M92 684q0 350 121 529.5t362 179.5q238 0 359 -174.5t121 -534.5q0 -696 -480 -696q-240 0 -361.5 171t-121.5 525zM231.5 1586q1.5 18 16.5 28l270 209q39 33 80 0l266 -207q14 -10 17.5 -27.5t-7.5 -32.5l-28 -43q-10 -12 -28.5 -18t-35.5 4l-231 143l-223 -141 q-16 -10 -36 -5t-28 17l-24 41q-10 14 -8.5 32zM319 690q0 -129 12.5 -227t42 -164t79 -98.5t120.5 -32.5q76 0 125.5 37t79 104.5t40.5 163.5t11 217q0 111 -10 207t-38.5 168t-78 113t-129.5 41q-86 0 -136 -44.5t-75.5 -118t-34 -168.5t-8.5 -198z" />
<glyph unicode="&#xd5;" horiz-adv-x="1126" d="M92 684q0 350 121 529.5t362 179.5q238 0 359 -174.5t121 -534.5q0 -696 -480 -696q-240 0 -361.5 171t-121.5 525zM252 1630q4 15 18 31q41 45 90.5 69.5t122.5 24.5q45 0 75 -12t55.5 -26.5t54 -27t71.5 -12.5q39 0 60.5 9.5t44.5 31.5q10 10 26.5 10.5t26.5 -14.5 l25 -33q14 -16 8 -32.5t-17 -28.5q-45 -47 -92 -71.5t-123 -24.5q-47 0 -75.5 12t-55 26.5t-54.5 27t-71 12.5q-39 0 -61.5 -10.5t-44.5 -32.5q-25 -25 -51 10l-25 30q-12 16 -8 31zM319 690q0 -129 12.5 -227t42 -164t79 -98.5t120.5 -32.5q76 0 125.5 37t79 104.5 t40.5 163.5t11 217q0 111 -10 207t-38.5 168t-78 113t-129.5 41q-86 0 -136 -44.5t-75.5 -118t-34 -168.5t-8.5 -198z" />
<glyph unicode="&#xd6;" horiz-adv-x="1126" d="M92 684q0 350 121 529.5t362 179.5q238 0 359 -174.5t121 -534.5q0 -696 -480 -696q-240 0 -361.5 171t-121.5 525zM233 1612q0 51 35 85t82 34q51 0 87 -34t36 -85t-35 -87t-86 -36q-49 0 -84 36t-35 87zM319 690q0 -129 12.5 -227t42 -164t79 -98.5t120.5 -32.5 q76 0 125.5 37t79 104.5t40.5 163.5t11 217q0 111 -10 207t-38.5 168t-78 113t-129.5 41q-86 0 -136 -44.5t-75.5 -118t-34 -168.5t-8.5 -198zM651 1612q0 51 35 85t82 34q51 0 87 -34t36 -85t-35 -87t-86 -36q-49 0 -84 36t-35 87z" />
<glyph unicode="&#xd7;" horiz-adv-x="1042" d="M94.5 155.5q-0.5 18.5 16.5 34.5l297 297l-297 297q-16 16 -16.5 35t16.5 35l41 41q8 8 22 13t25 1q10 2 34.5 -10t32.5 -20l266 -267l295 295q16 16 35 16.5t35 -16.5l57 -57q16 -16 16.5 -34.5t-16.5 -35.5l-295 -295l265 -264q8 -8 21 -32.5t9 -34.5q4 -10 -7 -34 t-21 -28q-2 -4 -10.5 -9t-18.5 -10t-19.5 -7.5t-15.5 0.5q-10 -4 -26.5 3t-24.5 15l-276 276l-297 -297q-16 -16 -35 -16t-35 16l-57 58q-16 16 -16.5 34.5z" />
<glyph unicode="&#xd8;" horiz-adv-x="1126" d="M92 684q0 350 121 529.5t362 179.5q113 0 201 -41l43 102q10 20 28.5 26.5t37.5 -1.5l47 -21q18 -8 28.5 -25.5t0.5 -37.5l-58 -138q152 -170 152 -573q0 -696 -480 -696q-111 0 -196 37l-47 -109q-10 -20 -28.5 -25.5t-35.5 3.5l-49 20q-18 8 -27.5 25.5t1.5 37.5 l59 138q-160 172 -160 569zM326 690q0 -106 8 -192t26 -150l349 826q-53 47 -136 47q-86 0 -135 -45.5t-73.5 -119t-31.5 -168.5t-7 -198zM446 205q51 -39 127 -39t125.5 37t77 105.5t38.5 164.5t11 217q0 94 -8 179t-26 151z" />
<glyph unicode="&#xd9;" horiz-adv-x="1196" d="M162 428v903q0 49 47 49h119q49 0 49 -49v-880q0 -135 50 -209t177 -74q57 0 101.5 13.5t75 44t46 82.5t15.5 130v893q0 49 51 49h117q23 0 36 -13t13 -36v-903q0 -215 -114 -327.5t-337 -112.5q-229 0 -337.5 114.5t-108.5 325.5zM256.5 1666.5q-8.5 14.5 5.5 39.5 l53 98q23 39 60 17l336 -209q16 -10 22 -24.5t-4 -35.5l-29 -55q-10 -16 -25.5 -19t-33.5 5l-356 159q-20 10 -28.5 24.5z" />
<glyph unicode="&#xda;" horiz-adv-x="1196" d="M162 428v903q0 49 47 49h119q49 0 49 -49v-880q0 -135 50 -209t177 -74q57 0 101.5 13.5t75 44t46 82.5t15.5 130v893q0 49 51 49h117q23 0 36 -13t13 -36v-903q0 -215 -114 -327.5t-337 -112.5q-229 0 -337.5 114.5t-108.5 325.5zM451 1587q6 15 22 25l338 209 q35 23 57 -17l54 -98q14 -25 6 -39t-29 -25l-356 -159q-18 -8 -33.5 -5t-26.5 19l-28 55q-10 20 -4 35z" />
<glyph unicode="&#xdb;" horiz-adv-x="1196" d="M162 428v903q0 49 47 49h119q49 0 49 -49v-880q0 -135 50 -209t177 -74q57 0 101.5 13.5t75 44t46 82.5t15.5 130v893q0 49 51 49h117q23 0 36 -13t13 -36v-903q0 -215 -114 -327.5t-337 -112.5q-229 0 -337.5 114.5t-108.5 325.5zM270.5 1586q1.5 18 16.5 28l270 209 q39 33 80 0l266 -207q14 -10 17.5 -27.5t-7.5 -32.5l-28 -43q-10 -12 -28.5 -18t-35.5 4l-231 143l-223 -141q-16 -10 -36 -5t-28 17l-24 41q-10 14 -8.5 32z" />
<glyph unicode="&#xdc;" horiz-adv-x="1196" d="M162 428v903q0 49 47 49h119q49 0 49 -49v-880q0 -135 50 -209t177 -74q57 0 101.5 13.5t75 44t46 82.5t15.5 130v893q0 49 51 49h117q23 0 36 -13t13 -36v-903q0 -215 -114 -327.5t-337 -112.5q-229 0 -337.5 114.5t-108.5 325.5zM287 1612q0 51 34.5 85t81.5 34 q51 0 87 -34t36 -85t-34.5 -87t-85.5 -36q-49 0 -84 36t-35 87zM705 1612q0 51 34.5 85t81.5 34q51 0 87 -34t36 -85t-35 -87t-86 -36q-49 0 -83.5 36t-34.5 87z" />
<glyph unicode="&#xdd;" horiz-adv-x="1009" d="M39 1364q8 16 37 16h160q47 0 59 -34l184 -472q23 -57 33 -110t18 -98q6 47 17.5 98t34.5 110l178 469q14 37 61 37h146q23 0 32 -15t-4 -42l-366 -786v-488q0 -20 -14.5 -34.5t-34.5 -14.5h-117q-20 0 -35.5 14.5t-15.5 34.5v481l-371 795q-10 23 -2 39zM381 1587 q6 15 22 25l338 209q35 23 58 -17l53 -98q14 -25 6 -39t-29 -25l-356 -159q-18 -8 -33.5 -5t-25.5 19l-29 55q-10 20 -4 35z" />
<glyph unicode="&#xde;" horiz-adv-x="1024" d="M172 49v1282q0 20 14.5 34.5t34.5 14.5h119q20 0 34.5 -14t14.5 -35v-233h162q211 0 320.5 -110t109.5 -294q0 -92 -29.5 -167.5t-85 -130t-134.5 -84t-177 -29.5h-166v-234q0 -20 -14.5 -34.5t-34.5 -14.5h-119q-20 0 -34.5 14.5t-14.5 34.5zM389 467h160 q104 0 158.5 63.5t54.5 161.5q0 104 -52.5 160.5t-160.5 56.5h-160v-442z" />
<glyph unicode="&#xdf;" horiz-adv-x="1064" d="M6 874v68q0 20 13.5 33.5t33.5 13.5h99v101q0 94 28.5 163.5t80.5 115.5t125 68.5t161 22.5q80 0 145.5 -20.5t112.5 -59.5t73.5 -95t26.5 -130q0 -86 -29.5 -139t-70.5 -94q-43 -41 -78 -74t-35 -80q0 -41 26.5 -66.5t67.5 -54.5l91 -63q33 -25 64.5 -52.5t56 -64.5 t40 -83t15.5 -103q0 -68 -23.5 -122.5t-64.5 -92t-99.5 -58t-128.5 -20.5q-63 0 -120.5 10t-94.5 22q-20 6 -26.5 22.5t-1.5 37.5l18 92q4 23 21.5 32t37.5 1q35 -12 75 -20.5t69 -8.5q59 0 89 32t30 85q0 57 -40 98t-98 82l-71 53q-53 41 -90 91.5t-37 127.5q0 43 11 78 t28.5 63.5t40 51.5t45.5 45q35 33 60.5 68.5t25.5 91.5q0 61 -44 100t-118 39q-184 0 -185 -209v-1026q0 -20 -14 -33.5t-35 -13.5h-112q-18 0 -33.5 13.5t-15.5 33.5v778h-99q-20 0 -33.5 14.5t-13.5 34.5z" />
<glyph unicode="&#xe0;" horiz-adv-x="913" d="M66 291q0 154 87 230.5t232 86.5l205 15q0 4 1 22.5t-3 22.5q-2 39 -9.5 68.5t-24.5 48t-48 27.5t-80 9q-59 0 -108.5 -11t-90.5 -24q-49 -12 -59 31l-21 90q-10 43 31 56q45 14 119 27.5t139 13.5q129 0 202 -37t108.5 -93.5t44 -125t8.5 -132.5v-344v-77.5t10 -85.5 l12 -62q4 -23 -7 -35t-34 -12h-106q-45 0 -51 47l-13 76q-45 -70 -117.5 -102.5t-160.5 -32.5q-129 0 -197.5 81t-68.5 222zM174.5 1339.5q-8.5 14.5 5.5 38.5l53 99q23 39 60 16l336 -209q16 -10 22 -24.5t-4 -34.5l-29 -56q-10 -16 -25 -19t-34 5l-356 160 q-20 10 -28.5 24.5zM279 291q0 -68 33.5 -99.5t80.5 -31.5q43 0 80 16.5t62.5 42t40 55t14.5 58.5v143l-117 -4q-43 -2 -79 -11t-61.5 -29.5t-39.5 -54.5t-14 -85z" />
<glyph unicode="&#xe1;" horiz-adv-x="913" d="M66 291q0 154 87 230.5t232 86.5l205 15q0 4 1 22.5t-3 22.5q-2 39 -9.5 68.5t-24.5 48t-48 27.5t-80 9q-59 0 -108.5 -11t-90.5 -24q-49 -12 -59 31l-21 90q-10 43 31 56q45 14 119 27.5t139 13.5q129 0 202 -37t108.5 -93.5t44 -125t8.5 -132.5v-344v-77.5t10 -85.5 l12 -62q4 -23 -7 -35t-34 -12h-106q-45 0 -51 47l-13 76q-45 -70 -117.5 -102.5t-160.5 -32.5q-129 0 -197.5 81t-68.5 222zM252 1259.5q6 14.5 22 24.5l338 209q35 23 58 -16l53 -99q14 -25 6 -39t-29 -24l-356 -160q-18 -8 -33.5 -5t-25.5 19l-29 56q-10 20 -4 34.5z M279 291q0 -68 33.5 -99.5t80.5 -31.5q43 0 80 16.5t62.5 42t40 55t14.5 58.5v143l-117 -4q-43 -2 -79 -11t-61.5 -29.5t-39.5 -54.5t-14 -85z" />
<glyph unicode="&#xe2;" horiz-adv-x="913" d="M66 291q0 154 87 230.5t232 86.5l205 15q0 4 1 22.5t-3 22.5q-2 39 -9.5 68.5t-24.5 48t-48 27.5t-80 9q-59 0 -108.5 -11t-90.5 -24q-49 -12 -59 31l-21 90q-10 43 31 56q45 14 119 27.5t139 13.5q129 0 202 -37t108.5 -93.5t44 -125t8.5 -132.5v-344v-77.5t10 -85.5 l12 -62q4 -23 -7 -35t-34 -12h-106q-45 0 -51 47l-13 76q-45 -70 -117.5 -102.5t-160.5 -32.5q-129 0 -197.5 81t-68.5 222zM113 1258.5q2 17.5 16 27.5l270 209q39 33 80 0l266 -207q14 -10 17.5 -27.5t-6.5 -31.5l-29 -43q-10 -12 -28.5 -18.5t-34.5 3.5l-232 144 l-223 -141q-16 -10 -35.5 -5t-28.5 17l-24 41q-10 14 -8 31.5zM279 291q0 -68 33.5 -99.5t80.5 -31.5q43 0 80 16.5t62.5 42t40 55t14.5 58.5v143l-117 -4q-43 -2 -79 -11t-61.5 -29.5t-39.5 -54.5t-14 -85z" />
<glyph unicode="&#xe3;" horiz-adv-x="913" d="M66 291q0 154 87 230.5t232 86.5l205 15q0 4 1 22.5t-3 22.5q-2 39 -9.5 68.5t-24.5 48t-48 27.5t-80 9q-59 0 -108.5 -11t-90.5 -24q-49 -12 -59 31l-21 90q-10 43 31 56q45 14 119 27.5t139 13.5q129 0 202 -37t108.5 -93.5t44 -125t8.5 -132.5v-344v-77.5t10 -85.5 l12 -62q4 -23 -7 -35t-34 -12h-106q-45 0 -51 47l-13 76q-45 -70 -117.5 -102.5t-160.5 -32.5q-129 0 -197.5 81t-68.5 222zM121 1302.5q4 14.5 18 30.5q41 45 90.5 69.5t122.5 24.5q45 0 75 -12t55.5 -26.5t54 -26.5t71.5 -12q39 0 60.5 9t44.5 32q10 10 26.5 10t26.5 -15 l25 -32q14 -16 8 -32.5t-17 -29.5q-45 -47 -92 -71.5t-123 -24.5q-47 0 -75.5 12.5t-55 26.5t-54.5 26.5t-71 12.5q-39 0 -61.5 -10.5t-44.5 -32.5q-25 -25 -51 10l-25 31q-12 16 -8 30.5zM279 291q0 -68 33.5 -99.5t80.5 -31.5q43 0 80 16.5t62.5 42t40 55t14.5 58.5v143 l-117 -4q-43 -2 -79 -11t-61.5 -29.5t-39.5 -54.5t-14 -85z" />
<glyph unicode="&#xe4;" horiz-adv-x="913" d="M66 291q0 154 87 230.5t232 86.5l205 15q0 4 1 22.5t-3 22.5q-2 39 -9.5 68.5t-24.5 48t-48 27.5t-80 9q-59 0 -108.5 -11t-90.5 -24q-49 -12 -59 31l-21 90q-10 43 31 56q45 14 119 27.5t139 13.5q129 0 202 -37t108.5 -93.5t44 -125t8.5 -132.5v-344v-77.5t10 -85.5 l12 -62q4 -23 -7 -35t-34 -12h-106q-45 0 -51 47l-13 76q-45 -70 -117.5 -102.5t-160.5 -32.5q-129 0 -197.5 81t-68.5 222zM147 1284q0 51 35 85t82 34q51 0 87 -34t36 -85t-35 -87t-86 -36q-49 0 -84 36t-35 87zM279 291q0 -68 33.5 -99.5t80.5 -31.5q43 0 80 16.5 t62.5 42t40 55t14.5 58.5v143l-117 -4q-43 -2 -79 -11t-61.5 -29.5t-39.5 -54.5t-14 -85zM524 1284q0 51 35 85t86 34q47 0 83 -34t36 -85t-35 -87t-82 -36q-51 0 -87 36t-36 87z" />
<glyph unicode="&#xe5;" horiz-adv-x="913" d="M66 291q0 154 87 230.5t232 86.5l205 15q0 4 1 22.5t-3 22.5q-2 39 -9.5 68.5t-24.5 48t-48 27.5t-80 9q-59 0 -108.5 -11t-90.5 -24q-49 -12 -59 31l-21 90q-10 43 31 56q45 14 119 27.5t139 13.5q129 0 202 -37t108.5 -93.5t44 -125t8.5 -132.5v-344v-77.5t10 -85.5 l12 -62q4 -23 -7 -35t-34 -12h-106q-45 0 -51 47l-13 76q-45 -70 -117.5 -102.5t-160.5 -32.5q-129 0 -197.5 81t-68.5 222zM276 1350q0 41 15.5 77.5t43 64.5t64.5 44t78 16q84 0 141.5 -59t57.5 -143t-57.5 -143.5t-141.5 -59.5q-41 0 -78 16.5t-64.5 44t-43 64.5 t-15.5 78zM279 291q0 -68 33.5 -99.5t80.5 -31.5q43 0 80 16.5t62.5 42t40 55t14.5 58.5v143l-117 -4q-43 -2 -79 -11t-61.5 -29.5t-39.5 -54.5t-14 -85zM377 1350q0 -43 28.5 -76t71.5 -33t70.5 33t27.5 76t-27.5 75.5t-70.5 32.5t-71.5 -32.5t-28.5 -75.5z" />
<glyph unicode="&#xe6;" horiz-adv-x="1413" d="M76 289q0 154 94 235.5t287 81.5h143l-2 66q-2 74 -34 111.5t-128 37.5q-55 0 -106 -10t-92 -20q-49 -12 -60 30l-20 90q-4 18 2 34t28 22q45 14 119 27.5t139 13.5q209 0 283 -115q90 115 246 115q84 0 153.5 -29t119.5 -90.5t78 -157.5t28 -231q0 -20 -14.5 -34.5 t-34.5 -14.5h-494q6 -139 56.5 -211t181.5 -72q59 0 103 11t89 26q23 8 36 -3.5t19 -27.5l31 -82q8 -20 -2 -34.5t-29 -22.5q-57 -25 -116.5 -38t-155.5 -13q-236 0 -346 172q-53 -80 -139 -126t-197 -46q-129 0 -197.5 81.5t-68.5 223.5zM289 289q0 -68 33.5 -98.5 t80.5 -30.5q43 0 80 16.5t62.5 42t40 55t14.5 58.5v121q-80 0 -138.5 -4.5t-97 -20.5t-57 -49t-18.5 -90zM811 606h326q-2 45 -11.5 87t-28 75t-47 52.5t-69.5 19.5q-55 0 -105.5 -51.5t-64.5 -182.5z" />
<glyph unicode="&#xe7;" horiz-adv-x="759" d="M70 506q0 106 29.5 197.5t85 158t134 104.5t177.5 38q49 0 96 -10.5t82 -24.5q49 -18 35 -58l-29 -86q-6 -16 -18.5 -27.5t-38.5 -0.5q-23 8 -52.5 16t-68.5 8q-96 0 -152.5 -81t-56.5 -234q0 -170 53 -248t168 -78q74 0 135 17q23 6 37 -4.5t19 -28.5l16 -90 q4 -18 -3 -33.5t-30 -24.5q-43 -16 -90 -21t-98 -7l-15 -56q82 -4 118 -49t36 -110q0 -31 -12.5 -64t-39 -59.5t-69.5 -44t-102 -17.5q-35 0 -70 8.5t-65 22.5q-37 18 -23 53l23 56q10 29 43 16q23 -10 45 -15t47 -5q29 0 48 14t19 39q0 29 -21.5 43t-53.5 14h-25.5t-22.5 4 q-27 10 -18 41l33 121q-141 35 -223 160t-82 346z" />
<glyph unicode="&#xe8;" horiz-adv-x="909" d="M72 500q0 113 26.5 206t76.5 159.5t122 102.5t160 36q86 0 155.5 -29t118.5 -91.5t76 -159.5t27 -232q0 -20 -13.5 -35t-34.5 -15h-495q2 -66 15 -116t41 -83.5t72 -52t109 -18.5q59 0 104.5 11.5t90.5 25.5q23 8 36 -3t19 -28l29 -82q8 -20 -1 -34.5t-28 -22.5 q-55 -25 -116.5 -38t-155.5 -13q-207 0 -320.5 128t-113.5 384zM168.5 1339.5q-8.5 14.5 5.5 38.5l53 99q23 39 60 16l336 -209q16 -10 22 -24.5t-4 -34.5l-29 -56q-10 -16 -25.5 -19t-33.5 5l-356 160q-20 10 -28.5 24.5zM291 592h330q-2 45 -10.5 89t-27 79t-49 55.5 t-73.5 20.5q-61 0 -109.5 -55.5t-60.5 -188.5z" />
<glyph unicode="&#xe9;" horiz-adv-x="909" d="M72 500q0 113 26.5 206t76.5 159.5t122 102.5t160 36q86 0 155.5 -29t118.5 -91.5t76 -159.5t27 -232q0 -20 -13.5 -35t-34.5 -15h-495q2 -66 15 -116t41 -83.5t72 -52t109 -18.5q59 0 104.5 11.5t90.5 25.5q23 8 36 -3t19 -28l29 -82q8 -20 -1 -34.5t-28 -22.5 q-55 -25 -116.5 -38t-155.5 -13q-207 0 -320.5 128t-113.5 384zM266 1259.5q6 14.5 23 24.5l338 209q35 23 57 -16l53 -99q14 -25 6 -39t-28 -24l-357 -160q-18 -8 -33.5 -5t-25.5 19l-29 56q-10 20 -4 34.5zM291 592h330q-2 45 -10.5 89t-27 79t-49 55.5t-73.5 20.5 q-61 0 -109.5 -55.5t-60.5 -188.5z" />
<glyph unicode="&#xea;" horiz-adv-x="909" d="M72 500q0 113 26.5 206t76.5 159.5t122 102.5t160 36q86 0 155.5 -29t118.5 -91.5t76 -159.5t27 -232q0 -20 -13.5 -35t-34.5 -15h-495q2 -66 15 -116t41 -83.5t72 -52t109 -18.5q59 0 104.5 11.5t90.5 25.5q23 8 36 -3t19 -28l29 -82q8 -20 -1 -34.5t-28 -22.5 q-55 -25 -116.5 -38t-155.5 -13q-207 0 -320.5 128t-113.5 384zM135 1258.5q2 17.5 17 27.5l270 209q39 33 80 0l266 -207q14 -10 17 -27.5t-7 -31.5l-28 -43q-10 -12 -29 -18.5t-35 3.5l-231 144l-224 -141q-16 -10 -35.5 -5t-27.5 17l-25 41q-10 14 -8 31.5zM291 592h330 q-2 45 -10.5 89t-27 79t-49 55.5t-73.5 20.5q-61 0 -109.5 -55.5t-60.5 -188.5z" />
<glyph unicode="&#xeb;" horiz-adv-x="909" d="M72 500q0 113 26.5 206t76.5 159.5t122 102.5t160 36q86 0 155.5 -29t118.5 -91.5t76 -159.5t27 -232q0 -20 -13.5 -35t-34.5 -15h-495q2 -66 15 -116t41 -83.5t72 -52t109 -18.5q59 0 104.5 11.5t90.5 25.5q23 8 36 -3t19 -28l29 -82q8 -20 -1 -34.5t-28 -22.5 q-55 -25 -116.5 -38t-155.5 -13q-207 0 -320.5 128t-113.5 384zM152 1284q0 51 34.5 85t81.5 34q51 0 87 -34t36 -85t-34.5 -87t-86.5 -36q-49 0 -83.5 36t-34.5 87zM291 592h330q-2 45 -10.5 89t-27 79t-49 55.5t-73.5 20.5q-61 0 -109.5 -55.5t-60.5 -188.5zM528 1284 q0 51 35 85t86 34q47 0 83 -34t36 -85t-35 -87t-82 -36q-51 0 -87 36t-36 87z" />
<glyph unicode="&#xec;" horiz-adv-x="505" d="M-34.5 1339.5q-8.5 14.5 5.5 38.5l54 99q23 39 59 16l336 -209q16 -10 22.5 -24.5t-4.5 -34.5l-28 -56q-10 -16 -25.5 -19t-34.5 5l-356 160q-20 10 -28.5 24.5zM20 877v67q0 20 14.5 33.5t35.5 13.5h260q20 0 33.5 -13t13.5 -34v-897q0 -20 -13.5 -33.5t-33.5 -13.5 h-113q-20 0 -34.5 13.5t-14.5 33.5v780h-98q-20 0 -35 14.5t-15 35.5z" />
<glyph unicode="&#xed;" horiz-adv-x="505" d="M20 877v67q0 20 14.5 33.5t35.5 13.5h260q20 0 33.5 -13t13.5 -34v-897q0 -20 -13.5 -33.5t-33.5 -13.5h-113q-20 0 -34.5 13.5t-14.5 33.5v780h-98q-20 0 -35 14.5t-15 35.5zM39 1259.5q6 14.5 22 24.5l338 209q35 23 58 -16l53 -99q14 -25 6 -39t-29 -24l-356 -160 q-18 -8 -33.5 -5t-25.5 19l-29 56q-10 20 -4 34.5z" />
<glyph unicode="&#xee;" horiz-adv-x="505" d="M-90 1258.5q2 17.5 16 27.5l271 209q39 33 79 0l267 -207q14 -10 17 -27.5t-7 -31.5l-29 -43q-10 -12 -28.5 -18.5t-34.5 3.5l-232 144l-223 -141q-16 -10 -35.5 -5t-27.5 17l-25 41q-10 14 -8 31.5zM20 877v67q0 20 14.5 33.5t35.5 13.5h260q20 0 33.5 -13t13.5 -34 v-897q0 -20 -13.5 -33.5t-33.5 -13.5h-113q-20 0 -34.5 13.5t-14.5 33.5v780h-98q-20 0 -35 14.5t-15 35.5z" />
<glyph unicode="&#xef;" horiz-adv-x="505" d="M-68 1284q0 51 35 85t82 34q51 0 87 -34t36 -85t-35 -87t-86 -36q-49 0 -84 36t-35 87zM20 877v67q0 20 14.5 33.5t35.5 13.5h260q20 0 33.5 -13t13.5 -34v-897q0 -20 -13.5 -33.5t-33.5 -13.5h-113q-20 0 -34.5 13.5t-14.5 33.5v780h-98q-20 0 -35 14.5t-15 35.5z M309 1284q0 51 35 85t86 34q47 0 83 -34t36 -85t-35 -87t-82 -36q-51 0 -87 36t-36 87z" />
<glyph unicode="&#xf0;" horiz-adv-x="962" d="M78 434q0 94 27.5 170t77.5 130t120 83t154 29q39 0 88 -13.5t88 -35.5q-39 119 -123 215l-72 -47q-31 -20 -57 4l-68 59q-35 31 0 53l70 45q-53 39 -111.5 67t-124.5 50q-47 14 -26 68l29 80q14 39 73 22q86 -25 170 -69t162 -107l78 49q33 23 59 -2l70 -63 q29 -27 -8 -52l-78 -51q102 -119 165.5 -276.5t63.5 -352.5q0 -125 -31.5 -220t-88 -158.5t-134.5 -96t-170 -32.5t-166.5 32.5t-127 92t-81 142.5t-28.5 185zM287 432q0 -125 52 -206t153 -81q51 0 88.5 25t63.5 69t38 104t12 132q0 41 -5 90t-9 68q-25 20 -80 39.5 t-123 19.5q-92 0 -141 -66.5t-49 -193.5z" />
<glyph unicode="&#xf1;" horiz-adv-x="978" d="M139 47v897q0 20 14.5 33.5t34.5 13.5h80q43 0 51 -39l19 -84q63 72 130 104t146 32q117 0 184.5 -70t67.5 -186v-701q0 -20 -14 -33.5t-35 -13.5h-115q-20 0 -33.5 13.5t-13.5 33.5v658q0 59 -23.5 89.5t-82.5 30.5q-43 0 -79 -17t-62.5 -48t-42 -73t-15.5 -91v-549 q0 -20 -13 -33.5t-34 -13.5h-115q-20 0 -34.5 13.5t-14.5 33.5zM168 1302.5q4 14.5 18 30.5q41 45 90.5 69.5t122.5 24.5q45 0 75 -12t55.5 -26.5t54 -26.5t71.5 -12q39 0 60.5 9t44.5 32q10 10 26.5 10t26.5 -15l25 -32q14 -16 8 -32.5t-17 -29.5q-45 -47 -92 -71.5 t-123 -24.5q-47 0 -75.5 12.5t-55 26.5t-54.5 26.5t-71 12.5q-39 0 -61.5 -10.5t-44.5 -32.5q-25 -25 -51 10l-25 31q-12 16 -8 30.5z" />
<glyph unicode="&#xf2;" horiz-adv-x="931" d="M70 498q0 236 106.5 371t298.5 135q190 0 296 -136.5t106 -369.5q0 -236 -104.5 -373t-297.5 -137t-299 135t-106 375zM186.5 1339.5q-8.5 14.5 6.5 38.5l53 99q23 39 59 16l336 -209q16 -10 22.5 -24.5t-4.5 -34.5l-28 -56q-10 -16 -25.5 -19t-34.5 5l-356 160 q-20 10 -28.5 24.5zM285 498q0 -182 51 -256t135 -74t136 74t52 256q0 178 -52 253.5t-136 75.5t-135 -75.5t-51 -253.5z" />
<glyph unicode="&#xf3;" horiz-adv-x="931" d="M70 498q0 236 106.5 371t298.5 135q190 0 296 -136.5t106 -369.5q0 -236 -104.5 -373t-297.5 -137t-299 135t-106 375zM285 498q0 -182 51 -256t135 -74t136 74t52 256q0 178 -52 253.5t-136 75.5t-135 -75.5t-51 -253.5zM289 1259.5q6 14.5 22 24.5l338 209 q35 23 58 -16l53 -99q14 -25 6 -39t-29 -24l-356 -160q-18 -8 -33.5 -5t-25.5 19l-29 56q-10 20 -4 34.5z" />
<glyph unicode="&#xf4;" horiz-adv-x="931" d="M70 498q0 236 106.5 371t298.5 135q190 0 296 -136.5t106 -369.5q0 -236 -104.5 -373t-297.5 -137t-299 135t-106 375zM141.5 1258.5q1.5 17.5 16.5 27.5l270 209q39 33 80 0l266 -207q14 -10 17.5 -27.5t-7.5 -31.5l-28 -43q-10 -12 -28.5 -18.5t-35.5 3.5l-231 144 l-223 -141q-16 -10 -36 -5t-28 17l-24 41q-10 14 -8.5 31.5zM285 498q0 -182 51 -256t135 -74t136 74t52 256q0 178 -52 253.5t-136 75.5t-135 -75.5t-51 -253.5z" />
<glyph unicode="&#xf5;" horiz-adv-x="931" d="M70 498q0 236 106.5 371t298.5 135q190 0 296 -136.5t106 -369.5q0 -236 -104.5 -373t-297.5 -137t-299 135t-106 375zM137 1302.5q4 14.5 19 30.5q41 45 90 69.5t123 24.5q45 0 74.5 -12t55 -26.5t54.5 -26.5t72 -12q39 0 60.5 9t43.5 32q10 10 26.5 10t26.5 -15l25 -32 q14 -16 8 -32.5t-16 -29.5q-45 -47 -92.5 -71.5t-122.5 -24.5q-47 0 -76 12.5t-55.5 26.5t-54 26.5t-70.5 12.5q-39 0 -61.5 -10.5t-45.5 -32.5q-25 -25 -51 10l-25 31q-12 16 -8 30.5zM285 498q0 -182 51 -256t135 -74t136 74t52 256q0 178 -52 253.5t-136 75.5t-135 -75.5 t-51 -253.5z" />
<glyph unicode="&#xf6;" horiz-adv-x="931" d="M70 498q0 236 106.5 371t298.5 135q190 0 296 -136.5t106 -369.5q0 -236 -104.5 -373t-297.5 -137t-299 135t-106 375zM164 1284q0 51 34.5 85t82.5 34q51 0 86.5 -34t35.5 -85t-34.5 -87t-85.5 -36q-49 0 -84 36t-35 87zM285 498q0 -182 51 -256t135 -74t136 74t52 256 q0 178 -52 253.5t-136 75.5t-135 -75.5t-51 -253.5zM541 1284q0 51 34.5 85t86.5 34q47 0 82.5 -34t35.5 -85t-34.5 -87t-81.5 -36q-51 0 -87 36t-36 87z" />
<glyph unicode="&#xf7;" horiz-adv-x="1527" d="M12 877v67q0 20 13.5 33.5t33.5 13.5h109v148q0 162 79 233.5t202 71.5q53 0 106 -11.5t88 -27.5q20 -10 24.5 -25.5t0.5 -33.5l-25 -86q-10 -39 -51 -25q-20 6 -49 13t-60 7q-41 0 -72.5 -27.5t-31.5 -103.5v-133h319v160q0 168 90.5 241.5t255.5 73.5q35 0 76 -5 t79 -12t72 -16.5t52 -17.5q20 -10 25.5 -26.5t-0.5 -34.5l-31 -99q-10 -35 -55 -22q-14 4 -38 11t-52.5 15.5t-59.5 13.5t-57 5q-70 0 -109 -28.5t-39 -108.5v-150h477q23 0 36.5 -13t13.5 -34v-897q0 -20 -14.5 -33.5t-35.5 -13.5h-112q-20 0 -33.5 13.5t-13.5 33.5v780 h-318v-780q0 -20 -14 -33.5t-35 -13.5h-110q-18 0 -34 13.5t-16 33.5v780h-321v-780q0 -20 -13.5 -33.5t-33.5 -13.5h-113q-18 0 -33.5 13.5t-15.5 33.5v780h-109q-20 0 -33.5 14.5t-13.5 35.5z" />
<glyph unicode="&#xf8;" horiz-adv-x="942" d="M70 498q0 236 106.5 371t298.5 135q66 0 125 -19l31 74q10 20 28.5 26.5t36.5 -2.5l43 -18q18 -8 27.5 -26.5t-0.5 -39.5l-37 -86q72 -66 110 -171t38 -244q0 -236 -104.5 -373t-297.5 -137q-35 0 -68.5 5t-62.5 15l-33 -78q-10 -20 -29.5 -26t-35.5 2l-43 18 q-18 8 -27.5 26.5t0.5 39.5l39 92q-145 133 -145 416zM285 498q0 -68 7 -119t21 -90l222 526q-31 12 -64 12q-84 0 -135 -75.5t-51 -253.5zM408 178q16 -6 31.5 -8t31.5 -2q84 0 136 74t52 256q0 127 -28 207z" />
<glyph unicode="&#xf9;" horiz-adv-x="970" d="M125 246v698q0 20 14.5 33.5t34.5 13.5h115q20 0 34.5 -13t14.5 -34v-661q0 -57 28.5 -87t82.5 -30q90 0 148 68.5t58 197.5v512q0 20 14.5 33.5t35.5 13.5h114q20 0 33.5 -13t13.5 -34v-897q0 -20 -13 -33.5t-34 -13.5h-82q-39 0 -49 41l-20 86q-47 -51 -115 -95 t-176 -44q-115 0 -183.5 67.5t-68.5 190.5zM194.5 1339.5q-8.5 14.5 6.5 38.5l53 99q23 39 59 16l336 -209q16 -10 22.5 -24.5t-3.5 -34.5l-29 -56q-10 -16 -25.5 -19t-33.5 5l-357 160q-20 10 -28.5 24.5z" />
<glyph unicode="&#xfa;" horiz-adv-x="970" d="M125 246v698q0 20 14.5 33.5t34.5 13.5h115q20 0 34.5 -13t14.5 -34v-661q0 -57 28.5 -87t82.5 -30q90 0 148 68.5t58 197.5v512q0 20 14.5 33.5t35.5 13.5h114q20 0 33.5 -13t13.5 -34v-897q0 -20 -13 -33.5t-34 -13.5h-82q-39 0 -49 41l-20 86q-47 -51 -115 -95 t-176 -44q-115 0 -183.5 67.5t-68.5 190.5zM287 1259.5q6 14.5 22 24.5l338 209q35 23 58 -16l53 -99q14 -25 6 -39t-29 -24l-356 -160q-18 -8 -33.5 -5t-26.5 19l-28 56q-10 20 -4 34.5z" />
<glyph unicode="&#xfb;" horiz-adv-x="970" d="M125 246v698q0 20 14.5 33.5t34.5 13.5h115q20 0 34.5 -13t14.5 -34v-661q0 -57 28.5 -87t82.5 -30q90 0 148 68.5t58 197.5v512q0 20 14.5 33.5t35.5 13.5h114q20 0 33.5 -13t13.5 -34v-897q0 -20 -13 -33.5t-34 -13.5h-82q-39 0 -49 41l-20 86q-47 -51 -115 -95 t-176 -44q-115 0 -183.5 67.5t-68.5 190.5zM154 1258.5q2 17.5 16 27.5l270 209q39 33 80 0l266 -207q14 -10 17.5 -27.5t-6.5 -31.5l-29 -43q-10 -12 -28.5 -18.5t-34.5 3.5l-232 144l-223 -141q-16 -10 -35.5 -5t-28.5 17l-24 41q-10 14 -8 31.5z" />
<glyph unicode="&#xfc;" horiz-adv-x="970" d="M125 246v698q0 20 14.5 33.5t34.5 13.5h115q20 0 34.5 -13t14.5 -34v-661q0 -57 28.5 -87t82.5 -30q90 0 148 68.5t58 197.5v512q0 20 14.5 33.5t35.5 13.5h114q20 0 33.5 -13t13.5 -34v-897q0 -20 -13 -33.5t-34 -13.5h-82q-39 0 -49 41l-20 86q-47 -51 -115 -95 t-176 -44q-115 0 -183.5 67.5t-68.5 190.5zM184 1284q0 51 35 85t82 34q51 0 87 -34t36 -85t-35 -87t-86 -36q-49 0 -84 36t-35 87zM561 1284q0 51 35 85t86 34q47 0 83 -34t36 -85t-35 -87t-82 -36q-51 0 -87 36t-36 87z" />
<glyph unicode="&#xfd;" horiz-adv-x="884" d="M43 940q-8 23 4 37t33 14h135q45 0 57 -45l172 -637q16 -61 19 -125q6 29 14 66t19 80l151 618q4 23 19.5 33t35.5 10h123q20 0 31.5 -14t5.5 -39l-280 -1036q-31 -115 -89.5 -186.5t-140.5 -108.5l-45 -21q-16 -8 -33.5 -2t-27.5 25l-43 84q-10 16 -1 34.5t25 28.5 l29 15q102 53 139 182q4 4 9.5 21.5t10.5 37t9 38t6 26.5h-70q-41 0 -55 43zM293 1259.5q6 14.5 22 24.5l338 209q35 23 58 -16l53 -99q14 -25 6 -39t-29 -24l-356 -160q-18 -8 -33.5 -5t-25.5 19l-29 56q-10 20 -4 34.5z" />
<glyph unicode="&#xfe;" horiz-adv-x="956" d="M137 -358v1763q0 20 14.5 33.5t34.5 13.5h111q20 0 34.5 -13.5t14.5 -33.5v-526q37 59 92.5 92t132.5 33q66 0 124.5 -29t95.5 -72q61 -72 85.5 -169t24.5 -234q0 -143 -24.5 -241.5t-68.5 -158t-104.5 -86t-132.5 -26.5q-76 0 -132 32.5t-93 85.5v-464q0 -20 -14.5 -34 t-34.5 -14h-111q-20 0 -34.5 13.5t-14.5 34.5zM340 492q0 -168 42 -245t126 -77q43 0 74.5 16.5t53 54.5t32 100.5t10.5 152.5q0 98 -11.5 162.5t-33.5 101.5q-39 70 -125 69q-80 0 -124 -82.5t-44 -252.5z" />
<glyph unicode="&#xff;" horiz-adv-x="882" d="M43 940q-8 23 4 37t33 14h135q45 0 57 -45l172 -637q16 -61 19 -125q6 29 14 66t19 80l151 618q4 23 19.5 33t35.5 10h123q20 0 31.5 -14t5.5 -39l-280 -1036q-31 -115 -89.5 -186.5t-140.5 -108.5l-45 -21q-16 -8 -33.5 -2t-27.5 25l-43 84q-10 16 -1 34.5t25 28.5 l29 15q102 53 139 182q4 4 9.5 21.5t10.5 37t9 38t6 26.5h-70q-41 0 -55 43zM156 1284q0 51 34.5 85t81.5 34q51 0 87 -34t36 -85t-34.5 -87t-86.5 -36q-49 0 -83.5 36t-34.5 87zM532 1284q0 51 35 85t86 34q47 0 83 -34t36 -85t-35 -87t-82 -36q-51 0 -87 36t-36 87z" />
<glyph unicode="&#x152;" horiz-adv-x="1525" d="M96 684q0 709 486 709q41 0 71.5 -6.5t71.5 -6.5h670q20 0 34.5 -14t14.5 -35v-92q0 -20 -13.5 -35.5t-35.5 -15.5h-467v-367h418q20 0 35.5 -13t15.5 -34v-86q0 -23 -15.5 -37t-35.5 -14h-418v-438h483q20 0 35.5 -14.5t15.5 -34.5v-101q0 -20 -15 -34.5t-36 -14.5h-686 q-39 0 -73 -6t-70 -6q-244 0 -365 169t-121 527zM328 688q0 -260 52 -392t200 -132q37 0 70.5 5t60.5 17v1012q-29 12 -62 17.5t-69 5.5q-86 0 -136.5 -45.5t-76 -119t-32.5 -169.5t-7 -199z" />
<glyph unicode="&#x153;" horiz-adv-x="1456" d="M66 498q0 236 105 373t298 137q92 0 167 -35t122 -105q47 66 117.5 103t156.5 37t155.5 -30t119 -92.5t77 -159.5t27.5 -232q0 -20 -13.5 -35t-33.5 -15h-496q2 -66 15.5 -117t40 -86.5t70.5 -54t110 -18.5q59 0 104 11t90 26q23 8 36.5 -3.5t19.5 -27.5l28 -82 q8 -20 -1 -34.5t-27 -22.5q-57 -25 -116.5 -38t-156.5 -13q-102 0 -185 35.5t-136 107.5q-47 -68 -122 -105.5t-169 -37.5q-193 0 -298 137t-105 377zM281 498q0 -182 51 -259t135 -77t135 77t51 259q0 178 -51 254.5t-135 76.5t-135 -76.5t-51 -254.5zM868 596h326 q-2 49 -11 93t-27.5 78t-47.5 53.5t-72 19.5q-31 0 -58.5 -12.5t-50 -41t-38 -74.5t-21.5 -116z" />
<glyph unicode="&#x178;" horiz-adv-x="1009" d="M39 1364q8 16 37 16h160q47 0 59 -34l184 -472q23 -57 33 -110t18 -98q6 47 17.5 98t34.5 110l178 469q14 37 61 37h146q23 0 32 -15t-4 -42l-366 -786v-488q0 -20 -14.5 -34.5t-34.5 -14.5h-117q-20 0 -35.5 14.5t-15.5 34.5v481l-371 795q-10 23 -2 39zM193 1612 q0 51 34.5 85t81.5 34q51 0 87 -34t36 -85t-35 -87t-86 -36q-49 0 -83.5 36t-34.5 87zM610 1612q0 51 36 85t83 34q51 0 86 -34t35 -85t-35 -87t-86 -36q-49 0 -84 36t-35 87z" />
<glyph unicode="&#x2c6;" horiz-adv-x="827" d="M96 1258.5q2 17.5 17 27.5l270 209q39 33 80 0l266 -207q14 -10 17.5 -27.5t-7.5 -31.5l-28 -43q-10 -12 -28.5 -18.5t-35.5 3.5l-231 144l-223 -141q-16 -10 -36 -5t-28 17l-25 41q-10 14 -8 31.5z" />
<glyph unicode="&#x2dc;" horiz-adv-x="862" d="M98 1302.5q4 14.5 19 30.5q41 45 90 69.5t123 24.5q45 0 74.5 -12t55 -26.5t54.5 -26.5t72 -12q39 0 60.5 9t43.5 32q10 10 26.5 10t26.5 -15l25 -32q14 -16 8 -32.5t-16 -29.5q-45 -47 -92 -71.5t-123 -24.5q-47 0 -76 12.5t-55.5 26.5t-54 26.5t-70.5 12.5 q-39 0 -61.5 -10.5t-45.5 -32.5q-25 -25 -51 10l-25 31q-12 16 -8 30.5z" />
<glyph unicode="&#x2000;" horiz-adv-x="919" />
<glyph unicode="&#x2001;" horiz-adv-x="1839" />
<glyph unicode="&#x2002;" horiz-adv-x="919" />
<glyph unicode="&#x2003;" horiz-adv-x="1839" />
<glyph unicode="&#x2004;" horiz-adv-x="613" />
<glyph unicode="&#x2005;" horiz-adv-x="459" />
<glyph unicode="&#x2006;" horiz-adv-x="306" />
<glyph unicode="&#x2007;" horiz-adv-x="306" />
<glyph unicode="&#x2008;" horiz-adv-x="229" />
<glyph unicode="&#x2009;" horiz-adv-x="367" />
<glyph unicode="&#x200a;" horiz-adv-x="102" />
<glyph unicode="&#x2010;" horiz-adv-x="636" d="M94 494v90q0 23 13.5 36t35.5 13h363q23 0 37 -13.5t14 -35.5v-90q0 -23 -14.5 -36.5t-36.5 -13.5h-363q-23 0 -36 13.5t-13 36.5z" />
<glyph unicode="&#x2011;" horiz-adv-x="636" d="M94 494v90q0 23 13.5 36t35.5 13h363q23 0 37 -13.5t14 -35.5v-90q0 -23 -14.5 -36.5t-36.5 -13.5h-363q-23 0 -36 13.5t-13 36.5z" />
<glyph unicode="&#x2012;" horiz-adv-x="636" d="M94 494v90q0 23 13.5 36t35.5 13h363q23 0 37 -13.5t14 -35.5v-90q0 -23 -14.5 -36.5t-36.5 -13.5h-363q-23 0 -36 13.5t-13 36.5z" />
<glyph unicode="&#x2013;" horiz-adv-x="1003" d="M0 535v71q0 23 13.5 36t35.5 13h926q23 0 36 -13t13 -36v-71q0 -23 -13.5 -36.5t-35.5 -13.5h-926q-23 0 -36 13.5t-13 36.5z" />
<glyph unicode="&#x2014;" horiz-adv-x="2007" d="M0 535v71q0 23 13.5 36t35.5 13h1950q23 0 36 -13t13 -36v-71q0 -23 -13.5 -36.5t-35.5 -13.5h-1950q-23 0 -36 13.5t-13 36.5z" />
<glyph unicode="&#x2018;" horiz-adv-x="407" d="M74 1190q0 78 45 160t117 147q16 14 32.5 20.5t32.5 -8.5l45 -36q35 -31 8 -64q-23 -25 -34 -41t-19 -33q-10 -23 -7 -33t15 -20q23 -16 38 -43.5t15 -62.5q0 -61 -41.5 -103.5t-101.5 -42.5q-66 0 -105.5 44t-39.5 116z" />
<glyph unicode="&#x2019;" horiz-adv-x="407" d="M55 1358q0 61 42 103t102 42q66 0 105.5 -44t39.5 -116q0 -78 -45 -159.5t-117 -147.5q-16 -14 -32.5 -20t-32.5 8l-45 37q-33 31 -9 61q23 25 34.5 42.5t19.5 33.5q10 23 7 33t-15 20q-23 16 -38.5 44t-15.5 63z" />
<glyph unicode="&#x201a;" horiz-adv-x="407" d="M55 131q0 61 42 103t102 42q66 0 105.5 -43.5t39.5 -115.5q0 -78 -45 -160t-117 -147q-16 -14 -32.5 -20.5t-32.5 7.5l-45 37q-33 31 -9 62q23 25 34.5 42t19.5 33q10 23 7 33t-15 21q-23 16 -38.5 43.5t-15.5 62.5z" />
<glyph unicode="&#x201c;" horiz-adv-x="790" d="M74 1190q0 78 45 160t117 147q16 14 32.5 20.5t32.5 -8.5l45 -36q35 -31 8 -64q-23 -25 -34 -41t-19 -33q-10 -23 -7 -33t15 -20q23 -16 38 -43.5t15 -62.5q0 -61 -41.5 -103.5t-101.5 -42.5q-66 0 -105.5 44t-39.5 116zM465 1190q0 78 45 160t117 147q16 14 33.5 20.5 t33.5 -8.5l43 -36q35 -31 8 -64q-23 -25 -34 -41t-19 -33q-10 -23 -7 -33t15 -20q23 -16 38.5 -43.5t15.5 -62.5q0 -61 -42 -103.5t-102 -42.5q-66 0 -105.5 44t-39.5 116z" />
<glyph unicode="&#x201d;" horiz-adv-x="790" d="M55 1358q0 61 42 103t102 42q66 0 105.5 -44t39.5 -116q0 -78 -45 -159.5t-117 -147.5q-16 -14 -32.5 -20t-32.5 8l-45 37q-33 31 -9 61q23 25 34.5 42.5t19.5 33.5q10 23 7 33t-15 20q-23 16 -38.5 44t-15.5 63zM446 1358q0 61 42 103t102 42q66 0 105.5 -44t39.5 -116 q0 -78 -45 -159.5t-117 -147.5q-16 -14 -32.5 -20t-32.5 8l-45 37q-33 31 -8 61q23 25 34 42.5t19 33.5q10 23 7 33t-15 20q-23 16 -38.5 44t-15.5 63z" />
<glyph unicode="&#x201e;" horiz-adv-x="790" d="M55 133q0 61 42 103.5t102 42.5q66 0 105.5 -45t39.5 -117q0 -78 -45 -160t-117 -147q-16 -14 -32.5 -20.5t-32.5 7.5l-45 39q-33 31 -9 62q23 25 34.5 41t19.5 32q10 23 7 33t-15 21q-23 16 -38.5 44.5t-15.5 63.5zM444 133q0 61 42 103.5t102 42.5q66 0 105.5 -45 t39.5 -117q0 -78 -45 -160t-117 -147q-16 -14 -32.5 -20.5t-32.5 7.5l-45 39q-33 31 -8 62q23 25 34 41t19 32q10 23 7 33t-15 21q-23 16 -38.5 44.5t-15.5 63.5z" />
<glyph unicode="&#x2022;" horiz-adv-x="919" d="M188 651q0 57 21.5 109.5t60.5 91.5t89.5 61.5t109.5 22.5q57 0 108.5 -22.5t90.5 -61.5t60.5 -91.5t21.5 -109.5q0 -59 -21.5 -110.5t-60.5 -90t-90.5 -61t-108.5 -22.5q-59 0 -109.5 22.5t-89.5 61t-60.5 90t-21.5 110.5z" />
<glyph unicode="&#x2026;" horiz-adv-x="1351" d="M55 133q0 59 42 102.5t102 43.5q59 0 102 -43.5t43 -102.5t-43 -102t-102 -43t-101.5 43t-42.5 102zM545 133q0 59 43 102.5t102 43.5t101.5 -43.5t42.5 -102.5t-42 -102t-102 -43q-59 0 -102 43t-43 102zM1034 133q0 59 43 102.5t103 43.5q59 0 102 -43.5t43 -102.5 t-43 -102t-102 -43t-102.5 43t-43.5 102z" />
<glyph unicode="&#x202f;" horiz-adv-x="367" />
<glyph unicode="&#x2039;" horiz-adv-x="647" d="M106 471q-18 29 0 57l265 394q10 14 28.5 18t30.5 -4l94 -62q14 -10 17.5 -27.5t-6.5 -31.5l-213 -315l210 -312q10 -14 7.5 -32.5t-13.5 -26.5l-96 -63q-14 -10 -31.5 -4t-27.5 18z" />
<glyph unicode="&#x203a;" horiz-adv-x="649" d="M119 846.5q4 17.5 18 27.5l94 62q12 8 31 4t29 -18l262 -394q18 -29 0 -57l-262 -391q-10 -12 -27.5 -18.5t-32.5 4.5l-96 63q-10 8 -14 26.5t6 32.5l211 312l-213 315q-10 14 -6 31.5z" />
<glyph unicode="&#x205f;" horiz-adv-x="459" />
<glyph unicode="&#x2122;" horiz-adv-x="1505" d="M23 1348v71q0 33 32 33h480q33 0 32 -33v-71q0 -33 -32 -33h-162v-590q0 -14 -10.5 -23.5t-24.5 -9.5h-86q-33 0 -33 33v590h-164q-33 0 -32 33zM623 727l71 692q4 33 37 33h125q10 0 22.5 -7t16.5 -22l109 -407q6 -23 9 -48.5t7 -47.5q4 27 7 53t7 43l109 407 q4 14 14 21.5t23 7.5h125q14 0 25 -8t13 -25l74 -694q4 -33 -28 -33h-99q-29 0 -33 33l-26 463q-2 18 -2 45t-2 51q-4 -27 -8.5 -50.5t-10.5 -45.5l-106 -385q-8 -29 -37 -29h-100q-31 0 -39 29l-103 385q-4 16 -10 52t-10 54q0 -27 -1 -57.5t-3 -48.5l-27 -463 q-4 -33 -33 -33h-86q-12 0 -22 9.5t-8 25.5z" />
<glyph unicode="&#x25fc;" horiz-adv-x="993" d="M0 0v993h993v-993h-993z" />
</font>
</defs>
</svg>
