<?xml version="1.0" encoding="utf-8"?>
<!-- Generator: Adobe Illustrator 17.0.2, SVG Export Plug-In . SVG Version: 6.00 Build 0)  -->
<!DOCTYPE svg PUBLIC "-//W3C//DTD SVG 1.1//EN" "http://www.w3.org/Graphics/SVG/1.1/DTD/svg11.dtd">
<svg version="1.1" id="Layer_1" xmlns="http://www.w3.org/2000/svg" xmlns:xlink="http://www.w3.org/1999/xlink" x="0px" y="0px"
	 width="1024px" height="1024px" viewBox="0 0 1024 1024" enable-background="new 0 0 1024 1024" xml:space="preserve">
<path d="M174.024,844.559l-0.964,0.472l86.251,85.53l85.53,86.251l0.472-0.964l0.973,0.964L679.07,684.03l0.089,0.182l32.173-32.446
	l107.217-107.215l32.391-32.12l-0.964-0.472l0.964-0.973L347.144,7.188l-0.973,0.964L345.7,7.188l-85.53,86.251l-86.251,85.53
	l0.964,0.472l-0.964,0.973l331.158,331.158L173.06,843.586L174.024,844.559z M512.057,678.786l-1.903,0.932l0.933-1.901l1.903-0.932
	L512.057,678.786z M512.914,345.214l0.932,1.903l-1.901-0.933l-0.933-1.903L512.914,345.214z"/>
<g display="none">
	<rect x="513.015" y="503.344" display="inline" width="7.587" height="7.587"/>
	<rect x="503.398" y="503.344" display="inline" width="7.587" height="7.587"/>
	<rect x="513.015" y="513.069" display="inline" width="7.587" height="7.587"/>
	<rect x="503.398" y="513.069" display="inline" width="7.587" height="7.587"/>
</g>
</svg>
