<?xml version="1.0" encoding="utf-8"?>
<!-- Generator: Adobe Illustrator 17.0.2, SVG Export Plug-In . SVG Version: 6.00 Build 0)  -->
<!DOCTYPE svg PUBLIC "-//W3C//DTD SVG 1.1//EN" "http://www.w3.org/Graphics/SVG/1.1/DTD/svg11.dtd">
<svg version="1.1" id="Layer_1" xmlns="http://www.w3.org/2000/svg" xmlns:xlink="http://www.w3.org/1999/xlink" x="0px" y="0px"
	 width="1024px" height="1024px" viewBox="0 0 1024 1024" enable-background="new 0 0 1024 1024" xml:space="preserve">
<path d="M849.976,179.441l0.964-0.472l-86.251-85.53l-85.53-86.251l-0.472,0.964l-0.973-0.964L344.93,339.97l-0.089-0.182
	l-32.173,32.446L205.451,479.449l-32.391,32.12l0.964,0.472l-0.964,0.973l503.796,503.798l0.973-0.964l0.472,0.964l85.53-86.251
	l86.251-85.53l-0.964-0.472l0.964-0.973L518.923,512.428L850.94,180.413L849.976,179.441z M511.943,345.214l1.903-0.933
	l-0.932,1.901l-1.903,0.933L511.943,345.214z M511.087,678.786l-0.933-1.903l1.901,0.933l0.932,1.903L511.087,678.786z"/>
<g display="none">
	<rect x="513.015" y="503.344" display="inline" width="7.587" height="7.587"/>
	<rect x="503.398" y="503.344" display="inline" width="7.587" height="7.587"/>
	<rect x="513.015" y="513.069" display="inline" width="7.587" height="7.587"/>
	<rect x="503.398" y="513.069" display="inline" width="7.587" height="7.587"/>
</g>
</svg>
